<?xml version="1.0" encoding="UTF-8" standalone="no"?>
<svg
   xmlns:dc="http://purl.org/dc/elements/1.1/"
   xmlns:cc="http://creativecommons.org/ns#"
   xmlns:rdf="http://www.w3.org/1999/02/22-rdf-syntax-ns#"
   xmlns:svg="http://www.w3.org/2000/svg"
   xmlns="http://www.w3.org/2000/svg"
   xmlns:sodipodi="http://sodipodi.sourceforge.net/DTD/sodipodi-0.dtd"
   xmlns:inkscape="http://www.inkscape.org/namespaces/inkscape"
   version="1.1"
   viewBox="0 20 640 781"
   stroke-miterlimit="10"
   id="svg161"
   sodipodi:docname="bulk_submission_simple_many.svg"
   width="640"
   height="781"
   style="fill:none;stroke:none;stroke-linecap:square;stroke-miterlimit:10"
   inkscape:version="0.92.3 (2405546, 2018-03-11)">
  <metadata
     id="metadata167">
    <rdf:RDF>
      <cc:Work
         rdf:about="">
        <dc:format>image/svg+xml</dc:format>
        <dc:type
           rdf:resource="http://purl.org/dc/dcmitype/StillImage" />
        <dc:title></dc:title>
      </cc:Work>
    </rdf:RDF>
  </metadata>
  <defs
     id="defs165" />
  <sodipodi:namedview
     pagecolor="#ffffff"
     bordercolor="#666666"
     borderopacity="1"
     objecttolerance="10"
     gridtolerance="10"
     guidetolerance="10"
     inkscape:pageopacity="0"
     inkscape:pageshadow="2"
     inkscape:window-width="1440"
     inkscape:window-height="882"
     id="namedview163"
     showgrid="false"
     viewbox-y="20"
     inkscape:zoom="0.44"
     inkscape:cx="512"
     inkscape:cy="384"
     inkscape:window-x="110"
     inkscape:window-y="25"
     inkscape:window-maximized="0"
     inkscape:current-layer="svg161" />
  <clipPath
     id="p.0">
    <path
       d="M 0,0 H 1024 V 768 H 0 Z"
       id="path2"
       inkscape:connector-curvature="0"
       style="clip-rule:nonzero" />
  </clipPath>
  <g
     clip-path="url(#p.0)"
     id="g159"
     transform="translate(0,13)">
    <path
       d="M 0,0 H 1024 V 768 H 0 Z"
       id="path5"
       inkscape:connector-curvature="0"
       style="fill:#000000;fill-opacity:0;fill-rule:evenodd" />
    <path
       d="M 40.90551,60.335957 H 199.3937 V 711.76906 H 40.90551 Z"
       id="path7"
       inkscape:connector-curvature="0"
       style="fill:#000000;fill-opacity:0;fill-rule:evenodd" />
    <path
       d="m 57.452385,83.70908 1.609375,0.21875 q -0.265625,1.65625 -1.359375,2.609375 -1.078125,0.9375 -2.671875,0.9375 -1.984375,0 -3.1875,-1.296875 -1.203125,-1.296875 -1.203125,-3.71875 0,-1.578125 0.515625,-2.75 0.515625,-1.171875 1.578125,-1.75 1.0625,-0.59375 2.3125,-0.59375 1.578125,0 2.578125,0.796875 1,0.796875 1.28125,2.265625 l -1.59375,0.234375 q -0.234375,-0.96875 -0.8125,-1.453125 -0.578125,-0.5 -1.390625,-0.5 -1.234375,0 -2.015625,0.890625 -0.78125,0.890625 -0.78125,2.8125 0,1.953125 0.75,2.84375 0.75,0.875 1.953125,0.875 0.96875,0 1.609375,-0.59375 0.65625,-0.59375 0.828125,-1.828125 z m 2.40625,-1.296875 q 0,-2.6875 1.484375,-3.96875 1.25,-1.078125 3.046875,-1.078125 2,0 3.265625,1.3125 1.265625,1.296875 1.265625,3.609375 0,1.859375 -0.5625,2.9375 -0.5625,1.0625 -1.640625,1.65625 -1.0625,0.59375 -2.328125,0.59375 -2.03125,0 -3.28125,-1.296875 -1.25,-1.3125 -1.25,-3.765625 z m 1.6875,0 q 0,1.859375 0.796875,2.796875 0.8125,0.921875 2.046875,0.921875 1.21875,0 2.03125,-0.921875 0.8125,-0.9375 0.8125,-2.84375 0,-1.796875 -0.8125,-2.71875 -0.8125,-0.921875 -2.03125,-0.921875 -1.234375,0 -2.046875,0.921875 -0.796875,0.90625 -0.796875,2.765625 z m 9.297592,4.84375 V 77.58408 h 1.46875 v 1.375 q 1.0625,-1.59375 3.078125,-1.59375 0.875,0 1.609375,0.3125 0.734375,0.3125 1.09375,0.828125 0.375,0.5 0.515625,1.203125 0.09375,0.453125 0.09375,1.59375 v 5.953125 H 77.062477 V 81.36533 q 0,-1 -0.203125,-1.484375 -0.1875,-0.5 -0.671875,-0.796875 -0.484375,-0.296875 -1.140625,-0.296875 -1.046875,0 -1.8125,0.671875 -0.75,0.65625 -0.75,2.515625 v 5.28125 z m 10.375717,0 V 77.58408 h 1.46875 v 1.375 q 1.0625,-1.59375 3.078125,-1.59375 0.875,0 1.609375,0.3125 0.734375,0.3125 1.09375,0.828125 0.375,0.5 0.515625,1.203125 0.09375,0.453125 0.09375,1.59375 v 5.953125 H 87.438194 V 81.36533 q 0,-1 -0.203125,-1.484375 -0.1875,-0.5 -0.671875,-0.796875 -0.484375,-0.296875 -1.140625,-0.296875 -1.046875,0 -1.8125,0.671875 -0.75,0.65625 -0.75,2.515625 v 5.28125 z m 17.000717,-3.109375 1.6875,0.203125 q -0.40625,1.484375 -1.484375,2.3125 -1.078125,0.8125 -2.765625,0.8125 -2.125,0 -3.375,-1.296875 -1.234375,-1.3125 -1.234375,-3.671875 0,-2.453125 1.25,-3.796875 1.265625,-1.34375 3.265625,-1.34375 1.9375,0 3.15625,1.328125 1.234375,1.3125 1.234375,3.703125 0,0.15625 0,0.4375 h -7.21875 q 0.09375,1.59375 0.90625,2.453125 0.8125,0.84375 2.015625,0.84375 0.90625,0 1.546875,-0.46875 0.640625,-0.484375 1.015625,-1.515625 z m -5.390625,-2.65625 h 5.40625 q -0.109375,-1.21875 -0.625,-1.828125 -0.78125,-0.953125 -2.03125,-0.953125 -1.125,0 -1.90625,0.765625 -0.765625,0.75 -0.84375,2.015625 z m 15.453844,2.21875 1.60937,0.21875 q -0.26562,1.65625 -1.35937,2.609375 -1.07813,0.9375 -2.67188,0.9375 -1.98437,0 -3.1875,-1.296875 -1.20312,-1.296875 -1.20312,-3.71875 0,-1.578125 0.51562,-2.75 0.51563,-1.171875 1.57813,-1.75 1.0625,-0.59375 2.3125,-0.59375 1.57812,0 2.57812,0.796875 1,0.796875 1.28125,2.265625 l -1.59375,0.234375 q -0.23437,-0.96875 -0.8125,-1.453125 -0.57812,-0.5 -1.39062,-0.5 -1.23438,0 -2.01563,0.890625 -0.78125,0.890625 -0.78125,2.8125 0,1.953125 0.75,2.84375 0.75,0.875 1.95313,0.875 0.96875,0 1.60937,-0.59375 0.65625,-0.59375 0.82813,-1.828125 z m 6.59375,2.078125 0.23437,1.453125 q -0.6875,0.140625 -1.23437,0.140625 -0.89063,0 -1.39063,-0.28125 -0.48437,-0.28125 -0.6875,-0.734375 -0.20312,-0.46875 -0.20312,-1.9375 v -5.578125 h -1.20313 V 77.58408 h 1.20313 v -2.390625 l 1.625,-0.984375 v 3.375 h 1.65625 v 1.265625 h -1.65625 v 5.671875 q 0,0.6875 0.0781,0.890625 0.0937,0.203125 0.28125,0.328125 0.20313,0.109375 0.57813,0.109375 0.26562,0 0.71875,-0.0625 z m 4.73018,5.390625 q -1.35938,-1.703125 -2.29688,-4 -0.9375,-2.296875 -0.9375,-4.765625 0,-2.15625 0.70313,-4.140625 0.82812,-2.3125 2.53125,-4.59375 h 1.17187 q -1.09375,1.890625 -1.45312,2.703125 -0.54688,1.25 -0.875,2.625 -0.39063,1.703125 -0.39063,3.421875 0,4.375 2.71875,8.75 z m 4.1658,0 h -1.1875 q 2.73437,-4.375 2.73437,-8.75 0,-1.71875 -0.39062,-3.390625 -0.3125,-1.375 -0.875,-2.625 -0.35938,-0.828125 -1.46875,-2.734375 h 1.1875 q 1.70312,2.28125 2.53125,4.59375 0.6875,1.984375 0.6875,4.140625 0,2.46875 -0.9375,4.765625 -0.9375,2.296875 -2.28125,4 z"
       id="path9"
       inkscape:connector-curvature="0"
       style="fill:#000000;fill-rule:nonzero" />
    <path
       d="m 50.483635,192.36533 1.625,-0.25 q 0.125,0.96875 0.75,1.5 0.625,0.51562 1.75,0.51562 1.125,0 1.671875,-0.45312 0.546875,-0.46875 0.546875,-1.09375 0,-0.54688 -0.484375,-0.875 -0.328125,-0.21875 -1.671875,-0.54688 -1.8125,-0.46875 -2.515625,-0.79687 -0.6875,-0.32813 -1.046875,-0.90625 -0.359375,-0.59375 -0.359375,-1.3125 0,-0.64063 0.296875,-1.1875 0.296875,-0.5625 0.8125,-0.92188 0.375,-0.28125 1.03125,-0.46875 0.671875,-0.20312 1.421875,-0.20312 1.140625,0 2,0.32812 0.859375,0.32813 1.265625,0.89063 0.421875,0.5625 0.578125,1.5 l -1.609375,0.21875 q -0.109375,-0.75 -0.640625,-1.17188 -0.515625,-0.42187 -1.46875,-0.42187 -1.140625,0 -1.625,0.375 -0.46875,0.375 -0.46875,0.875 0,0.3125 0.1875,0.57812 0.203125,0.26563 0.640625,0.4375 0.234375,0.0937 1.4375,0.42188 1.75,0.45312 2.4375,0.75 0.6875,0.29687 1.078125,0.85937 0.390625,0.5625 0.390625,1.40625 0,0.82813 -0.484375,1.54688 -0.46875,0.71875 -1.375,1.125 -0.90625,0.39062 -2.046875,0.39062 -1.875,0 -2.875,-0.78125 -0.984375,-0.78125 -1.25,-2.32812 z m 16.609375,-0.21875 1.6875,0.20312 q -0.40625,1.48438 -1.484375,2.3125 -1.078125,0.8125 -2.765625,0.8125 -2.125,0 -3.375,-1.29687 -1.234375,-1.3125 -1.234375,-3.67188 0,-2.45312 1.25,-3.79687 1.265625,-1.34375 3.265625,-1.34375 1.9375,0 3.15625,1.32812 1.234375,1.3125 1.234375,3.70313 0,0.15625 0,0.4375 h -7.21875 q 0.09375,1.59375 0.90625,2.45312 0.8125,0.84375 2.015625,0.84375 0.90625,0 1.546875,-0.46875 0.640625,-0.48437 1.015625,-1.51562 z m -5.390625,-2.65625 h 5.40625 q -0.109375,-1.21875 -0.625,-1.82813 -0.78125,-0.95312 -2.03125,-0.95312 -1.125,0 -1.90625,0.76562 -0.765625,0.75 -0.84375,2.01563 z m 9.141342,5.76562 v -9.67187 h 1.46875 v 1.375 q 1.0625,-1.59375 3.078125,-1.59375 0.875,0 1.609375,0.3125 0.734375,0.3125 1.09375,0.82812 0.375,0.5 0.515625,1.20313 0.09375,0.45312 0.09375,1.59375 v 5.95312 h -1.640625 v -5.89062 q 0,-1 -0.203125,-1.48438 -0.1875,-0.5 -0.671875,-0.79687 -0.484375,-0.29688 -1.140625,-0.29688 -1.046875,0 -1.8125,0.67188 -0.75,0.65625 -0.75,2.51562 v 5.28125 z m 16.641342,0 v -1.21875 q -0.90625,1.4375 -2.703125,1.4375 -1.15625,0 -2.125,-0.64062 -0.96875,-0.64063 -1.5,-1.78125 -0.53125,-1.14063 -0.53125,-2.625 0,-1.45313 0.484375,-2.625 0.484375,-1.1875 1.4375,-1.8125 0.96875,-0.625 2.171875,-0.625 0.875,0 1.546875,0.375 0.6875,0.35937 1.109375,0.95312 v -4.79687 h 1.640625 v 13.35937 z m -5.171875,-4.82812 q 0,1.85937 0.78125,2.78125 0.78125,0.92187 1.84375,0.92187 1.078125,0 1.828125,-0.875 0.75,-0.89062 0.75,-2.6875 0,-1.98437 -0.765625,-2.90625 -0.765625,-0.9375 -1.890625,-0.9375 -1.078125,0 -1.8125,0.89063 -0.734375,0.89062 -0.734375,2.8125 z m 12.406967,8.75 q -1.359375,-1.70313 -2.296875,-4 -0.9375,-2.29688 -0.9375,-4.76563 0,-2.15625 0.703125,-4.14062 0.828125,-2.3125 2.53125,-4.59375 h 1.171875 q -1.09375,1.89062 -1.453125,2.70312 -0.546875,1.25 -0.875,2.625 -0.390625,1.70313 -0.390625,3.42188 0,4.375 2.71875,8.75 z m 3.072052,-15.375 v -1.90625 h 1.640625 v 1.90625 z m -2.078125,15.20312 0.3125,-1.39062 q 0.5,0.125 0.78125,0.125 0.5,0 0.734375,-0.32813 0.25,-0.32812 0.25,-1.67187 v -10.15625 h 1.640625 v 10.20312 q 0,1.78125 -0.46875,2.48438 -0.59375,0.90625 -1.96875,0.90625 -0.65625,0 -1.28125,-0.17188 z m 5.629192,-8.59375 q 0,-2.6875 1.48438,-3.96875 1.25,-1.07812 3.04687,-1.07812 2,0 3.26563,1.3125 1.26562,1.29687 1.26562,3.60937 0,1.85938 -0.5625,2.9375 -0.5625,1.0625 -1.64062,1.65625 -1.0625,0.59375 -2.32813,0.59375 -2.03125,0 -3.28125,-1.29687 -1.25,-1.3125 -1.25,-3.76563 z m 1.6875,0 q 0,1.85938 0.79688,2.79688 0.8125,0.92187 2.04687,0.92187 1.21875,0 2.03125,-0.92187 0.8125,-0.9375 0.8125,-2.84375 0,-1.79688 -0.8125,-2.71875 -0.8125,-0.92188 -2.03125,-0.92188 -1.23437,0 -2.04687,0.92188 -0.79688,0.90625 -0.79688,2.76562 z m 10.7976,4.84375 h -1.51563 v -13.35937 h 1.64063 v 4.76562 q 1.04687,-1.29687 2.65625,-1.29687 0.89062,0 1.6875,0.35937 0.79687,0.35938 1.3125,1.01563 0.51562,0.64062 0.79687,1.5625 0.29688,0.92187 0.29688,1.96875 0,2.48437 -1.23438,3.84375 -1.21875,1.35937 -2.95312,1.35937 -1.70313,0 -2.6875,-1.4375 z m -0.0156,-4.90625 q 0,1.73438 0.48438,2.51563 0.76562,1.26562 2.09375,1.26562 1.07812,0 1.85937,-0.9375 0.78125,-0.9375 0.78125,-2.78125 0,-1.89062 -0.75,-2.79687 -0.75,-0.90625 -1.82812,-0.90625 -1.0625,0 -1.85938,0.9375 -0.78125,0.9375 -0.78125,2.70312 z m 14.6101,4.90625 h -1.64063 v -10.45312 q -0.59375,0.5625 -1.5625,1.14062 -0.95313,0.5625 -1.71875,0.84375 v -1.59375 q 1.375,-0.64062 2.40625,-1.5625 1.03125,-0.92187 1.45312,-1.78125 h 1.06251 z m 3.14134,3.70313 v -1.1875 h 10.85938 v 1.1875 z m 18.15697,-3.70313 v -1.21875 q -0.90625,1.4375 -2.70312,1.4375 -1.15625,0 -2.125,-0.64062 -0.96875,-0.64063 -1.5,-1.78125 -0.53125,-1.14063 -0.53125,-2.625 0,-1.45313 0.48437,-2.625 0.48438,-1.1875 1.4375,-1.8125 0.96875,-0.625 2.17188,-0.625 0.875,0 1.54687,0.375 0.6875,0.35937 1.10938,0.95312 v -4.79687 h 1.64062 v 13.35937 z m -5.17187,-4.82812 q 0,1.85937 0.78125,2.78125 0.78125,0.92187 1.84375,0.92187 1.07812,0 1.82812,-0.875 0.75,-0.89062 0.75,-2.6875 0,-1.98437 -0.76562,-2.90625 -0.76563,-0.9375 -1.89063,-0.9375 -1.07812,0 -1.8125,0.89063 -0.73437,0.89062 -0.73437,2.8125 z m 15.59446,3.64062 q -0.92187,0.76563 -1.76562,1.09375 -0.82813,0.3125 -1.79688,0.3125 -1.59375,0 -2.45312,-0.78125 -0.85938,-0.78125 -0.85938,-1.98437 0,-0.71875 0.32813,-1.29688 0.32812,-0.59375 0.84375,-0.9375 0.53125,-0.35937 1.1875,-0.54687 0.46875,-0.125 1.45312,-0.25 1.98438,-0.23438 2.92188,-0.5625 0.0156,-0.34375 0.0156,-0.42188 0,-1 -0.46875,-1.42187 -0.625,-0.54688 -1.875,-0.54688 -1.15625,0 -1.70312,0.40625 -0.54688,0.40625 -0.8125,1.42188 L 153.55,188.33408 q 0.21875,-1.01563 0.71875,-1.64063 0.5,-0.64062 1.45313,-0.98437 0.95312,-0.34375 2.1875,-0.34375 1.25,0 2.01562,0.29687 0.78125,0.28125 1.14063,0.73438 0.375,0.4375 0.51562,1.10937 0.0781,0.42188 0.0781,1.51563 v 2.1875 q 0,2.28125 0.10937,2.89062 0.10938,0.59375 0.40625,1.15625 h -1.70312 q -0.26563,-0.51562 -0.32813,-1.1875 z m -0.14062,-3.67187 q -0.89063,0.375 -2.67188,0.625 -1.01562,0.14062 -1.4375,0.32812 -0.42187,0.1875 -0.65625,0.53125 -0.21875,0.34375 -0.21875,0.78125 0,0.65625 0.5,1.09375 0.5,0.4375 1.45313,0.4375 0.9375,0 1.67187,-0.40625 0.75,-0.42187 1.09375,-1.14062 0.26563,-0.5625 0.26563,-1.64063 z m 7.78196,3.39062 0.23438,1.45313 q -0.6875,0.14062 -1.23438,0.14062 -0.89062,0 -1.39062,-0.28125 -0.48438,-0.28125 -0.6875,-0.73437 -0.20313,-0.46875 -0.20313,-1.9375 v -5.57813 h -1.20312 v -1.26562 h 1.20312 v -2.39063 l 1.625,-0.98437 v 3.375 h 1.65625 v 1.26562 h -1.65625 v 5.67188 q 0,0.6875 0.0781,0.89062 0.0937,0.20313 0.28125,0.32813 0.20312,0.10937 0.57812,0.10937 0.26563,0 0.71875,-0.0625 z m 7.91768,0.28125 q -0.92187,0.76563 -1.76562,1.09375 -0.82813,0.3125 -1.79688,0.3125 -1.59375,0 -2.45312,-0.78125 -0.85938,-0.78125 -0.85938,-1.98437 0,-0.71875 0.32813,-1.29688 0.32812,-0.59375 0.84375,-0.9375 0.53125,-0.35937 1.1875,-0.54687 0.46875,-0.125 1.45312,-0.25 1.98438,-0.23438 2.92188,-0.5625 0.0156,-0.34375 0.0156,-0.42188 0,-1 -0.46875,-1.42187 -0.625,-0.54688 -1.875,-0.54688 -1.15625,0 -1.70312,0.40625 -0.54688,0.40625 -0.8125,1.42188 l -1.60938,-0.21875 q 0.21875,-1.01563 0.71875,-1.64063 0.5,-0.64062 1.45313,-0.98437 0.95312,-0.34375 2.1875,-0.34375 1.25,0 2.01562,0.29687 0.78125,0.28125 1.14063,0.73438 0.375,0.4375 0.51562,1.10937 0.0781,0.42188 0.0781,1.51563 v 2.1875 q 0,2.28125 0.10937,2.89062 0.10938,0.59375 0.40625,1.15625 h -1.70312 q -0.26563,-0.51562 -0.32813,-1.1875 z m -0.14062,-3.67187 q -0.89063,0.375 -2.67188,0.625 -1.01562,0.14062 -1.4375,0.32812 -0.42187,0.1875 -0.65625,0.53125 -0.21875,0.34375 -0.21875,0.78125 0,0.65625 0.5,1.09375 0.5,0.4375 1.45313,0.4375 0.9375,0 1.67187,-0.40625 0.75,-0.42187 1.09375,-1.14062 0.26563,-0.5625 0.26563,-1.64063 z m 5.28197,8.78125 h -1.1875 q 2.73437,-4.375 2.73437,-8.75 0,-1.71875 -0.39062,-3.39063 -0.3125,-1.375 -0.875,-2.625 -0.35938,-0.82812 -1.46875,-2.73437 h 1.1875 q 1.70312,2.28125 2.53125,4.59375 0.6875,1.98437 0.6875,4.14062 0,2.46875 -0.9375,4.76563 -0.9375,2.29687 -2.28125,4 z"
       id="path11"
       inkscape:connector-curvature="0"
       style="fill:#000000;fill-rule:nonzero" />
    <path
       d="m 57.452385,293.70908 1.609375,0.21875 q -0.265625,1.65625 -1.359375,2.60937 -1.078125,0.9375 -2.671875,0.9375 -1.984375,0 -3.1875,-1.29687 -1.203125,-1.29688 -1.203125,-3.71875 0,-1.57813 0.515625,-2.75 0.515625,-1.17188 1.578125,-1.75 1.0625,-0.59375 2.3125,-0.59375 1.578125,0 2.578125,0.79687 1,0.79688 1.28125,2.26563 l -1.59375,0.23437 q -0.234375,-0.96875 -0.8125,-1.45312 -0.578125,-0.5 -1.390625,-0.5 -1.234375,0 -2.015625,0.89062 -0.78125,0.89063 -0.78125,2.8125 0,1.95313 0.75,2.84375 0.75,0.875 1.953125,0.875 0.96875,0 1.609375,-0.59375 0.65625,-0.59375 0.828125,-1.82812 z m 2.96875,3.54687 v -13.35937 h 1.640625 v 13.35937 z m 3.582321,-4.84375 q 0,-2.6875 1.484375,-3.96875 1.25,-1.07812 3.046875,-1.07812 2,0 3.265625,1.3125 1.265625,1.29687 1.265625,3.60937 0,1.85938 -0.5625,2.9375 -0.5625,1.0625 -1.640625,1.65625 -1.0625,0.59375 -2.328125,0.59375 -2.03125,0 -3.28125,-1.29687 -1.25,-1.3125 -1.25,-3.76563 z m 1.6875,0 q 0,1.85938 0.796875,2.79688 0.8125,0.92187 2.046875,0.92187 1.21875,0 2.03125,-0.92187 0.8125,-0.9375 0.8125,-2.84375 0,-1.79688 -0.8125,-2.71875 -0.8125,-0.92188 -2.03125,-0.92188 -1.234375,0 -2.046875,0.92188 -0.796875,0.90625 -0.796875,2.76562 z m 8.641342,1.95313 1.625,-0.25 q 0.125,0.96875 0.75,1.5 0.625,0.51562 1.75,0.51562 1.125,0 1.671875,-0.45312 0.546875,-0.46875 0.546875,-1.09375 0,-0.54688 -0.484375,-0.875 -0.328125,-0.21875 -1.671875,-0.54688 -1.8125,-0.46875 -2.515625,-0.79687 -0.6875,-0.32813 -1.046875,-0.90625 -0.359375,-0.59375 -0.359375,-1.3125 0,-0.64063 0.296875,-1.1875 0.296875,-0.5625 0.8125,-0.92188 0.375,-0.28125 1.03125,-0.46875 0.671875,-0.20312 1.421875,-0.20312 1.140625,0 2,0.32812 0.859375,0.32813 1.265625,0.89063 0.421875,0.5625 0.578125,1.5 l -1.609375,0.21875 q -0.109375,-0.75 -0.640625,-1.17188 -0.515625,-0.42187 -1.46875,-0.42187 -1.140625,0 -1.625,0.375 -0.46875,0.375 -0.46875,0.875 0,0.3125 0.1875,0.57812 0.203125,0.26563 0.640625,0.4375 0.234375,0.0937 1.4375,0.42188 1.75,0.45312 2.4375,0.75 0.6875,0.29687 1.078125,0.85937 0.390625,0.5625 0.390625,1.40625 0,0.82813 -0.484375,1.54688 -0.46875,0.71875 -1.375,1.125 -0.90625,0.39062 -2.046875,0.39062 -1.875,0 -2.875,-0.78125 -0.984375,-0.78125 -1.25,-2.32812 z m 16.609375,-0.21875 1.6875,0.20312 q -0.40625,1.48438 -1.484375,2.3125 -1.078125,0.8125 -2.765625,0.8125 -2.125,0 -3.375,-1.29687 -1.234375,-1.3125 -1.234375,-3.67188 0,-2.45312 1.25,-3.79687 1.265625,-1.34375 3.265625,-1.34375 1.9375,0 3.15625,1.32812 1.234375,1.3125 1.234375,3.70313 0,0.15625 0,0.4375 h -7.21875 q 0.09375,1.59375 0.90625,2.45312 0.8125,0.84375 2.015625,0.84375 0.90625,0 1.546875,-0.46875 0.640625,-0.48437 1.015625,-1.51562 z m -5.390625,-2.65625 h 5.40625 q -0.109375,-1.21875 -0.625,-1.82813 -0.78125,-0.95312 -2.03125,-0.95312 -1.125,0 -1.90625,0.76562 -0.765625,0.75 -0.84375,2.01563 z m 12.266342,9.6875 q -1.359375,-1.70313 -2.296875,-4 -0.9375,-2.29688 -0.9375,-4.76563 0,-2.15625 0.703125,-4.14062 0.828125,-2.3125 2.53125,-4.59375 h 1.171875 q -1.09375,1.89062 -1.453125,2.70312 -0.546875,1.25 -0.875,2.625 -0.390625,1.70313 -0.390625,3.42188 0,4.375 2.71875,8.75 z m 4.1658,0 h -1.1875 q 2.73438,-4.375 2.73438,-8.75 0,-1.71875 -0.39063,-3.39063 -0.3125,-1.375 -0.875,-2.625 -0.35937,-0.82812 -1.46875,-2.73437 h 1.1875 q 1.70313,2.28125 2.53125,4.59375 0.6875,1.98437 0.6875,4.14062 0,2.46875 -0.9375,4.76563 -0.9375,2.29687 -2.28125,4 z"
       id="path13"
       inkscape:connector-curvature="0"
       style="fill:#000000;fill-rule:nonzero" />
    <path
       d="m 57.452385,403.70908 1.609375,0.21875 q -0.265625,1.65625 -1.359375,2.60937 -1.078125,0.9375 -2.671875,0.9375 -1.984375,0 -3.1875,-1.29687 -1.203125,-1.29688 -1.203125,-3.71875 0,-1.57813 0.515625,-2.75 0.515625,-1.17188 1.578125,-1.75 1.0625,-0.59375 2.3125,-0.59375 1.578125,0 2.578125,0.79687 1,0.79688 1.28125,2.26563 l -1.59375,0.23437 q -0.234375,-0.96875 -0.8125,-1.45312 -0.578125,-0.5 -1.390625,-0.5 -1.234375,0 -2.015625,0.89062 -0.78125,0.89063 -0.78125,2.8125 0,1.95313 0.75,2.84375 0.75,0.875 1.953125,0.875 0.96875,0 1.609375,-0.59375 0.65625,-0.59375 0.828125,-1.82812 z m 2.40625,-1.29688 q 0,-2.6875 1.484375,-3.96875 1.25,-1.07812 3.046875,-1.07812 2,0 3.265625,1.3125 1.265625,1.29687 1.265625,3.60937 0,1.85938 -0.5625,2.9375 -0.5625,1.0625 -1.640625,1.65625 -1.0625,0.59375 -2.328125,0.59375 -2.03125,0 -3.28125,-1.29687 -1.25,-1.3125 -1.25,-3.76563 z m 1.6875,0 q 0,1.85938 0.796875,2.79688 0.8125,0.92187 2.046875,0.92187 1.21875,0 2.03125,-0.92187 0.8125,-0.9375 0.8125,-2.84375 0,-1.79688 -0.8125,-2.71875 -0.8125,-0.92188 -2.03125,-0.92188 -1.234375,0 -2.046875,0.92188 -0.796875,0.90625 -0.796875,2.76562 z m 9.297592,4.84375 v -9.67187 h 1.46875 v 1.375 q 1.0625,-1.59375 3.078125,-1.59375 0.875,0 1.609375,0.3125 0.734375,0.3125 1.09375,0.82812 0.375,0.5 0.515625,1.20313 0.09375,0.45312 0.09375,1.59375 v 5.95312 h -1.640625 v -5.89062 q 0,-1 -0.203125,-1.48438 -0.1875,-0.5 -0.671875,-0.79687 -0.484375,-0.29688 -1.140625,-0.29688 -1.046875,0 -1.8125,0.67188 -0.75,0.65625 -0.75,2.51562 v 5.28125 z m 10.375717,0 v -9.67187 h 1.46875 v 1.375 q 1.0625,-1.59375 3.078125,-1.59375 0.875,0 1.609375,0.3125 0.734375,0.3125 1.09375,0.82812 0.375,0.5 0.515625,1.20313 0.09375,0.45312 0.09375,1.59375 v 5.95312 h -1.640625 v -5.89062 q 0,-1 -0.203125,-1.48438 -0.1875,-0.5 -0.671875,-0.79687 -0.484375,-0.29688 -1.140625,-0.29688 -1.046875,0 -1.8125,0.67188 -0.75,0.65625 -0.75,2.51562 v 5.28125 z m 17.000717,-3.10937 1.6875,0.20312 q -0.40625,1.48438 -1.484375,2.3125 -1.078125,0.8125 -2.765625,0.8125 -2.125,0 -3.375,-1.29687 -1.234375,-1.3125 -1.234375,-3.67188 0,-2.45312 1.25,-3.79687 1.265625,-1.34375 3.265625,-1.34375 1.9375,0 3.15625,1.32812 1.234375,1.3125 1.234375,3.70313 0,0.15625 0,0.4375 h -7.21875 q 0.09375,1.59375 0.90625,2.45312 0.8125,0.84375 2.015625,0.84375 0.90625,0 1.546875,-0.46875 0.640625,-0.48437 1.015625,-1.51562 z m -5.390625,-2.65625 h 5.40625 q -0.109375,-1.21875 -0.625,-1.82813 -0.78125,-0.95312 -2.03125,-0.95312 -1.125,0 -1.90625,0.76562 -0.765625,0.75 -0.84375,2.01563 z m 15.453844,2.21875 1.60937,0.21875 q -0.26562,1.65625 -1.35937,2.60937 -1.07813,0.9375 -2.67188,0.9375 -1.98437,0 -3.1875,-1.29687 -1.20312,-1.29688 -1.20312,-3.71875 0,-1.57813 0.51562,-2.75 0.51563,-1.17188 1.57813,-1.75 1.0625,-0.59375 2.3125,-0.59375 1.57812,0 2.57812,0.79687 1,0.79688 1.28125,2.26563 l -1.59375,0.23437 q -0.23437,-0.96875 -0.8125,-1.45312 -0.57812,-0.5 -1.39062,-0.5 -1.23438,0 -2.01563,0.89062 -0.78125,0.89063 -0.78125,2.8125 0,1.95313 0.75,2.84375 0.75,0.875 1.95313,0.875 0.96875,0 1.60937,-0.59375 0.65625,-0.59375 0.82813,-1.82812 z m 6.59375,2.07812 0.23437,1.45313 q -0.6875,0.14062 -1.23437,0.14062 -0.89063,0 -1.39063,-0.28125 -0.48437,-0.28125 -0.6875,-0.73437 -0.20312,-0.46875 -0.20312,-1.9375 v -5.57813 h -1.20313 v -1.26562 h 1.20313 v -2.39063 l 1.625,-0.98437 v 3.375 h 1.65625 v 1.26562 h -1.65625 v 5.67188 q 0,0.6875 0.0781,0.89062 0.0937,0.20313 0.28125,0.32813 0.20313,0.10937 0.57813,0.10937 0.26562,0 0.71875,-0.0625 z m 4.73018,5.39063 q -1.35938,-1.70313 -2.29688,-4 -0.9375,-2.29688 -0.9375,-4.76563 0,-2.15625 0.70313,-4.14062 0.82812,-2.3125 2.53125,-4.59375 h 1.17187 q -1.09375,1.89062 -1.45312,2.70312 -0.54688,1.25 -0.875,2.625 -0.39063,1.70313 -0.39063,3.42188 0,4.375 2.71875,8.75 z m 4.1658,0 h -1.1875 q 2.73437,-4.375 2.73437,-8.75 0,-1.71875 -0.39062,-3.39063 -0.3125,-1.375 -0.875,-2.625 -0.35938,-0.82812 -1.46875,-2.73437 h 1.1875 q 1.70312,2.28125 2.53125,4.59375 0.6875,1.98437 0.6875,4.14062 0,2.46875 -0.9375,4.76563 -0.9375,2.29687 -2.28125,4 z"
       id="path15"
       inkscape:connector-curvature="0"
       style="fill:#000000;fill-rule:nonzero" />
    <path
       d="m 50.483635,512.3653 1.625,-0.25 q 0.125,0.96875 0.75,1.5 0.625,0.51563 1.75,0.51563 1.125,0 1.671875,-0.45313 0.546875,-0.46875 0.546875,-1.09375 0,-0.54687 -0.484375,-0.87497 -0.328125,-0.21875 -1.671875,-0.54687 -1.8125,-0.46875 -2.515625,-0.79688 -0.6875,-0.32812 -1.046875,-0.90625 -0.359375,-0.59375 -0.359375,-1.3125 0,-0.64062 0.296875,-1.1875 0.296875,-0.5625 0.8125,-0.92187 0.375,-0.28125 1.03125,-0.46875 0.671875,-0.20313 1.421875,-0.20313 1.140625,0 2,0.32813 0.859375,0.32812 1.265625,0.89062 0.421875,0.5625 0.578125,1.5 l -1.609375,0.21875 q -0.109375,-0.75 -0.640625,-1.17187 -0.515625,-0.42188 -1.46875,-0.42188 -1.140625,0 -1.625,0.375 -0.46875,0.375 -0.46875,0.875 0,0.3125 0.1875,0.57813 0.203125,0.26562 0.640625,0.4375 0.234375,0.0937 1.4375,0.42187 1.75,0.45313 2.4375,0.75 0.6875,0.29688 1.078125,0.85938 0.390625,0.5625 0.390625,1.40622 0,0.82812 -0.484375,1.54687 -0.46875,0.71875 -1.375,1.125 -0.90625,0.39063 -2.046875,0.39063 -1.875,0 -2.875,-0.78125 -0.984375,-0.78125 -1.25,-2.32813 z m 16.609375,-0.21875 1.6875,0.20313 q -0.40625,1.48437 -1.484375,2.3125 -1.078125,0.8125 -2.765625,0.8125 -2.125,0 -3.375,-1.29688 -1.234375,-1.3125 -1.234375,-3.67184 0,-2.45313 1.25,-3.79688 1.265625,-1.34375 3.265625,-1.34375 1.9375,0 3.15625,1.32813 1.234375,1.3125 1.234375,3.70312 0,0.15625 0,0.4375 h -7.21875 q 0.09375,1.59372 0.90625,2.4531 0.8125,0.84375 2.015625,0.84375 0.90625,0 1.546875,-0.46875 0.640625,-0.48438 1.015625,-1.51563 z m -5.390625,-2.65622 h 5.40625 q -0.109375,-1.21875 -0.625,-1.82812 -0.78125,-0.95313 -2.03125,-0.95313 -1.125,0 -1.90625,0.76563 -0.765625,0.75 -0.84375,2.01562 z m 9.141342,5.7656 v -9.67185 h 1.46875 v 1.375 q 1.0625,-1.59375 3.078125,-1.59375 0.875,0 1.609375,0.3125 0.734375,0.3125 1.09375,0.82813 0.375,0.5 0.515625,1.20312 0.09375,0.45313 0.09375,1.59375 v 5.9531 h -1.640625 v -5.8906 q 0,-1 -0.203125,-1.48437 -0.1875,-0.5 -0.671875,-0.79688 -0.484375,-0.29687 -1.140625,-0.29687 -1.046875,0 -1.8125,0.67187 -0.75,0.65625 -0.75,2.51563 v 5.28122 z m 16.641342,0 v -1.21875 q -0.90625,1.4375 -2.703125,1.4375 -1.15625,0 -2.125,-0.64063 -0.96875,-0.64062 -1.5,-1.78125 -0.53125,-1.14059 -0.53125,-2.62497 0,-1.45312 0.484375,-2.625 0.484375,-1.1875 1.4375,-1.8125 0.96875,-0.625 2.171875,-0.625 0.875,0 1.546875,0.375 0.6875,0.35938 1.109375,0.95313 v -4.79688 h 1.640625 v 13.35935 z m -5.171875,-4.8281 q 0,1.85935 0.78125,2.78122 0.78125,0.92188 1.84375,0.92188 1.078125,0 1.828125,-0.875 0.75,-0.89063 0.75,-2.68747 0,-1.98438 -0.765625,-2.90625 -0.765625,-0.9375 -1.890625,-0.9375 -1.078125,0 -1.8125,0.89062 -0.734375,0.89063 -0.734375,2.8125 z m 12.406967,8.74997 q -1.359375,-1.70312 -2.296875,-4 -0.9375,-2.29687 -0.9375,-4.76559 0,-2.15625 0.703125,-4.14063 0.828125,-2.3125 2.53125,-4.59375 h 1.171875 q -1.09375,1.89063 -1.453125,2.70313 -0.546875,1.25 -0.875,2.625 -0.390625,1.70312 -0.390625,3.42187 0,4.37497 2.71875,8.74997 z m 3.072052,-15.37497 v -1.90625 h 1.640625 v 1.90625 z m -2.078125,15.2031 0.3125,-1.39063 q 0.5,0.125 0.78125,0.125 0.5,0 0.734375,-0.32812 0.25,-0.32813 0.25,-1.67188 v -10.15622 h 1.640625 v 10.2031 q 0,1.78125 -0.46875,2.48437 -0.59375,0.90625 -1.96875,0.90625 -0.65625,0 -1.28125,-0.17187 z m 5.629192,-8.59372 q 0,-2.6875 1.48438,-3.96875 1.25,-1.07813 3.04687,-1.07813 2,0 3.26563,1.3125 1.26562,1.29688 1.26562,3.60938 0,1.85934 -0.5625,2.93747 -0.5625,1.0625 -1.64062,1.65625 -1.0625,0.59375 -2.32813,0.59375 -2.03125,0 -3.28125,-1.29688 -1.25,-1.3125 -1.25,-3.76559 z m 1.6875,0 q 0,1.85934 0.79688,2.79684 0.8125,0.92188 2.04687,0.92188 1.21875,0 2.03125,-0.92188 0.8125,-0.9375 0.8125,-2.84372 0,-1.79687 -0.8125,-2.71875 -0.8125,-0.92187 -2.03125,-0.92187 -1.23437,0 -2.04687,0.92187 -0.79688,0.90625 -0.79688,2.76563 z m 10.7976,4.84372 h -1.51563 v -13.35935 h 1.64063 v 4.76563 q 1.04687,-1.29688 2.65625,-1.29688 0.89062,0 1.6875,0.35938 0.79687,0.35937 1.3125,1.01562 0.51562,0.64063 0.79687,1.5625 0.29688,0.92188 0.29688,1.96875 0,2.48435 -1.23438,3.84372 -1.21875,1.35938 -2.95312,1.35938 -1.70313,0 -2.6875,-1.4375 z m -0.0156,-4.90622 q 0,1.73434 0.48438,2.51559 0.76562,1.26563 2.09375,1.26563 1.07812,0 1.85937,-0.9375 0.78125,-0.9375 0.78125,-2.78122 0,-1.89063 -0.75,-2.79688 -0.75,-0.90625 -1.82812,-0.90625 -1.0625,0 -1.85938,0.9375 -0.78125,0.9375 -0.78125,2.70313 z m 17.0476,3.32809 v 1.57813 h -8.82813 q -0.0156,-0.59375 0.1875,-1.14063 0.34375,-0.90625 1.07812,-1.78125 0.75,-0.87497 2.15625,-2.01559 2.17188,-1.78125 2.93751,-2.82813 0.76563,-1.04687 0.76563,-1.96875 0,-0.98437 -0.70313,-1.64062 -0.68751,-0.67188 -1.81251,-0.67188 -1.1875,0 -1.90625,0.71875 -0.70312,0.70313 -0.70312,1.95313 l -1.6875,-0.17188 q 0.17187,-1.89062 1.29687,-2.875 1.14063,-0.98437 3.03125,-0.98437 1.92189,0 3.04689,1.0625 1.125,1.0625 1.125,2.64062 0,0.79688 -0.32813,1.57813 -0.32812,0.78125 -1.09375,1.64062 -0.75,0.84375 -2.53126,2.34375 -1.46875,1.23435 -1.89062,1.68747 -0.42188,0.4375 -0.6875,0.875 z m 0.70384,5.28125 v -1.1875 h 10.85938 v 1.1875 z m 18.15697,-3.70312 v -1.21875 q -0.90625,1.4375 -2.70312,1.4375 -1.15625,0 -2.125,-0.64063 -0.96875,-0.64062 -1.5,-1.78125 -0.53125,-1.14059 -0.53125,-2.62497 0,-1.45312 0.48437,-2.625 0.48438,-1.1875 1.4375,-1.8125 0.96875,-0.625 2.17188,-0.625 0.875,0 1.54687,0.375 0.6875,0.35938 1.10938,0.95313 v -4.79688 h 1.64062 v 13.35935 z m -5.17187,-4.8281 q 0,1.85935 0.78125,2.78122 0.78125,0.92188 1.84375,0.92188 1.07812,0 1.82812,-0.875 0.75,-0.89063 0.75,-2.68747 0,-1.98438 -0.76562,-2.90625 -0.76563,-0.9375 -1.89063,-0.9375 -1.07812,0 -1.8125,0.89062 -0.73437,0.89063 -0.73437,2.8125 z m 15.59446,3.6406 q -0.92187,0.76562 -1.76562,1.09375 -0.82813,0.3125 -1.79688,0.3125 -1.59375,0 -2.45312,-0.78125 -0.85938,-0.78125 -0.85938,-1.98438 0,-0.71872 0.32813,-1.29684 0.32812,-0.59375 0.84375,-0.9375 0.53125,-0.35938 1.1875,-0.54688 0.46875,-0.125 1.45312,-0.25 1.98438,-0.23437 2.92188,-0.5625 0.0156,-0.34375 0.0156,-0.42187 0,-1 -0.46875,-1.42188 -0.625,-0.54687 -1.875,-0.54687 -1.15625,0 -1.70312,0.40625 -0.54688,0.40625 -0.8125,1.42187 L 153.55,508.33408 q 0.21875,-1.01562 0.71875,-1.64062 0.5,-0.64063 1.45313,-0.98438 0.95312,-0.34375 2.1875,-0.34375 1.25,0 2.01562,0.29688 0.78125,0.28125 1.14063,0.73437 0.375,0.4375 0.51562,1.10938 0.0781,0.42187 0.0781,1.51562 v 2.1875 q 0,2.28122 0.10937,2.8906 0.10938,0.59375 0.40625,1.15625 h -1.70312 q -0.26563,-0.51563 -0.32813,-1.1875 z m -0.14062,-3.67185 q -0.89063,0.375 -2.67188,0.625 -1.01562,0.14063 -1.4375,0.32813 -0.42187,0.1875 -0.65625,0.53125 -0.21875,0.34371 -0.21875,0.78122 0,0.65625 0.5,1.09375 0.5,0.4375 1.45313,0.4375 0.9375,0 1.67187,-0.40625 0.75,-0.42188 1.09375,-1.14063 0.26563,-0.5625 0.26563,-1.64059 z m 7.78196,3.3906 0.23438,1.45312 q -0.6875,0.14063 -1.23438,0.14063 -0.89062,0 -1.39062,-0.28125 -0.48438,-0.28125 -0.6875,-0.73438 -0.20313,-0.46875 -0.20313,-1.9375 v -5.57809 h -1.20312 v -1.26563 h 1.20312 v -2.39062 l 1.625,-0.98438 v 3.375 h 1.65625 v 1.26563 h -1.65625 v 5.67184 q 0,0.6875 0.0781,0.89063 0.0937,0.20312 0.28125,0.32812 0.20312,0.10938 0.57812,0.10938 0.26563,0 0.71875,-0.0625 z m 7.91768,0.28125 q -0.92187,0.76562 -1.76562,1.09375 -0.82813,0.3125 -1.79688,0.3125 -1.59375,0 -2.45312,-0.78125 -0.85938,-0.78125 -0.85938,-1.98438 0,-0.71872 0.32813,-1.29684 0.32812,-0.59375 0.84375,-0.9375 0.53125,-0.35938 1.1875,-0.54688 0.46875,-0.125 1.45312,-0.25 1.98438,-0.23437 2.92188,-0.5625 0.0156,-0.34375 0.0156,-0.42187 0,-1 -0.46875,-1.42188 -0.625,-0.54687 -1.875,-0.54687 -1.15625,0 -1.70312,0.40625 -0.54688,0.40625 -0.8125,1.42187 l -1.60938,-0.21875 q 0.21875,-1.01562 0.71875,-1.64062 0.5,-0.64063 1.45313,-0.98438 0.95312,-0.34375 2.1875,-0.34375 1.25,0 2.01562,0.29688 0.78125,0.28125 1.14063,0.73437 0.375,0.4375 0.51562,1.10938 0.0781,0.42187 0.0781,1.51562 v 2.1875 q 0,2.28122 0.10937,2.8906 0.10938,0.59375 0.40625,1.15625 h -1.70312 q -0.26563,-0.51563 -0.32813,-1.1875 z m -0.14062,-3.67185 q -0.89063,0.375 -2.67188,0.625 -1.01562,0.14063 -1.4375,0.32813 -0.42187,0.1875 -0.65625,0.53125 -0.21875,0.34371 -0.21875,0.78122 0,0.65625 0.5,1.09375 0.5,0.4375 1.45313,0.4375 0.9375,0 1.67187,-0.40625 0.75,-0.42188 1.09375,-1.14063 0.26563,-0.5625 0.26563,-1.64059 z m 5.28197,8.78122 h -1.1875 q 2.73437,-4.375 2.73437,-8.74997 0,-1.71875 -0.39062,-3.39062 -0.3125,-1.375 -0.875,-2.625 -0.35938,-0.82813 -1.46875,-2.73438 h 1.1875 q 1.70312,2.28125 2.53125,4.59375 0.6875,1.98438 0.6875,4.14063 0,2.46872 -0.9375,4.76559 -0.9375,2.29688 -2.28125,4 z"
       id="path17"
       inkscape:connector-curvature="0"
       style="fill:#000000;fill-rule:nonzero" />
    <path
       d="m 57.452385,613.70905 1.609375,0.21875 q -0.265625,1.65625 -1.359375,2.60938 -1.078125,0.9375 -2.671875,0.9375 -1.984375,0 -3.1875,-1.29688 -1.203125,-1.29687 -1.203125,-3.71875 0,-1.57812 0.515625,-2.75 0.515625,-1.17187 1.578125,-1.75 1.0625,-0.59375 2.3125,-0.59375 1.578125,0 2.578125,0.79688 1,0.79687 1.28125,2.26562 l -1.59375,0.23438 q -0.234375,-0.96875 -0.8125,-1.45313 -0.578125,-0.5 -1.390625,-0.5 -1.234375,0 -2.015625,0.89063 -0.78125,0.89062 -0.78125,2.8125 0,1.95312 0.75,2.84375 0.75,0.875 1.953125,0.875 0.96875,0 1.609375,-0.59375 0.65625,-0.59375 0.828125,-1.82813 z m 2.96875,3.54688 v -13.35938 h 1.640625 v 13.35938 z m 3.582321,-4.84375 q 0,-2.6875 1.484375,-3.96875 1.25,-1.07813 3.046875,-1.07813 2,0 3.265625,1.3125 1.265625,1.29688 1.265625,3.60938 0,1.85937 -0.5625,2.9375 -0.5625,1.0625 -1.640625,1.65625 -1.0625,0.59375 -2.328125,0.59375 -2.03125,0 -3.28125,-1.29688 -1.25,-1.3125 -1.25,-3.76562 z m 1.6875,0 q 0,1.85937 0.796875,2.79687 0.8125,0.92188 2.046875,0.92188 1.21875,0 2.03125,-0.92188 0.8125,-0.9375 0.8125,-2.84375 0,-1.79687 -0.8125,-2.71875 -0.8125,-0.92187 -2.03125,-0.92187 -1.234375,0 -2.046875,0.92187 -0.796875,0.90625 -0.796875,2.76563 z m 8.641342,1.95312 1.625,-0.25 q 0.125,0.96875 0.75,1.5 0.625,0.51563 1.75,0.51563 1.125,0 1.671875,-0.45313 0.546875,-0.46875 0.546875,-1.09375 0,-0.54687 -0.484375,-0.875 -0.328125,-0.21875 -1.671875,-0.54687 -1.8125,-0.46875 -2.515625,-0.79688 -0.6875,-0.32812 -1.046875,-0.90625 -0.359375,-0.59375 -0.359375,-1.3125 0,-0.64062 0.296875,-1.1875 0.296875,-0.5625 0.8125,-0.92187 0.375,-0.28125 1.03125,-0.46875 0.671875,-0.20313 1.421875,-0.20313 1.140625,0 2,0.32813 0.859375,0.32812 1.265625,0.89062 0.421875,0.5625 0.578125,1.5 l -1.609375,0.21875 q -0.109375,-0.75 -0.640625,-1.17187 -0.515625,-0.42188 -1.46875,-0.42188 -1.140625,0 -1.625,0.375 -0.46875,0.375 -0.46875,0.875 0,0.3125 0.1875,0.57813 0.203125,0.26562 0.640625,0.4375 0.234375,0.0937 1.4375,0.42187 1.75,0.45313 2.4375,0.75 0.6875,0.29688 1.078125,0.85938 0.390625,0.5625 0.390625,1.40625 0,0.82812 -0.484375,1.54687 -0.46875,0.71875 -1.375,1.125 -0.90625,0.39063 -2.046875,0.39063 -1.875,0 -2.875,-0.78125 -0.984375,-0.78125 -1.25,-2.32813 z m 16.609375,-0.21875 1.6875,0.20313 q -0.40625,1.48437 -1.484375,2.3125 -1.078125,0.8125 -2.765625,0.8125 -2.125,0 -3.375,-1.29688 -1.234375,-1.3125 -1.234375,-3.67187 0,-2.45313 1.25,-3.79688 1.265625,-1.34375 3.265625,-1.34375 1.9375,0 3.15625,1.32813 1.234375,1.3125 1.234375,3.70312 0,0.15625 0,0.4375 h -7.21875 q 0.09375,1.59375 0.90625,2.45313 0.8125,0.84375 2.015625,0.84375 0.90625,0 1.546875,-0.46875 0.640625,-0.48438 1.015625,-1.51563 z m -5.390625,-2.65625 h 5.40625 q -0.109375,-1.21875 -0.625,-1.82812 -0.78125,-0.95313 -2.03125,-0.95313 -1.125,0 -1.90625,0.76563 -0.765625,0.75 -0.84375,2.01562 z m 12.266342,9.6875 q -1.359375,-1.70312 -2.296875,-4 -0.9375,-2.29687 -0.9375,-4.76562 0,-2.15625 0.703125,-4.14063 0.828125,-2.3125 2.53125,-4.59375 h 1.171875 q -1.09375,1.89063 -1.453125,2.70313 -0.546875,1.25 -0.875,2.625 -0.390625,1.70312 -0.390625,3.42187 0,4.375 2.71875,8.75 z m 4.1658,0 h -1.1875 q 2.73438,-4.375 2.73438,-8.75 0,-1.71875 -0.39063,-3.39062 -0.3125,-1.375 -0.875,-2.625 -0.35937,-0.82813 -1.46875,-2.73438 h 1.1875 q 1.70313,2.28125 2.53125,4.59375 0.6875,1.98438 0.6875,4.14063 0,2.46875 -0.9375,4.76562 -0.9375,2.29688 -2.28125,4 z"
       id="path19"
       inkscape:connector-curvature="0"
       style="fill:#000000;fill-rule:nonzero" />
    <path
       d="M 216.7979,84.879265 411.94751,137.16273"
       id="path21"
       inkscape:connector-curvature="0"
       style="fill:#000000;fill-opacity:0;fill-rule:evenodd" />
    <path
       d="M 216.7979,84.879265 406.15192,135.61"
       id="path23"
       inkscape:connector-curvature="0"
       style="fill-rule:evenodd;stroke:#000000;stroke-width:1;stroke-linecap:butt;stroke-linejoin:round" />
    <path
       d="m 405.72446,137.20546 4.81094,-0.42105 -3.95605,-2.76987 z"
       id="path25"
       inkscape:connector-curvature="0"
       style="fill:#000000;fill-rule:evenodd;stroke:#000000;stroke-width:1;stroke-linecap:butt" />
    <path
       d="M 215.7769,41.929134 V 728.13383"
       id="path27"
       inkscape:connector-curvature="0"
       style="fill:#000000;fill-opacity:0;fill-rule:evenodd" />
    <path
       d="M 215.7769,41.929134 V 728.13383"
       id="path29"
       inkscape:connector-curvature="0"
       style="fill-rule:evenodd;stroke:#000000;stroke-width:1;stroke-linecap:butt;stroke-linejoin:round" />
    <path
       d="M 410.74014,41.929134 V 731.18893"
       id="path31"
       inkscape:connector-curvature="0"
       style="fill:#000000;fill-opacity:0;fill-rule:evenodd" />
    <path
       d="M 410.74014,41.929134 V 731.18893"
       id="path33"
       inkscape:connector-curvature="0"
       style="fill-rule:evenodd;stroke:#000000;stroke-width:1;stroke-linecap:butt;stroke-linejoin:round" />
    <path
       d="M 410.0761,137.16273 219.11547,188.34382"
       id="path35"
       inkscape:connector-curvature="0"
       style="fill:#000000;fill-opacity:0;fill-rule:evenodd" />
    <path
       d="M 410.0761,137.16273 224.91094,186.79054"
       id="path37"
       inkscape:connector-curvature="0"
       style="fill-rule:evenodd;stroke:#000000;stroke-width:1;stroke-linecap:butt;stroke-linejoin:round" />
    <path
       d="m 224.48334,185.19511 -3.95578,2.77026 4.81099,0.42058 z"
       id="path39"
       inkscape:connector-curvature="0"
       style="fill:#000000;fill-rule:evenodd;stroke:#000000;stroke-width:1;stroke-linecap:butt" />
    <path
       d="m 215.7769,188.34383 191.84251,51.40158"
       id="path41"
       inkscape:connector-curvature="0"
       style="fill:#000000;fill-opacity:0;fill-rule:evenodd" />
    <path
       d="m 215.7769,188.34383 186.04695,49.84874"
       id="path43"
       inkscape:connector-curvature="0"
       style="fill-rule:evenodd;stroke:#000000;stroke-width:1;stroke-linecap:butt;stroke-linejoin:round" />
    <path
       d="m 401.39636,239.78802 4.81097,-0.42097 -3.95599,-2.76995 z"
       id="path45"
       inkscape:connector-curvature="0"
       style="fill:#000000;fill-rule:evenodd;stroke:#000000;stroke-width:1;stroke-linecap:butt" />
    <path
       d="M 441.11023,69.89501 H 599.59845 V 721.32805 H 441.11023 Z"
       id="path47"
       inkscape:connector-curvature="0"
       style="fill:#000000;fill-opacity:0;fill-rule:evenodd" />
    <path
       d="m 450.68835,245.9244 1.625,-0.25 q 0.125,0.96875 0.75,1.5 0.625,0.51562 1.75,0.51562 1.125,0 1.67188,-0.45312 0.54687,-0.46875 0.54687,-1.09375 0,-0.54688 -0.48437,-0.875 -0.32813,-0.21875 -1.67188,-0.54688 -1.8125,-0.46875 -2.51562,-0.79687 -0.6875,-0.32813 -1.04688,-0.90625 -0.35937,-0.59375 -0.35937,-1.3125 0,-0.64063 0.29687,-1.1875 0.29688,-0.5625 0.8125,-0.92188 0.375,-0.28125 1.03125,-0.46875 0.67188,-0.20312 1.42188,-0.20312 1.14062,0 2,0.32812 0.85937,0.32813 1.26562,0.89063 0.42188,0.5625 0.57813,1.5 l -1.60938,0.21875 q -0.10937,-0.75 -0.64062,-1.17188 -0.51563,-0.42187 -1.46875,-0.42187 -1.14063,0 -1.625,0.375 -0.46875,0.375 -0.46875,0.875 0,0.3125 0.1875,0.57812 0.20312,0.26563 0.64062,0.4375 0.23438,0.0937 1.4375,0.42188 1.75,0.45312 2.4375,0.75 0.6875,0.29687 1.07813,0.85937 0.39062,0.5625 0.39062,1.40625 0,0.82813 -0.48437,1.54688 -0.46875,0.71875 -1.375,1.125 -0.90625,0.39062 -2.04688,0.39062 -1.875,0 -2.875,-0.78125 -0.98437,-0.78125 -1.25,-2.32812 z m 16.60938,-0.21875 1.6875,0.20312 q -0.40625,1.48438 -1.48438,2.3125 -1.07812,0.8125 -2.76562,0.8125 -2.125,0 -3.375,-1.29687 -1.23438,-1.3125 -1.23438,-3.67188 0,-2.45312 1.25,-3.79687 1.26563,-1.34375 3.26563,-1.34375 1.9375,0 3.15625,1.32812 1.23437,1.3125 1.23437,3.70313 0,0.15625 0,0.4375 h -7.21875 q 0.0937,1.59375 0.90625,2.45312 0.8125,0.84375 2.01563,0.84375 0.90625,0 1.54687,-0.46875 0.64063,-0.48437 1.01563,-1.51562 z m -5.39063,-2.65625 h 5.40625 q -0.10937,-1.21875 -0.625,-1.82813 -0.78125,-0.95312 -2.03125,-0.95312 -1.125,0 -1.90625,0.76562 -0.76562,0.75 -0.84375,2.01563 z m 9.14136,5.76562 v -9.67187 h 1.46875 v 1.375 q 1.0625,-1.59375 3.07812,-1.59375 0.875,0 1.60938,0.3125 0.73437,0.3125 1.09375,0.82812 0.375,0.5 0.51562,1.20313 0.0937,0.45312 0.0937,1.59375 v 5.95312 h -1.64062 v -5.89062 q 0,-1 -0.20313,-1.48438 -0.1875,-0.5 -0.67187,-0.79687 -0.48438,-0.29688 -1.14063,-0.29688 -1.04687,0 -1.8125,0.67188 -0.75,0.65625 -0.75,2.51562 v 5.28125 z m 16.64132,0 v -1.21875 q -0.90625,1.4375 -2.70312,1.4375 -1.15625,0 -2.125,-0.64062 -0.96875,-0.64063 -1.5,-1.78125 -0.53125,-1.14063 -0.53125,-2.625 0,-1.45313 0.48437,-2.625 0.48438,-1.1875 1.4375,-1.8125 0.96875,-0.625 2.17188,-0.625 0.875,0 1.54687,0.375 0.6875,0.35937 1.10938,0.95312 v -4.79687 h 1.64062 v 13.35937 z m -5.17187,-4.82812 q 0,1.85937 0.78125,2.78125 0.78125,0.92187 1.84375,0.92187 1.07812,0 1.82812,-0.875 0.75,-0.89062 0.75,-2.6875 0,-1.98437 -0.76562,-2.90625 -0.76563,-0.9375 -1.89063,-0.9375 -1.07812,0 -1.8125,0.89063 -0.73437,0.89062 -0.73437,2.8125 z m 12.40698,8.75 q -1.35937,-1.70313 -2.29687,-4 -0.9375,-2.29688 -0.9375,-4.76563 0,-2.15625 0.70312,-4.14062 0.82813,-2.3125 2.53125,-4.59375 h 1.17188 q -1.09375,1.89062 -1.45313,2.70312 -0.54687,1.25 -0.875,2.625 -0.39062,1.70313 -0.39062,3.42188 0,4.375 2.71875,8.75 z m 4.36893,-15.03125 v 1.90625 h -1.76563 v -1.51563 q 0,-1.21875 0.29688,-1.76562 0.39062,-0.71875 1.21875,-1.09375 l 0.39062,0.64062 q -0.5,0.20313 -0.73437,0.625 -0.23438,0.40625 -0.26563,1.20313 z m 2.82812,0 v 1.90625 h -1.76562 v -1.51563 q 0,-1.21875 0.29687,-1.76562 0.375,-0.71875 1.20313,-1.09375 l 0.40625,0.64062 q -0.5,0.20313 -0.73438,0.625 -0.23437,0.40625 -0.26562,1.20313 z m 1.77518,4.60937 q 0,-3.32812 1.78125,-5.20312 1.78125,-1.89063 4.60937,-1.89063 1.84372,0 3.3281,0.89063 1.48437,0.875 2.26562,2.46875 0.78125,1.57812 0.78125,3.57812 0,2.03125 -0.82812,3.64063 -0.8125,1.59375 -2.3125,2.42187 -1.5,0.82813 -3.24997,0.82813 -1.875,0 -3.35938,-0.90625 -1.48437,-0.92188 -2.25,-2.5 -0.76562,-1.57813 -0.76562,-3.32813 z m 1.8125,0.0156 q 0,2.42187 1.29687,3.8125 1.29688,1.39062 3.26563,1.39062 1.99997,0 3.28122,-1.40625 1.28125,-1.40625 1.28125,-3.98437 0,-1.625 -0.54688,-2.84375 -0.54687,-1.21875 -1.60937,-1.875 -1.06247,-0.67188 -2.37497,-0.67188 -1.89063,0 -3.25,1.29688 -1.34375,1.28125 -1.34375,4.28125 z m 13.15207,6.48437 v -13.35937 h 1.78125 v 6.625 l 6.625,-6.625 h 2.39062 l -5.59375,5.42187 5.84375,7.9375 h -2.32812 l -4.76563,-6.76562 -2.17187,2.14062 v 4.625 z m 11.88104,-11.59375 v -1.89062 h 1.75 v 1.5 q 0,1.21875 -0.28125,1.75 -0.39062,0.75 -1.21875,1.10937 l -0.40625,-0.64062 q 0.5,-0.20313 0.73438,-0.625 0.25,-0.4375 0.28125,-1.20313 z m 2.8125,0 v -1.89062 h 1.76563 v 1.5 q 0,1.21875 -0.28125,1.75 -0.39063,0.75 -1.21875,1.10937 l -0.40625,-0.64062 q 0.5,-0.20313 0.73437,-0.625 0.25,-0.4375 0.26563,-1.20313 z m 4.91583,15.51563 h -1.1875 q 2.73438,-4.375 2.73438,-8.75 0,-1.71875 -0.39063,-3.39063 -0.3125,-1.375 -0.875,-2.625 -0.35937,-0.82812 -1.46875,-2.73437 h 1.1875 q 1.70313,2.28125 2.53125,4.59375 0.6875,1.98437 0.6875,4.14062 0,2.46875 -0.9375,4.76563 -0.9375,2.29687 -2.28125,4 z"
       id="path49"
       inkscape:connector-curvature="0"
       style="fill:#000000;fill-rule:nonzero" />
    <path
       d="m 450.68835,553.9244 1.625,-0.25 q 0.125,0.96875 0.75,1.5 0.625,0.51562 1.75,0.51562 1.125,0 1.67188,-0.45312 0.54687,-0.46875 0.54687,-1.09375 0,-0.54688 -0.48437,-0.875 -0.32813,-0.21875 -1.67188,-0.54688 -1.8125,-0.46875 -2.51562,-0.79687 -0.6875,-0.32813 -1.04688,-0.90625 -0.35937,-0.59375 -0.35937,-1.3125 0,-0.64063 0.29687,-1.1875 0.29688,-0.5625 0.8125,-0.92188 0.375,-0.28125 1.03125,-0.46875 0.67188,-0.20312 1.42188,-0.20312 1.14062,0 2,0.32812 0.85937,0.32813 1.26562,0.89063 0.42188,0.5625 0.57813,1.5 l -1.60938,0.21875 q -0.10937,-0.75 -0.64062,-1.17188 -0.51563,-0.42187 -1.46875,-0.42187 -1.14063,0 -1.625,0.375 -0.46875,0.375 -0.46875,0.875 0,0.3125 0.1875,0.57812 0.20312,0.26563 0.64062,0.4375 0.23438,0.0937 1.4375,0.42188 1.75,0.45312 2.4375,0.75 0.6875,0.29687 1.07813,0.85937 0.39062,0.5625 0.39062,1.40625 0,0.82813 -0.48437,1.54688 -0.46875,0.71875 -1.375,1.125 -0.90625,0.39062 -2.04688,0.39062 -1.875,0 -2.875,-0.78125 -0.98437,-0.78125 -1.25,-2.32812 z m 16.60938,-0.21875 1.6875,0.20312 q -0.40625,1.48438 -1.48438,2.3125 -1.07812,0.8125 -2.76562,0.8125 -2.125,0 -3.375,-1.29687 -1.23438,-1.3125 -1.23438,-3.67188 0,-2.45312 1.25,-3.79687 1.26563,-1.34375 3.26563,-1.34375 1.9375,0 3.15625,1.32812 1.23437,1.3125 1.23437,3.70313 0,0.15625 0,0.4375 h -7.21875 q 0.0937,1.59375 0.90625,2.45312 0.8125,0.84375 2.01563,0.84375 0.90625,0 1.54687,-0.46875 0.64063,-0.48437 1.01563,-1.51562 z m -5.39063,-2.65625 h 5.40625 q -0.10937,-1.21875 -0.625,-1.82813 -0.78125,-0.95312 -2.03125,-0.95312 -1.125,0 -1.90625,0.76562 -0.76562,0.75 -0.84375,2.01563 z m 9.14136,5.76562 v -9.67187 h 1.46875 v 1.375 q 1.0625,-1.59375 3.07812,-1.59375 0.875,0 1.60938,0.3125 0.73437,0.3125 1.09375,0.82812 0.375,0.5 0.51562,1.20313 0.0937,0.45312 0.0937,1.59375 v 5.95312 h -1.64062 v -5.89062 q 0,-1 -0.20313,-1.48438 -0.1875,-0.5 -0.67187,-0.79687 -0.48438,-0.29688 -1.14063,-0.29688 -1.04687,0 -1.8125,0.67188 -0.75,0.65625 -0.75,2.51562 v 5.28125 z m 16.64132,0 v -1.21875 q -0.90625,1.4375 -2.70312,1.4375 -1.15625,0 -2.125,-0.64062 -0.96875,-0.64063 -1.5,-1.78125 -0.53125,-1.14063 -0.53125,-2.625 0,-1.45313 0.48437,-2.625 0.48438,-1.1875 1.4375,-1.8125 0.96875,-0.625 2.17188,-0.625 0.875,0 1.54687,0.375 0.6875,0.35937 1.10938,0.95312 v -4.79687 h 1.64062 v 13.35937 z m -5.17187,-4.82812 q 0,1.85937 0.78125,2.78125 0.78125,0.92187 1.84375,0.92187 1.07812,0 1.82812,-0.875 0.75,-0.89062 0.75,-2.6875 0,-1.98437 -0.76562,-2.90625 -0.76563,-0.9375 -1.89063,-0.9375 -1.07812,0 -1.8125,0.89063 -0.73437,0.89062 -0.73437,2.8125 z m 12.40698,8.75 q -1.35937,-1.70313 -2.29687,-4 -0.9375,-2.29688 -0.9375,-4.76563 0,-2.15625 0.70312,-4.14062 0.82813,-2.3125 2.53125,-4.59375 h 1.17188 q -1.09375,1.89062 -1.45313,2.70312 -0.54687,1.25 -0.875,2.625 -0.39062,1.70313 -0.39062,3.42188 0,4.375 2.71875,8.75 z m 4.36893,-15.03125 v 1.90625 h -1.76563 v -1.51563 q 0,-1.21875 0.29688,-1.76562 0.39062,-0.71875 1.21875,-1.09375 l 0.39062,0.64062 q -0.5,0.20313 -0.73437,0.625 -0.23438,0.40625 -0.26563,1.20313 z m 2.82812,0 v 1.90625 h -1.76562 v -1.51563 q 0,-1.21875 0.29687,-1.76562 0.375,-0.71875 1.20313,-1.09375 l 0.40625,0.64062 q -0.5,0.20313 -0.73438,0.625 -0.23437,0.40625 -0.26562,1.20313 z m 1.77518,4.60937 q 0,-3.32812 1.78125,-5.20312 1.78125,-1.89063 4.60937,-1.89063 1.84372,0 3.3281,0.89063 1.48437,0.875 2.26562,2.46875 0.78125,1.57812 0.78125,3.57812 0,2.03125 -0.82812,3.64063 -0.8125,1.59375 -2.3125,2.42187 -1.5,0.82813 -3.24997,0.82813 -1.875,0 -3.35938,-0.90625 -1.48437,-0.92188 -2.25,-2.5 -0.76562,-1.57813 -0.76562,-3.32813 z m 1.8125,0.0156 q 0,2.42187 1.29687,3.8125 1.29688,1.39062 3.26563,1.39062 1.99997,0 3.28122,-1.40625 1.28125,-1.40625 1.28125,-3.98437 0,-1.625 -0.54688,-2.84375 -0.54687,-1.21875 -1.60937,-1.875 -1.06247,-0.67188 -2.37497,-0.67188 -1.89063,0 -3.25,1.29688 -1.34375,1.28125 -1.34375,4.28125 z m 13.15207,6.48437 v -13.35937 h 1.78125 v 6.625 l 6.625,-6.625 h 2.39062 l -5.59375,5.42187 5.84375,7.9375 h -2.32812 l -4.76563,-6.76562 -2.17187,2.14062 v 4.625 z m 11.88104,-11.59375 v -1.89062 h 1.75 v 1.5 q 0,1.21875 -0.28125,1.75 -0.39062,0.75 -1.21875,1.10937 l -0.40625,-0.64062 q 0.5,-0.20313 0.73438,-0.625 0.25,-0.4375 0.28125,-1.20313 z m 2.8125,0 v -1.89062 h 1.76563 v 1.5 q 0,1.21875 -0.28125,1.75 -0.39063,0.75 -1.21875,1.10937 l -0.40625,-0.64062 q 0.5,-0.20313 0.73437,-0.625 0.25,-0.4375 0.26563,-1.20313 z m 4.91583,15.51563 h -1.1875 q 2.73438,-4.375 2.73438,-8.75 0,-1.71875 -0.39063,-3.39063 -0.3125,-1.375 -0.875,-2.625 -0.35937,-0.82812 -1.46875,-2.73437 h 1.1875 q 1.70313,2.28125 2.53125,4.59375 0.6875,1.98437 0.6875,4.14062 0,2.46875 -0.9375,4.76563 -0.9375,2.29687 -2.28125,4 z"
       id="path51"
       inkscape:connector-curvature="0"
       style="fill:#000000;fill-rule:nonzero" />
    <path
       d="M 408.73883,239.7454 217.77821,290.92651"
       id="path53"
       inkscape:connector-curvature="0"
       style="fill:#000000;fill-opacity:0;fill-rule:evenodd" />
    <path
       d="M 408.73883,239.7454 223.57367,289.37322"
       id="path55"
       inkscape:connector-curvature="0"
       style="fill-rule:evenodd;stroke:#000000;stroke-width:1;stroke-linecap:butt;stroke-linejoin:round" />
    <path
       d="m 223.14606,287.7778 -3.95578,2.77023 4.81099,0.4206 z"
       id="path57"
       inkscape:connector-curvature="0"
       style="fill:#000000;fill-rule:evenodd;stroke:#000000;stroke-width:1;stroke-linecap:butt" />
    <path
       d="m 215.7769,291.58563 195.14961,52.28348"
       id="path59"
       inkscape:connector-curvature="0"
       style="fill:#000000;fill-opacity:0;fill-rule:evenodd" />
    <path
       d="m 215.7769,291.58563 189.35402,50.73074"
       id="path61"
       inkscape:connector-curvature="0"
       style="fill-rule:evenodd;stroke:#000000;stroke-width:1;stroke-linecap:butt;stroke-linejoin:round" />
    <path
       d="m 404.70346,343.91183 4.81094,-0.42105 -3.95605,-2.76987 z"
       id="path63"
       inkscape:connector-curvature="0"
       style="fill:#000000;fill-rule:evenodd;stroke:#000000;stroke-width:1;stroke-linecap:butt" />
    <path
       d="M 409.0551,343.8691 218.09447,395.05019"
       id="path65"
       inkscape:connector-curvature="0"
       style="fill:#000000;fill-opacity:0;fill-rule:evenodd" />
    <path
       d="M 409.0551,343.86908 223.88994,393.49692"
       id="path67"
       inkscape:connector-curvature="0"
       style="fill-rule:evenodd;stroke:#000000;stroke-width:1;stroke-linecap:butt;stroke-linejoin:round" />
    <path
       d="m 223.46234,391.9015 -3.9558,2.77023 4.81101,0.4206 z"
       id="path69"
       inkscape:connector-curvature="0"
       style="fill:#000000;fill-rule:evenodd;stroke:#000000;stroke-width:1;stroke-linecap:butt" />
    <path
       d="m 216.7979,395.85663 195.14961,52.28348"
       id="path71"
       inkscape:connector-curvature="0"
       style="fill:#000000;fill-opacity:0;fill-rule:evenodd" />
    <path
       d="m 216.7979,395.85663 189.35402,50.73071"
       id="path73"
       inkscape:connector-curvature="0"
       style="fill-rule:evenodd;stroke:#000000;stroke-width:1;stroke-linecap:butt;stroke-linejoin:round" />
    <path
       d="m 405.72446,448.18283 4.81094,-0.42105 -3.95605,-2.76987 z"
       id="path75"
       inkscape:connector-curvature="0"
       style="fill:#000000;fill-rule:evenodd;stroke:#000000;stroke-width:1;stroke-linecap:butt" />
    <path
       d="M 410.0761,448.1401 219.11547,499.32119"
       id="path77"
       inkscape:connector-curvature="0"
       style="fill:#000000;fill-opacity:0;fill-rule:evenodd" />
    <path
       d="M 410.0761,448.1401 224.91094,497.76791"
       id="path79"
       inkscape:connector-curvature="0"
       style="fill-rule:evenodd;stroke:#000000;stroke-width:1;stroke-linecap:butt;stroke-linejoin:round" />
    <path
       d="m 224.48334,496.1725 -3.95578,2.77026 4.81099,0.42057 z"
       id="path81"
       inkscape:connector-curvature="0"
       style="fill:#000000;fill-rule:evenodd;stroke:#000000;stroke-width:1;stroke-linecap:butt" />
    <path
       d="m 215.7769,499.3212 191.84251,51.40158"
       id="path83"
       inkscape:connector-curvature="0"
       style="fill:#000000;fill-opacity:0;fill-rule:evenodd" />
    <path
       d="m 215.7769,499.3212 186.04695,49.84872"
       id="path85"
       inkscape:connector-curvature="0"
       style="fill-rule:evenodd;stroke:#000000;stroke-width:1;stroke-linecap:butt;stroke-linejoin:round" />
    <path
       d="m 401.39636,550.7654 4.81097,-0.42096 -3.95599,-2.76996 z"
       id="path87"
       inkscape:connector-curvature="0"
       style="fill:#000000;fill-rule:evenodd;stroke:#000000;stroke-width:1;stroke-linecap:butt" />
    <path
       d="M 408.73883,550.7228 217.77821,601.90389"
       id="path89"
       inkscape:connector-curvature="0"
       style="fill:#000000;fill-opacity:0;fill-rule:evenodd" />
    <path
       d="M 408.73883,550.7228 223.57367,600.35061"
       id="path91"
       inkscape:connector-curvature="0"
       style="fill-rule:evenodd;stroke:#000000;stroke-width:1;stroke-linecap:butt;stroke-linejoin:round" />
    <path
       d="m 223.14606,598.7551 -3.95578,2.77026 4.81099,0.4206 z"
       id="path93"
       inkscape:connector-curvature="0"
       style="fill:#000000;fill-rule:evenodd;stroke:#000000;stroke-width:1;stroke-linecap:butt" />
    <path
       d="m 215.7769,602.563 195.14961,52.28345"
       id="path95"
       inkscape:connector-curvature="0"
       style="fill:#000000;fill-opacity:0;fill-rule:evenodd" />
    <path
       d="m 215.7769,602.563 189.35402,50.73071"
       id="path97"
       inkscape:connector-curvature="0"
       style="fill-rule:evenodd;stroke:#000000;stroke-width:1;stroke-linecap:butt;stroke-linejoin:round" />
    <path
       d="m 404.70346,654.8892 4.81094,-0.42108 -3.95605,-2.7699 z"
       id="path99"
       inkscape:connector-curvature="0"
       style="fill:#000000;fill-rule:evenodd;stroke:#000000;stroke-width:1;stroke-linecap:butt" />
    <path
       d="M 409.0551,654.84644 218.09447,706.02759"
       id="path101"
       inkscape:connector-curvature="0"
       style="fill:#000000;fill-opacity:0;fill-rule:evenodd" />
    <path
       d="M 409.0551,654.84644 223.88994,704.47425"
       id="path103"
       inkscape:connector-curvature="0"
       style="fill-rule:evenodd;stroke:#000000;stroke-width:1;stroke-linecap:butt;stroke-linejoin:round" />
    <path
       d="m 223.46234,702.87885 -3.9558,2.77026 4.81101,0.4206 z"
       id="path105"
       inkscape:connector-curvature="0"
       style="fill:#000000;fill-rule:evenodd;stroke:#000000;stroke-width:1;stroke-linecap:butt" />
    <path
       d="m 312,728 2.01575,44"
       id="path107"
       inkscape:connector-curvature="0"
       style="fill:#000000;fill-opacity:0;fill-rule:evenodd" />
    <path
       d="m 312,728 2.01575,44"
       id="path109"
       inkscape:connector-curvature="0"
       style="fill-rule:evenodd;stroke:#000000;stroke-width:4;stroke-linecap:butt;stroke-linejoin:round;stroke-dasharray:4, 12" />
    <path
       d="m 282.04102,69.89501 h 61.35431 v 35.77953 h -61.35431 z"
       id="path111"
       inkscape:connector-curvature="0"
       style="fill:#000000;fill-opacity:0;fill-rule:evenodd" />
    <path
       d="m 294.38187,92.518135 1.65625,-0.140625 q 0.125,1 0.54687,1.640625 0.4375,0.640625 1.34375,1.046875 0.92188,0.390625 2.0625,0.390625 1,0 1.78125,-0.296875 0.78125,-0.296875 1.15625,-0.8125 0.375,-0.53125 0.375,-1.15625 0,-0.625 -0.375,-1.09375 -0.35937,-0.46875 -1.1875,-0.796875 -0.54687,-0.203125 -2.39062,-0.640625 -1.82813,-0.453125 -2.5625,-0.84375 -0.96875,-0.5 -1.4375,-1.234375 -0.46875,-0.75 -0.46875,-1.671875 0,-1 0.57812,-1.875 0.57813,-0.890625 1.67188,-1.34375 1.10937,-0.453125 2.45312,-0.453125 1.48438,0 2.60938,0.484375 1.14062,0.46875 1.75,1.40625 0.60937,0.921875 0.65625,2.09375 l -1.6875,0.125 q -0.14063,-1.265625 -0.9375,-1.90625 -0.78125,-0.65625 -2.3125,-0.65625 -1.60938,0 -2.34375,0.59375 -0.73438,0.59375 -0.73438,1.421875 0,0.71875 0.53125,1.171875 0.5,0.46875 2.65625,0.96875 2.15625,0.484375 2.95313,0.84375 1.17187,0.53125 1.71875,1.359375 0.5625,0.828125 0.5625,1.90625 0,1.0625 -0.60938,2.015625 -0.60937,0.9375 -1.75,1.46875 -1.14062,0.515625 -2.57812,0.515625 -1.8125,0 -3.04688,-0.53125 -1.21875,-0.53125 -1.92187,-1.59375 -0.6875,-1.0625 -0.71875,-2.40625 z m 16.80295,4.296875 v -5.65625 l -5.15625,-7.703125 h 2.15625 l 2.64062,4.03125 q 0.71875,1.125 1.34375,2.265625 0.60938,-1.046875 1.46875,-2.359375 l 2.57813,-3.9375 h 2.0625 l -5.32813,7.703125 v 5.65625 z m 8.66232,0 V 83.455635 h 1.8125 l 7.01563,10.484375 V 83.455635 h 1.6875 V 96.81501 h -1.8125 l -7.01563,-10.5 v 10.5 z"
       id="path113"
       inkscape:connector-curvature="0"
       style="fill:#000000;fill-rule:nonzero" />
    <path
       d="m 282.04102,124.33924 h 61.35431 v 35.77953 h -61.35431 z"
       id="path115"
       inkscape:connector-curvature="0"
       style="fill:#000000;fill-opacity:0;fill-rule:evenodd" />
    <path
       d="m 293.50687,151.25925 5.125,-13.35938 h 1.90625 l 5.46875,13.35938 h -2.01563 l -1.54687,-4.04688 h -5.59375 l -1.46875,4.04688 z m 3.85937,-5.48438 h 4.53125 l -1.40625,-3.70312 q -0.625,-1.6875 -0.9375,-2.76563 -0.26562,1.28125 -0.71875,2.54688 z m 19.5842,0.79688 1.76563,0.45312 q -0.5625,2.17188 -2,3.32813 -1.4375,1.14062 -3.53125,1.14062 -2.15625,0 -3.51563,-0.875 -1.34375,-0.89062 -2.0625,-2.54687 -0.70312,-1.67188 -0.70312,-3.59375 0,-2.07813 0.79687,-3.625 0.79688,-1.5625 2.26563,-2.35938 1.48437,-0.8125 3.25,-0.8125 2,0 3.35937,1.01563 1.375,1.01562 1.90625,2.875 l -1.73437,0.40625 q -0.46875,-1.45313 -1.35938,-2.10938 -0.875,-0.67187 -2.20312,-0.67187 -1.54688,0 -2.57813,0.73437 -1.03125,0.73438 -1.45312,1.98438 -0.42188,1.23437 -0.42188,2.5625 0,1.70312 0.5,2.96875 0.5,1.26562 1.54688,1.90625 1.04687,0.625 2.26562,0.625 1.48438,0 2.51563,-0.85938 1.03125,-0.85937 1.39062,-2.54687 z m 3.86359,4.6875 v -13.35938 h 1.78125 v 6.625 l 6.625,-6.625 h 2.39062 l -5.59375,5.42188 5.84375,7.9375 h -2.32812 l -4.76563,-6.76563 -2.17187,2.14063 v 4.625 z"
       id="path117"
       inkscape:connector-curvature="0"
       style="fill:#000000;fill-rule:nonzero" />
    <path
       d="m 276.61057,178.78215 h 75.33859 v 35.77953 h -75.33859 z"
       id="path119"
       inkscape:connector-curvature="0"
       style="fill:#000000;fill-opacity:0;fill-rule:evenodd" />
    <path
       d="m 292.22473,205.70215 v -13.35938 h 4.60938 q 1.54687,0 2.375,0.20313 1.14062,0.25 1.95312,0.95312 1.0625,0.89063 1.57813,2.28125 0.53125,1.39063 0.53125,3.17188 0,1.51562 -0.35938,2.70312 -0.35937,1.17188 -0.92187,1.9375 -0.54688,0.76563 -1.20313,1.21875 -0.65625,0.4375 -1.59375,0.67188 -0.9375,0.21875 -2.14062,0.21875 z m 1.76563,-1.57813 h 2.85937 q 1.3125,0 2.0625,-0.23437 0.75,-0.25 1.20313,-0.70313 0.625,-0.625 0.96875,-1.6875 0.35937,-1.0625 0.35937,-2.57812 0,-2.09375 -0.6875,-3.21875 -0.6875,-1.125 -1.67187,-1.5 -0.70313,-0.28125 -2.28125,-0.28125 h -2.8125 z m 10.23858,1.57813 5.125,-13.35938 h 1.90625 l 5.46875,13.35938 h -2.01562 l -1.54688,-4.04688 h -5.59375 l -1.46875,4.04688 z m 3.85938,-5.48438 h 4.53125 l -1.40625,-3.70312 q -0.625,-1.6875 -0.9375,-2.76563 -0.26563,1.28125 -0.71875,2.54688 z m 12.07376,5.48438 V 193.9209 h -4.40625 v -1.57813 h 10.57812 v 1.57813 h -4.40625 v 11.78125 z m 5.13556,0 5.125,-13.35938 h 1.90625 l 5.46875,13.35938 h -2.01563 l -1.54687,-4.04688 h -5.59375 l -1.46875,4.04688 z m 3.85937,-5.48438 h 4.53125 l -1.40625,-3.70312 q -0.625,-1.6875 -0.9375,-2.76563 -0.26562,1.28125 -0.71875,2.54688 z"
       id="path121"
       inkscape:connector-curvature="0"
       style="fill:#000000;fill-rule:nonzero" />
    <path
       d="m 230.33762,227.27034 h 165.22833 v 35.77953 H 230.33762 Z"
       id="path123"
       inkscape:connector-curvature="0"
       style="fill:#000000;fill-opacity:0;fill-rule:evenodd" />
    <path
       d="m 245.84459,243.08096 v 1.90625 h -1.76563 v -1.51563 q 0,-1.21875 0.29688,-1.76562 0.39062,-0.71875 1.21875,-1.09375 l 0.39062,0.64062 q -0.5,0.20313 -0.73437,0.625 -0.23438,0.40625 -0.26563,1.20313 z m 2.82812,0 v 1.90625 h -1.76562 v -1.51563 q 0,-1.21875 0.29687,-1.76562 0.375,-0.71875 1.20313,-1.09375 l 0.40625,0.64062 q -0.5,0.20313 -0.73438,0.625 -0.23437,0.40625 -0.26562,1.20313 z m 1.77518,4.60937 q 0,-3.32812 1.78125,-5.20312 1.78125,-1.89063 4.60939,-1.89063 1.84375,0 3.32813,0.89063 1.48437,0.875 2.26562,2.46875 0.78125,1.57812 0.78125,3.57812 0,2.03125 -0.82812,3.64063 -0.8125,1.59375 -2.3125,2.42187 -1.5,0.82813 -3.25,0.82813 -1.87502,0 -3.35939,-0.90625 -1.48438,-0.92188 -2.25,-2.5 -0.76563,-1.57813 -0.76563,-3.32813 z m 1.8125,0.0156 q 0,2.42187 1.29688,3.8125 1.29687,1.39062 3.26564,1.39062 2,0 3.28125,-1.40625 1.28125,-1.40625 1.28125,-3.98437 0,-1.625 -0.54688,-2.84375 -0.54687,-1.21875 -1.60937,-1.875 -1.0625,-0.67188 -2.375,-0.67188 -1.89064,0 -3.25002,1.29688 -1.34375,1.28125 -1.34375,4.28125 z m 13.15206,6.48437 v -13.35937 h 1.78125 v 6.625 l 6.625,-6.625 h 2.39062 l -5.59375,5.42187 5.84375,7.9375 h -2.32812 l -4.76563,-6.76562 -2.17187,2.14062 v 4.625 z m 11.88107,-11.59375 v -1.89062 h 1.75 v 1.5 q 0,1.21875 -0.28125,1.75 -0.39063,0.75 -1.21875,1.10937 l -0.40625,-0.64062 q 0.5,-0.20313 0.73437,-0.625 0.25,-0.4375 0.28125,-1.20313 z m 2.8125,0 v -1.89062 h 1.76562 v 1.5 q 0,1.21875 -0.28125,1.75 -0.39062,0.75 -1.21875,1.10937 l -0.40625,-0.64062 q 0.5,-0.20313 0.73438,-0.625 0.25,-0.4375 0.26562,-1.20313 z m 4.25955,11.59375 v -1.875 h 1.875 v 1.875 q 0,1.03125 -0.375,1.65625 -0.35937,0.64063 -1.15625,0.98438 l -0.45312,-0.70313 q 0.51562,-0.21875 0.76562,-0.67187 0.25,-0.4375 0.28125,-1.26563 z m 7.64917,0 5.125,-13.35937 h 1.90625 l 5.46875,13.35937 h -2.01562 l -1.54688,-4.04687 h -5.59375 l -1.46875,4.04687 z m 3.85938,-5.48437 h 4.53125 l -1.40625,-3.70313 q -0.625,-1.6875 -0.9375,-2.76562 -0.26563,1.28125 -0.71875,2.54687 z m 19.58419,0.79687 1.76563,0.45313 q -0.5625,2.17187 -2,3.32812 -1.4375,1.14063 -3.53125,1.14063 -2.15625,0 -3.51563,-0.875 -1.34375,-0.89063 -2.0625,-2.54688 -0.70312,-1.67187 -0.70312,-3.59375 0,-2.07812 0.79687,-3.625 0.79688,-1.5625 2.26563,-2.35937 1.48437,-0.8125 3.25,-0.8125 2,0 3.35937,1.01562 1.375,1.01563 1.90625,2.875 l -1.73437,0.40625 q -0.46875,-1.45312 -1.35938,-2.10937 -0.875,-0.67188 -2.20312,-0.67188 -1.54688,0 -2.57813,0.73438 -1.03125,0.73437 -1.45312,1.98437 -0.42188,1.23438 -0.42188,2.5625 0,1.70313 0.5,2.96875 0.5,1.26563 1.54688,1.90625 1.04687,0.625 2.26562,0.625 1.48438,0 2.51563,-0.85937 1.03125,-0.85938 1.39062,-2.54688 z m 3.86356,4.6875 v -13.35937 h 1.78125 v 6.625 l 6.625,-6.625 h 2.39063 l -5.59375,5.42187 5.84375,7.9375 h -2.32813 l -4.76562,-6.76562 -2.17188,2.14062 v 4.625 z m 17.70502,0 v -13.35937 h 4.60937 q 1.54688,0 2.375,0.20312 1.14063,0.25 1.95313,0.95313 1.0625,0.89062 1.57812,2.28125 0.53125,1.39062 0.53125,3.17187 0,1.51563 -0.35937,2.70313 -0.35938,1.17187 -0.92188,1.9375 -0.54687,0.76562 -1.20312,1.21875 -0.65625,0.4375 -1.59375,0.67187 -0.9375,0.21875 -2.14063,0.21875 z m 1.76562,-1.57812 h 2.85938 q 1.3125,0 2.0625,-0.23438 0.75,-0.25 1.20312,-0.70312 0.625,-0.625 0.96875,-1.6875 0.35938,-1.0625 0.35938,-2.57813 0,-2.09375 -0.6875,-3.21875 -0.6875,-1.125 -1.67188,-1.5 -0.70312,-0.28125 -2.28125,-0.28125 h -2.8125 z m 10.23856,1.57812 5.125,-13.35937 h 1.90625 l 5.46875,13.35937 h -2.01563 l -1.54687,-4.04687 h -5.59375 l -1.46875,4.04687 z m 3.85937,-5.48437 h 4.53125 l -1.40625,-3.70313 q -0.625,-1.6875 -0.9375,-2.76562 -0.26562,1.28125 -0.71875,2.54687 z m 12.07379,5.48437 v -11.78125 h -4.40625 v -1.57812 h 10.57813 v 1.57812 h -4.40625 v 11.78125 z m 5.13556,0 5.125,-13.35937 h 1.90625 l 5.46875,13.35937 h -2.01562 l -1.54688,-4.04687 h -5.59375 l -1.46875,4.04687 z m 3.85938,-5.48437 h 4.53125 l -1.40625,-3.70313 q -0.625,-1.6875 -0.9375,-2.76562 -0.26563,1.28125 -0.71875,2.54687 z"
       id="path125"
       inkscape:connector-curvature="0"
       style="fill:#000000;fill-rule:nonzero" />
    <path
       d="M 242.69061,277.62466 H 385.8717 V 313.4042 H 242.69061 Z"
       id="path127"
       inkscape:connector-curvature="0"
       style="fill:#000000;fill-opacity:0;fill-rule:evenodd" />
    <path
       d="m 254.6561,304.54468 v -13.35937 h 9.01563 v 1.57812 h -7.25 v 4.14063 h 6.26562 v 1.57812 h -6.26562 v 6.0625 z m 11.59909,0 v -13.35937 h 1.76563 v 13.35937 z m 4.87082,0 v -13.35937 h 1.8125 l 7.01562,10.48437 v -10.48437 h 1.6875 v 13.35937 h -1.8125 l -7.01562,-10.5 v 10.5 z m 13.70731,0 v -1.875 h 1.875 v 1.875 q 0,1.03125 -0.375,1.65625 -0.35938,0.64063 -1.15625,0.98438 l -0.45313,-0.70313 q 0.51563,-0.21875 0.76563,-0.67187 0.25,-0.4375 0.28125,-1.26563 z m 7.64917,0 5.125,-13.35937 h 1.90625 l 5.46875,13.35937 h -2.01563 l -1.54687,-4.04687 h -5.59375 l -1.46875,4.04687 z m 3.85937,-5.48437 h 4.53125 l -1.40625,-3.70313 q -0.625,-1.6875 -0.9375,-2.76562 -0.26562,1.28125 -0.71875,2.54687 z m 19.5842,0.79687 1.76562,0.45313 q -0.5625,2.17187 -2,3.32812 -1.4375,1.14063 -3.53125,1.14063 -2.15625,0 -3.51562,-0.875 -1.34375,-0.89063 -2.0625,-2.54688 -0.70313,-1.67187 -0.70313,-3.59375 0,-2.07812 0.79688,-3.625 0.79687,-1.5625 2.26562,-2.35937 1.48438,-0.8125 3.25,-0.8125 2,0 3.35938,1.01562 1.375,1.01563 1.90625,2.875 l -1.73438,0.40625 q -0.46875,-1.45312 -1.35937,-2.10937 -0.875,-0.67188 -2.20313,-0.67188 -1.54687,0 -2.57812,0.73438 -1.03125,0.73437 -1.45313,1.98437 -0.42187,1.23438 -0.42187,2.5625 0,1.70313 0.5,2.96875 0.5,1.26563 1.54687,1.90625 1.04688,0.625 2.26563,0.625 1.48437,0 2.51562,-0.85937 1.03125,-0.85938 1.39063,-2.54688 z m 3.86359,4.6875 v -13.35937 h 1.78125 v 6.625 l 6.625,-6.625 h 2.39062 l -5.59375,5.42187 5.84375,7.9375 h -2.32812 l -4.76563,-6.76562 -2.17187,2.14062 v 4.625 z m 18.78311,-11.10937 v 1.90625 h -1.76563 v -1.51563 q 0,-1.21875 0.29688,-1.76562 0.39062,-0.71875 1.21875,-1.09375 l 0.39062,0.64062 q -0.5,0.20313 -0.73437,0.625 -0.23438,0.40625 -0.26563,1.20313 z m 2.82812,0 v 1.90625 h -1.76562 v -1.51563 q 0,-1.21875 0.29687,-1.76562 0.375,-0.71875 1.20313,-1.09375 l 0.40625,0.64062 q -0.5,0.20313 -0.73438,0.625 -0.23437,0.40625 -0.26562,1.20313 z m 1.77518,4.60937 q 0,-3.32812 1.78125,-5.20312 1.78125,-1.89063 4.60937,-1.89063 1.84375,0 3.32813,0.89063 1.48437,0.875 2.26562,2.46875 0.78125,1.57812 0.78125,3.57812 0,2.03125 -0.82812,3.64063 -0.8125,1.59375 -2.3125,2.42187 -1.5,0.82813 -3.25,0.82813 -1.875,0 -3.35938,-0.90625 -1.48437,-0.92188 -2.25,-2.5 -0.76562,-1.57813 -0.76562,-3.32813 z m 1.8125,0.0156 q 0,2.42187 1.29687,3.8125 1.29688,1.39062 3.26563,1.39062 2,0 3.28125,-1.40625 1.28125,-1.40625 1.28125,-3.98437 0,-1.625 -0.54688,-2.84375 -0.54687,-1.21875 -1.60937,-1.875 -1.0625,-0.67188 -2.375,-0.67188 -1.89063,0 -3.25,1.29688 -1.34375,1.28125 -1.34375,4.28125 z m 13.15207,6.48437 v -13.35937 h 1.78125 v 6.625 l 6.625,-6.625 h 2.39062 l -5.59375,5.42187 5.84375,7.9375 h -2.32812 l -4.76563,-6.76562 -2.17187,2.14062 v 4.625 z M 370.0217,292.9509 v -1.89062 h 1.75 v 1.5 q 0,1.21875 -0.28125,1.75 -0.39062,0.75 -1.21875,1.10937 l -0.40625,-0.64062 q 0.5,-0.20313 0.73438,-0.625 0.25,-0.4375 0.28125,-1.20313 z m 2.8125,0 v -1.89062 h 1.76563 v 1.5 q 0,1.21875 -0.28125,1.75 -0.39063,0.75 -1.21875,1.10937 l -0.40625,-0.64062 q 0.5,-0.20313 0.73437,-0.625 0.25,-0.4375 0.26563,-1.20313 z"
       id="path129"
       inkscape:connector-curvature="0"
       style="fill:#000000;fill-rule:nonzero" />
    <path
       d="m 259.91898,329.00165 h 108.7244 v 35.77951 h -108.7244 z"
       id="path131"
       inkscape:connector-curvature="0"
       style="fill:#000000;fill-opacity:0;fill-rule:evenodd" />
    <path
       d="m 279.52957,355.92163 v -13.35938 h 9.01562 v 1.57813 h -7.25 v 4.14062 h 6.26563 v 1.57813 h -6.26563 v 6.0625 z m 11.59912,0 v -13.35938 h 1.76563 v 13.35938 z m 4.87079,0 v -13.35938 h 1.8125 l 7.01562,10.48438 v -10.48438 h 1.6875 v 13.35938 h -1.8125 l -7.01562,-10.5 v 10.5 z m 16.17319,0 5.125,-13.35938 h 1.90625 l 5.46875,13.35938 h -2.01563 l -1.54687,-4.04688 h -5.59375 l -1.46875,4.04688 z m 3.85937,-5.48438 h 4.53125 l -1.40625,-3.70312 q -0.625,-1.6875 -0.9375,-2.76563 -0.26562,1.28125 -0.71875,2.54688 z m 19.5842,0.79688 1.76562,0.45312 q -0.5625,2.17188 -2,3.32813 -1.4375,1.14062 -3.53125,1.14062 -2.15625,0 -3.51562,-0.875 -1.34375,-0.89062 -2.0625,-2.54687 -0.70313,-1.67188 -0.70313,-3.59375 0,-2.07813 0.79688,-3.625 0.79687,-1.5625 2.26562,-2.35938 1.48438,-0.8125 3.25,-0.8125 2,0 3.35938,1.01563 1.375,1.01562 1.90625,2.875 l -1.73438,0.40625 q -0.46875,-1.45313 -1.35937,-2.10938 -0.875,-0.67187 -2.20313,-0.67187 -1.54687,0 -2.57812,0.73437 -1.03125,0.73438 -1.45313,1.98438 -0.42187,1.23437 -0.42187,2.5625 0,1.70312 0.5,2.96875 0.5,1.26562 1.54687,1.90625 1.04688,0.625 2.26563,0.625 1.48437,0 2.51562,-0.85938 1.03125,-0.85937 1.39063,-2.54687 z m 3.86356,4.6875 v -13.35938 h 1.78125 v 6.625 l 6.625,-6.625 h 2.39062 l -5.59375,5.42188 5.84375,7.9375 h -2.32812 l -4.76563,-6.76563 -2.17187,2.14063 v 4.625 z"
       id="path133"
       inkscape:connector-curvature="0"
       style="fill:#000000;fill-rule:nonzero" />
    <path
       d="m 281.85992,382.55548 h 61.35431 v 35.77951 h -61.35431 z"
       id="path135"
       inkscape:connector-curvature="0"
       style="fill:#000000;fill-opacity:0;fill-rule:evenodd" />
    <path
       d="m 294.20078,405.1786 1.65625,-0.14062 q 0.125,1 0.54687,1.64062 0.4375,0.64063 1.34375,1.04688 0.92188,0.39062 2.0625,0.39062 1,0 1.78125,-0.29687 0.78125,-0.29688 1.15625,-0.8125 0.375,-0.53125 0.375,-1.15625 0,-0.625 -0.375,-1.09375 -0.35937,-0.46875 -1.1875,-0.79688 -0.54687,-0.20312 -2.39062,-0.64062 -1.82813,-0.45313 -2.5625,-0.84375 -0.96875,-0.5 -1.4375,-1.23438 -0.46875,-0.75 -0.46875,-1.67187 0,-1 0.57812,-1.875 0.57813,-0.89063 1.67188,-1.34375 1.10937,-0.45313 2.45312,-0.45313 1.48438,0 2.60938,0.48438 1.14062,0.46875 1.75,1.40625 0.60937,0.92187 0.65625,2.09375 l -1.6875,0.125 q -0.14063,-1.26563 -0.9375,-1.90625 -0.78125,-0.65625 -2.3125,-0.65625 -1.60938,0 -2.34375,0.59375 -0.73438,0.59375 -0.73438,1.42187 0,0.71875 0.53125,1.17188 0.5,0.46875 2.65625,0.96875 2.15625,0.48437 2.95313,0.84375 1.17187,0.53125 1.71875,1.35937 0.5625,0.82813 0.5625,1.90625 0,1.0625 -0.60938,2.01563 -0.60937,0.9375 -1.75,1.46875 -1.14062,0.51562 -2.57812,0.51562 -1.8125,0 -3.04688,-0.53125 -1.21875,-0.53125 -1.92187,-1.59375 -0.6875,-1.0625 -0.71875,-2.40625 z m 16.80295,4.29688 v -5.65625 l -5.15625,-7.70313 h 2.15625 l 2.64062,4.03125 q 0.71875,1.125 1.34375,2.26563 0.60938,-1.04688 1.46875,-2.35938 l 2.57813,-3.9375 h 2.0625 l -5.32813,7.70313 v 5.65625 z m 8.66232,0 V 396.1161 h 1.8125 l 7.01563,10.48438 V 396.1161 h 1.6875 v 13.35938 h -1.8125 l -7.01563,-10.5 v 10.5 z"
       id="path137"
       inkscape:connector-curvature="0"
       style="fill:#000000;fill-rule:nonzero" />
    <path
       d="m 281.85992,436.9997 h 61.35431 v 35.77954 h -61.35431 z"
       id="path139"
       inkscape:connector-curvature="0"
       style="fill:#000000;fill-opacity:0;fill-rule:evenodd" />
    <path
       d="m 293.32578,463.91968 5.125,-13.35937 h 1.90625 l 5.46875,13.35937 h -2.01563 l -1.54687,-4.04687 h -5.59375 l -1.46875,4.04687 z m 3.85937,-5.48437 h 4.53125 l -1.40625,-3.70313 q -0.625,-1.6875 -0.9375,-2.76562 -0.26562,1.28125 -0.71875,2.54687 z m 19.5842,0.79687 1.76563,0.45313 q -0.5625,2.17187 -2,3.32812 -1.4375,1.14063 -3.53125,1.14063 -2.15625,0 -3.51563,-0.875 -1.34375,-0.89063 -2.0625,-2.54688 -0.70312,-1.67187 -0.70312,-3.59375 0,-2.07812 0.79687,-3.625 0.79688,-1.5625 2.26563,-2.35937 1.48437,-0.8125 3.25,-0.8125 2,0 3.35937,1.01562 1.375,1.01563 1.90625,2.875 l -1.73437,0.40625 q -0.46875,-1.45312 -1.35938,-2.10937 -0.875,-0.67188 -2.20312,-0.67188 -1.54688,0 -2.57813,0.73438 -1.03125,0.73437 -1.45312,1.98437 -0.42188,1.23438 -0.42188,2.5625 0,1.70313 0.5,2.96875 0.5,1.26563 1.54688,1.90625 1.04687,0.625 2.26562,0.625 1.48438,0 2.51563,-0.85937 1.03125,-0.85938 1.39062,-2.54688 z m 3.86359,4.6875 v -13.35937 h 1.78125 v 6.625 l 6.625,-6.625 h 2.39062 l -5.59375,5.42187 5.84375,7.9375 h -2.32812 l -4.76563,-6.76562 -2.17187,2.14062 v 4.625 z"
       id="path141"
       inkscape:connector-curvature="0"
       style="fill:#000000;fill-rule:nonzero" />
    <path
       d="m 276.42947,491.4426 h 75.33859 v 35.77951 h -75.33859 z"
       id="path143"
       inkscape:connector-curvature="0"
       style="fill:#000000;fill-opacity:0;fill-rule:evenodd" />
    <path
       d="m 292.04364,518.3626 v -13.35937 h 4.60937 q 1.54688,0 2.375,0.20312 1.14063,0.25 1.95313,0.95313 1.0625,0.89062 1.57812,2.28125 0.53125,1.39062 0.53125,3.17187 0,1.51563 -0.35937,2.70313 -0.35938,1.17187 -0.92188,1.9375 -0.54687,0.76562 -1.20312,1.21875 -0.65625,0.4375 -1.59375,0.67187 -0.9375,0.21875 -2.14063,0.21875 z m 1.76562,-1.57812 h 2.85938 q 1.3125,0 2.0625,-0.23438 0.75,-0.25 1.20312,-0.70312 0.625,-0.625 0.96875,-1.6875 0.35938,-1.0625 0.35938,-2.57813 0,-2.09375 -0.6875,-3.21875 -0.6875,-1.125 -1.67188,-1.5 -0.70312,-0.28125 -2.28125,-0.28125 h -2.8125 z m 10.23859,1.57812 5.125,-13.35937 h 1.90625 l 5.46875,13.35937 h -2.01562 l -1.54688,-4.04687 h -5.59375 l -1.46875,4.04687 z m 3.85938,-5.48437 h 4.53125 l -1.40625,-3.70313 q -0.625,-1.6875 -0.9375,-2.76562 -0.26563,1.28125 -0.71875,2.54687 z m 12.07376,5.48437 v -11.78125 h -4.40625 v -1.57812 h 10.57812 v 1.57812 h -4.40625 v 11.78125 z m 5.13556,0 5.125,-13.35937 h 1.90625 l 5.46875,13.35937 h -2.01563 l -1.54687,-4.04687 h -5.59375 l -1.46875,4.04687 z m 3.85937,-5.48437 h 4.53125 l -1.40625,-3.70313 q -0.625,-1.6875 -0.9375,-2.76562 -0.26562,1.28125 -0.71875,2.54687 z"
       id="path145"
       inkscape:connector-curvature="0"
       style="fill:#000000;fill-rule:nonzero" />
    <path
       d="m 230.15652,539.9308 h 165.22833 v 35.77954 H 230.15652 Z"
       id="path147"
       inkscape:connector-curvature="0"
       style="fill:#000000;fill-opacity:0;fill-rule:evenodd" />
    <path
       d="m 245.6635,555.7414 v 1.90625 h -1.76563 v -1.51563 q 0,-1.21875 0.29688,-1.76562 0.39062,-0.71875 1.21875,-1.09375 l 0.39062,0.64062 q -0.5,0.20313 -0.73437,0.625 -0.23438,0.40625 -0.26563,1.20313 z m 2.82812,0 v 1.90625 H 246.726 v -1.51563 q 0,-1.21875 0.29687,-1.76562 0.375,-0.71875 1.20313,-1.09375 l 0.40625,0.64062 q -0.5,0.20313 -0.73438,0.625 -0.23437,0.40625 -0.26562,1.20313 z m 1.77518,4.60937 q 0,-3.32812 1.78125,-5.20312 1.78125,-1.89063 4.60939,-1.89063 1.84375,0 3.32813,0.89063 1.48437,0.875 2.26562,2.46875 0.78125,1.57812 0.78125,3.57812 0,2.03125 -0.82812,3.64063 -0.8125,1.59375 -2.3125,2.42187 -1.5,0.82813 -3.25,0.82813 -1.87502,0 -3.35939,-0.90625 -1.48438,-0.92188 -2.25,-2.5 -0.76563,-1.57813 -0.76563,-3.32813 z m 1.8125,0.0156 q 0,2.42187 1.29688,3.8125 1.29687,1.39062 3.26564,1.39062 2,0 3.28125,-1.40625 1.28125,-1.40625 1.28125,-3.98437 0,-1.625 -0.54688,-2.84375 -0.54687,-1.21875 -1.60937,-1.875 -1.0625,-0.67188 -2.375,-0.67188 -1.89064,0 -3.25002,1.29688 -1.34375,1.28125 -1.34375,4.28125 z m 13.15206,6.48437 V 553.4914 h 1.78125 v 6.625 l 6.625,-6.625 h 2.39062 l -5.59375,5.42187 5.84375,7.9375 h -2.32812 l -4.76563,-6.76562 -2.17187,2.14062 v 4.625 z m 11.88107,-11.59375 v -1.89062 h 1.75 v 1.5 q 0,1.21875 -0.28125,1.75 -0.39063,0.75 -1.21875,1.10937 l -0.40625,-0.64062 q 0.5,-0.20313 0.73437,-0.625 0.25,-0.4375 0.28125,-1.20313 z m 2.8125,0 v -1.89062 h 1.76562 v 1.5 q 0,1.21875 -0.28125,1.75 -0.39062,0.75 -1.21875,1.10937 l -0.40625,-0.64062 q 0.5,-0.20313 0.73438,-0.625 0.25,-0.4375 0.26562,-1.20313 z m 4.25955,11.59375 v -1.875 h 1.875 v 1.875 q 0,1.03125 -0.375,1.65625 -0.35937,0.64063 -1.15625,0.98438 l -0.45312,-0.70313 q 0.51562,-0.21875 0.76562,-0.67187 0.25,-0.4375 0.28125,-1.26563 z m 7.64917,0 5.125,-13.35937 h 1.90625 l 5.46875,13.35937 h -2.01562 l -1.54688,-4.04687 h -5.59375 l -1.46875,4.04687 z m 3.85938,-5.48437 h 4.53125 l -1.40625,-3.70313 q -0.625,-1.6875 -0.9375,-2.76562 -0.26563,1.28125 -0.71875,2.54687 z m 19.58419,0.79687 1.76563,0.45313 q -0.5625,2.17187 -2,3.32812 -1.4375,1.14063 -3.53125,1.14063 -2.15625,0 -3.51563,-0.875 -1.34375,-0.89063 -2.0625,-2.54688 -0.70312,-1.67187 -0.70312,-3.59375 0,-2.07812 0.79687,-3.625 0.79688,-1.5625 2.26563,-2.35937 1.48437,-0.8125 3.25,-0.8125 2,0 3.35937,1.01562 1.375,1.01563 1.90625,2.875 l -1.73437,0.40625 q -0.46875,-1.45312 -1.35938,-2.10937 -0.875,-0.67188 -2.20312,-0.67188 -1.54688,0 -2.57813,0.73438 -1.03125,0.73437 -1.45312,1.98437 -0.42188,1.23438 -0.42188,2.5625 0,1.70313 0.5,2.96875 0.5,1.26563 1.54688,1.90625 1.04687,0.625 2.26562,0.625 1.48438,0 2.51563,-0.85937 1.03125,-0.85938 1.39062,-2.54688 z m 3.86356,4.6875 V 553.4914 h 1.78125 v 6.625 l 6.625,-6.625 h 2.39063 l -5.59375,5.42187 5.84375,7.9375 h -2.32813 l -4.76562,-6.76562 -2.17188,2.14062 v 4.625 z m 17.70502,0 V 553.4914 h 4.60937 q 1.54688,0 2.375,0.20312 1.14063,0.25 1.95313,0.95313 1.0625,0.89062 1.57812,2.28125 0.53125,1.39062 0.53125,3.17187 0,1.51563 -0.35937,2.70313 -0.35938,1.17187 -0.92188,1.9375 -0.54687,0.76562 -1.20312,1.21875 -0.65625,0.4375 -1.59375,0.67187 -0.9375,0.21875 -2.14063,0.21875 z m 1.76562,-1.57812 h 2.85938 q 1.3125,0 2.0625,-0.23438 0.75,-0.25 1.20312,-0.70312 0.625,-0.625 0.96875,-1.6875 0.35938,-1.0625 0.35938,-2.57813 0,-2.09375 -0.6875,-3.21875 -0.6875,-1.125 -1.67188,-1.5 -0.70312,-0.28125 -2.28125,-0.28125 h -2.8125 z m 10.23856,1.57812 5.125,-13.35937 h 1.90625 l 5.46875,13.35937 h -2.01563 l -1.54687,-4.04687 h -5.59375 l -1.46875,4.04687 z m 3.85937,-5.48437 h 4.53125 l -1.40625,-3.70313 q -0.625,-1.6875 -0.9375,-2.76562 -0.26562,1.28125 -0.71875,2.54687 z m 12.07379,5.48437 v -11.78125 h -4.40625 v -1.57812 h 10.57813 v 1.57812 h -4.40625 v 11.78125 z m 5.13556,0 5.125,-13.35937 h 1.90625 l 5.46875,13.35937 h -2.01562 l -1.54688,-4.04687 h -5.59375 l -1.46875,4.04687 z m 3.85938,-5.48437 h 4.53125 l -1.40625,-3.70313 q -0.625,-1.6875 -0.9375,-2.76562 -0.26563,1.28125 -0.71875,2.54687 z"
       id="path149"
       inkscape:connector-curvature="0"
       style="fill:#000000;fill-rule:nonzero" />
    <path
       d="m 242.50952,590.2851 h 143.18109 v 35.77954 H 242.50952 Z"
       id="path151"
       inkscape:connector-curvature="0"
       style="fill:#000000;fill-opacity:0;fill-rule:evenodd" />
    <path
       d="m 254.475,617.20514 v -13.35937 h 9.01563 v 1.57812 h -7.25 v 4.14063 h 6.26562 v 1.57812 h -6.26562 v 6.0625 z m 11.59909,0 v -13.35937 h 1.76563 v 13.35937 z m 4.87082,0 v -13.35937 h 1.8125 l 7.01562,10.48437 v -10.48437 h 1.6875 v 13.35937 h -1.8125 l -7.01562,-10.5 v 10.5 z m 13.70731,0 v -1.875 h 1.875 v 1.875 q 0,1.03125 -0.375,1.65625 -0.35938,0.64063 -1.15625,0.98438 l -0.45313,-0.70313 q 0.51563,-0.21875 0.76563,-0.67187 0.25,-0.4375 0.28125,-1.26563 z m 7.64917,0 5.125,-13.35937 h 1.90625 l 5.46875,13.35937 h -2.01563 l -1.54687,-4.04687 h -5.59375 l -1.46875,4.04687 z m 3.85937,-5.48437 h 4.53125 l -1.40625,-3.70313 q -0.625,-1.6875 -0.9375,-2.76562 -0.26562,1.28125 -0.71875,2.54687 z m 19.5842,0.79687 1.76562,0.45313 q -0.5625,2.17187 -2,3.32812 -1.4375,1.14063 -3.53125,1.14063 -2.15625,0 -3.51562,-0.875 -1.34375,-0.89063 -2.0625,-2.54688 -0.70313,-1.67187 -0.70313,-3.59375 0,-2.07812 0.79688,-3.625 0.79687,-1.5625 2.26562,-2.35937 1.48438,-0.8125 3.25,-0.8125 2,0 3.35938,1.01562 1.375,1.01563 1.90625,2.875 l -1.73438,0.40625 q -0.46875,-1.45312 -1.35937,-2.10937 -0.875,-0.67188 -2.20313,-0.67188 -1.54687,0 -2.57812,0.73438 -1.03125,0.73437 -1.45313,1.98437 -0.42187,1.23438 -0.42187,2.5625 0,1.70313 0.5,2.96875 0.5,1.26563 1.54687,1.90625 1.04688,0.625 2.26563,0.625 1.48437,0 2.51562,-0.85937 1.03125,-0.85938 1.39063,-2.54688 z m 3.86359,4.6875 v -13.35937 h 1.78125 v 6.625 l 6.625,-6.625 h 2.39062 l -5.59375,5.42187 5.84375,7.9375 h -2.32812 l -4.76563,-6.76562 -2.17187,2.14062 v 4.625 z m 18.78311,-11.10937 v 1.90625 h -1.76563 v -1.51563 q 0,-1.21875 0.29688,-1.76562 0.39062,-0.71875 1.21875,-1.09375 l 0.39062,0.64062 q -0.5,0.20313 -0.73437,0.625 -0.23438,0.40625 -0.26563,1.20313 z m 2.82812,0 v 1.90625 h -1.76562 v -1.51563 q 0,-1.21875 0.29687,-1.76562 0.375,-0.71875 1.20313,-1.09375 l 0.40625,0.64062 q -0.5,0.20313 -0.73438,0.625 -0.23437,0.40625 -0.26562,1.20313 z m 1.77518,4.60937 q 0,-3.32812 1.78125,-5.20312 1.78125,-1.89063 4.60937,-1.89063 1.84375,0 3.32813,0.89063 1.48437,0.875 2.26562,2.46875 0.78125,1.57812 0.78125,3.57812 0,2.03125 -0.82812,3.64063 -0.8125,1.59375 -2.3125,2.42187 -1.5,0.82813 -3.25,0.82813 -1.875,0 -3.35938,-0.90625 -1.48437,-0.92188 -2.25,-2.5 -0.76562,-1.57813 -0.76562,-3.32813 z m 1.8125,0.0156 q 0,2.42187 1.29687,3.8125 1.29688,1.39062 3.26563,1.39062 2,0 3.28125,-1.40625 1.28125,-1.40625 1.28125,-3.98437 0,-1.625 -0.54688,-2.84375 -0.54687,-1.21875 -1.60937,-1.875 -1.0625,-0.67188 -2.375,-0.67188 -1.89063,0 -3.25,1.29688 -1.34375,1.28125 -1.34375,4.28125 z m 13.15207,6.48437 v -13.35937 h 1.78125 v 6.625 l 6.625,-6.625 h 2.39062 l -5.59375,5.42187 5.84375,7.9375 h -2.32812 l -4.76563,-6.76562 -2.17187,2.14062 v 4.625 z m 11.88107,-11.59375 v -1.89062 h 1.75 v 1.5 q 0,1.21875 -0.28125,1.75 -0.39062,0.75 -1.21875,1.10937 l -0.40625,-0.64062 q 0.5,-0.20313 0.73438,-0.625 0.25,-0.4375 0.28125,-1.20313 z m 2.8125,0 v -1.89062 h 1.76563 v 1.5 q 0,1.21875 -0.28125,1.75 -0.39063,0.75 -1.21875,1.10937 l -0.40625,-0.64062 q 0.5,-0.20313 0.73437,-0.625 0.25,-0.4375 0.26563,-1.20313 z"
       id="path153"
       inkscape:connector-curvature="0"
       style="fill:#000000;fill-rule:nonzero" />
    <path
       d="m 259.73788,641.6621 h 108.7244 v 35.77948 h -108.7244 z"
       id="path155"
       inkscape:connector-curvature="0"
       style="fill:#000000;fill-opacity:0;fill-rule:evenodd" />
    <path
       d="m 279.34848,668.5821 v -13.35938 h 9.01562 v 1.57813 h -7.25 v 4.14062 h 6.26563 v 1.57813 h -6.26563 v 6.0625 z m 11.59912,0 v -13.35938 h 1.76563 v 13.35938 z m 4.87079,0 v -13.35938 h 1.8125 l 7.01562,10.48438 v -10.48438 h 1.6875 v 13.35938 h -1.8125 l -7.01562,-10.5 v 10.5 z m 16.17319,0 5.125,-13.35938 h 1.90625 l 5.46875,13.35938 h -2.01563 l -1.54687,-4.04688 h -5.59375 l -1.46875,4.04688 z m 3.85937,-5.48438 h 4.53125 l -1.40625,-3.70312 q -0.625,-1.6875 -0.9375,-2.76563 -0.26562,1.28125 -0.71875,2.54688 z m 19.5842,0.79688 1.76562,0.45312 q -0.5625,2.17188 -2,3.32813 -1.4375,1.14062 -3.53125,1.14062 -2.15625,0 -3.51562,-0.875 -1.34375,-0.89062 -2.0625,-2.54687 -0.70313,-1.67188 -0.70313,-3.59375 0,-2.07813 0.79688,-3.625 0.79687,-1.5625 2.26562,-2.35938 1.48438,-0.8125 3.25,-0.8125 2,0 3.35938,1.01563 1.375,1.01562 1.90625,2.875 l -1.73438,0.40625 q -0.46875,-1.45313 -1.35937,-2.10938 -0.875,-0.67187 -2.20313,-0.67187 -1.54687,0 -2.57812,0.73437 -1.03125,0.73438 -1.45313,1.98438 -0.42187,1.23437 -0.42187,2.5625 0,1.70312 0.5,2.96875 0.5,1.26562 1.54687,1.90625 1.04688,0.625 2.26563,0.625 1.48437,0 2.51562,-0.85938 1.03125,-0.85937 1.39063,-2.54687 z m 3.86356,4.6875 v -13.35938 h 1.78125 v 6.625 l 6.625,-6.625 h 2.39062 l -5.59375,5.42188 5.84375,7.9375 h -2.32812 l -4.76563,-6.76563 -2.17187,2.14063 v 4.625 z"
       id="path157"
       inkscape:connector-curvature="0"
       style="fill:#000000;fill-rule:nonzero" />
  </g>
</svg>
