<svg version="1.1" viewBox="0.0 0.0 738.1469816272966 1003.8162729658793" fill="none" stroke="none" stroke-linecap="square" stroke-miterlimit="10" xmlns:xlink="http://www.w3.org/1999/xlink" xmlns="http://www.w3.org/2000/svg"><clipPath id="p.0"><path d="m0 0l738.147 0l0 1003.8163l-738.147 0l0 -1003.8163z" clip-rule="nonzero"/></clipPath><g clip-path="url(#p.0)"><path fill="#000000" fill-opacity="0.0" d="m0 0l738.147 0l0 1003.8163l-738.147 0z" fill-rule="evenodd"/><path fill="#000000" fill-opacity="0.0" d="m329.6299 945.4463l0 0c0 -22.430542 18.359863 -40.614136 41.007874 -40.614136l0 0c10.875977 0 21.306488 4.2789917 28.996948 11.89563c7.69046 7.616638 12.010925 17.94696 12.010925 28.718506l0 0c0 22.430603 -18.359863 40.614197 -41.007874 40.614197l0 0c-22.64801 0 -41.007874 -18.183594 -41.007874 -40.614197z" fill-rule="evenodd"/><path stroke="#000000" stroke-width="1.0" stroke-linejoin="round" stroke-linecap="butt" d="m329.6299 945.4463l0 0c0 -22.430542 18.359863 -40.614136 41.007874 -40.614136l0 0c10.875977 0 21.306488 4.2789917 28.996948 11.89563c7.69046 7.616638 12.010925 17.94696 12.010925 28.718506l0 0c0 22.430603 -18.359863 40.614197 -41.007874 40.614197l0 0c-22.64801 0 -41.007874 -18.183594 -41.007874 -40.614197z" fill-rule="evenodd"/><path fill="#000000" fill-opacity="0.0" d="m152.12646 705.1712l0 0" fill-rule="evenodd"/><path stroke="#000000" stroke-width="2.0" stroke-linejoin="round" stroke-linecap="butt" d="m152.12646 705.1712l0 0" fill-rule="evenodd"/><path fill="#ea9999" d="m21.45853 745.84595l0 0c0 -5.215637 4.228115 -9.443726 9.443758 -9.443726l192.45107 0c2.504654 0 4.906708 0.9949341 6.6777496 2.7659912c1.7710571 1.7710571 2.7660217 4.1730957 2.7660217 6.6777344l0 37.773926c0 5.215637 -4.228119 9.443726 -9.443771 9.443726l-192.45107 0c-5.215643 0 -9.443758 -4.2280884 -9.443758 -9.443726z" fill-rule="evenodd"/><path stroke="#000000" stroke-width="1.0" stroke-linejoin="round" stroke-linecap="butt" d="m21.45853 745.84595l0 0c0 -5.215637 4.228115 -9.443726 9.443758 -9.443726l192.45107 0c2.504654 0 4.906708 0.9949341 6.6777496 2.7659912c1.7710571 1.7710571 2.7660217 4.1730957 2.7660217 6.6777344l0 37.773926c0 5.215637 -4.228119 9.443726 -9.443771 9.443726l-192.45107 0c-5.215643 0 -9.443758 -4.2280884 -9.443758 -9.443726z" fill-rule="evenodd"/><path fill="#000000" d="m82.27173 755.67664l10.6875 0l0 1.96875l-8.484375 0l0 6.375l7.953125 0l0 1.96875l-7.953125 0l0 8.34375l-2.203125 0l0 -18.65625zm24.353073 13.484375l-7.171875 0l-1.703125 5.171875l-2.1875 0l6.234375 -18.65625l2.625 0l6.28125 18.65625l-2.3125 0l-1.765625 -5.171875zm-6.46875 -1.921875l5.859375 0l-2.75 -8.765625l-0.3125 0l-2.796875 8.765625zm12.571823 -11.5625l12.796875 0l0 1.96875l-5.296875 0l0 14.71875l5.296875 0l0 1.96875l-12.796875 0l0 -1.96875l5.28125 0l0 -14.71875l-5.28125 0l0 -1.96875zm16.806198 0l2.203125 0l0 16.6875l7.546875 0l0 -4.640625l1.96875 0l0 6.609375l-11.71875 0l0 -18.65625zm16.446823 0l10.953125 0l0 1.96875l-8.75 0l0 6.109375l8.078125 0l0 1.96875l-8.078125 0l0 6.640625l8.875 0l0 1.96875l-11.078125 0l0 -18.65625zm15.259338 0q1.015625 -0.140625 2.125 -0.171875q1.109375 -0.046875 1.875 -0.046875q2.4375 0 4.0625 0.703125q1.640625 0.6875 2.640625 1.9375q1.0 1.234375 1.4375 2.96875q0.453125 1.71875 0.453125 3.796875q0 1.890625 -0.40625 3.640625q-0.390625 1.75 -1.390625 3.09375q-0.984375 1.34375 -2.65625 2.15625q-1.65625 0.8125 -4.15625 0.8125q-0.359375 0 -0.921875 -0.015625q-0.546875 0 -1.140625 -0.046875q-0.578125 -0.03125 -1.109375 -0.0625q-0.53125 -0.03125 -0.8125 -0.078125l0 -18.6875zm4.109375 1.75q-0.375 0 -0.953125 0.03125q-0.5625 0.03125 -0.9375 0.109375l0 14.921875q0.140625 0.03125 0.390625 0.046875q0.25 0.015625 0.515625 0.03125q0.265625 0 0.515625 0.015625q0.265625 0.015625 0.421875 0.015625q1.9375 0 3.15625 -0.640625q1.21875 -0.640625 1.875 -1.71875q0.671875 -1.078125 0.90625 -2.46875q0.25 -1.40625 0.25 -2.90625q0 -1.296875 -0.21875 -2.609375q-0.21875 -1.328125 -0.875 -2.390625q-0.640625 -1.078125 -1.859375 -1.75q-1.21875 -0.6875 -3.1875 -0.6875z" fill-rule="nonzero"/><path fill="#ffe599" d="m508.4786 745.84595l0 0c0 -5.215637 4.228119 -9.443726 9.443756 -9.443726l192.45105 0c2.5046387 0 4.9067383 0.9949341 6.6777954 2.7659912c1.7709961 1.7710571 2.7659912 4.1730957 2.7659912 6.6777344l0 37.773926c0 5.215637 -4.2281494 9.443726 -9.443787 9.443726l-192.45105 0c-5.215637 0 -9.443756 -4.2280884 -9.443756 -9.443726z" fill-rule="evenodd"/><path stroke="#000000" stroke-width="1.0" stroke-linejoin="round" stroke-linecap="butt" d="m508.4786 745.84595l0 0c0 -5.215637 4.228119 -9.443726 9.443756 -9.443726l192.45105 0c2.5046387 0 4.9067383 0.9949341 6.6777954 2.7659912c1.7709961 1.7710571 2.7659912 4.1730957 2.7659912 6.6777344l0 37.773926c0 5.215637 -4.2281494 9.443726 -9.443787 9.443726l-192.45105 0c-5.215637 0 -9.443756 -4.2280884 -9.443756 -9.443726z" fill-rule="evenodd"/><path fill="#000000" d="m562.3762 757.69226q-0.453125 -0.171875 -1.0 -0.265625q-0.546875 -0.09375 -1.3125 -0.09375q-1.09375 0 -2.15625 0.40625q-1.046875 0.390625 -1.859375 1.296875q-0.8125 0.90625 -1.3125 2.375q-0.484375 1.453125 -0.484375 3.59375q0 1.921875 0.4375 3.359375q0.4375 1.4375 1.21875 2.40625q0.796875 0.953125 1.90625 1.4375q1.109375 0.46875 2.46875 0.46875q0.6875 0 1.28125 -0.109375q0.609375 -0.125 1.109375 -0.34375l0 -2.65625l1.96875 0l0 3.59375l0.03125 0.046875q-0.796875 0.625 -2.03125 1.03125q-1.21875 0.40625 -2.984375 0.40625q-1.671875 0 -3.109375 -0.5625q-1.421875 -0.578125 -2.46875 -1.75q-1.03125 -1.171875 -1.609375 -3.0q-0.5625 -1.828125 -0.5625 -4.328125q0 -2.609375 0.640625 -4.4375q0.640625 -1.828125 1.734375 -2.984375q1.09375 -1.15625 2.546875 -1.6875q1.453125 -0.546875 3.09375 -0.546875q0.90625 0 1.578125 0.078125q0.671875 0.0625 1.171875 0.1875q0.515625 0.109375 0.890625 0.296875q0.390625 0.1875 0.765625 0.421875l0.03125 0l0 4.21875l-1.984375 0l0 -2.859375zm15.274963 11.46875l-7.171875 0l-1.703125 5.171875l-2.1875 0l6.234375 -18.65625l2.625 0l6.28125 18.65625l-2.3125 0l-1.765625 -5.171875zm-6.46875 -1.921875l5.859375 0l-2.75 -8.765625l-0.3125 0l-2.796875 8.765625zm16.196838 -4.578125l-1.4375 -2.703125l-0.109375 0l0.265625 2.703125l0 11.671875l-2.078125 0l0 -18.65625l1.453125 0l7.515625 11.625l1.375 2.546875l0.140625 0l-0.296875 -2.546875l0 -11.625l2.078125 0l0 18.65625l-1.4375 0l-7.46875 -11.671875zm22.978088 -4.96875q-0.453125 -0.171875 -1.0 -0.265625q-0.546875 -0.09375 -1.3125 -0.09375q-1.09375 0 -2.15625 0.40625q-1.046875 0.390625 -1.859375 1.296875q-0.8125 0.90625 -1.3125 2.375q-0.484375 1.453125 -0.484375 3.59375q0 1.921875 0.4375 3.359375q0.4375 1.4375 1.21875 2.40625q0.796875 0.953125 1.90625 1.4375q1.109375 0.46875 2.46875 0.46875q0.6875 0 1.28125 -0.109375q0.609375 -0.125 1.109375 -0.34375l0 -2.65625l1.96875 0l0 3.59375l0.03125 0.046875q-0.796875 0.625 -2.03125 1.03125q-1.21875 0.40625 -2.984375 0.40625q-1.671875 0 -3.109375 -0.5625q-1.421875 -0.578125 -2.46875 -1.75q-1.03125 -1.171875 -1.609375 -3.0q-0.5625 -1.828125 -0.5625 -4.328125q0 -2.609375 0.640625 -4.4375q0.640625 -1.828125 1.734375 -2.984375q1.09375 -1.15625 2.546875 -1.6875q1.453125 -0.546875 3.09375 -0.546875q0.90625 0 1.578125 0.078125q0.671875 0.0625 1.171875 0.1875q0.515625 0.109375 0.890625 0.296875q0.390625 0.1875 0.765625 0.421875l0.03125 0l0 4.21875l-1.984375 0l0 -2.859375zm6.6499023 -2.015625l10.953125 0l0 1.96875l-8.75 0l0 6.109375l8.078125 0l0 1.96875l-8.078125 0l0 6.640625l8.875 0l0 1.96875l-11.078125 0l0 -18.65625zm15.540588 0l2.203125 0l0 16.6875l7.546875 0l0 -4.640625l1.96875 0l0 6.609375l-11.71875 0l0 -18.65625zm16.446838 0l10.953125 0l0 1.96875l-8.75 0l0 6.109375l8.078125 0l0 1.96875l-8.078125 0l0 6.640625l8.875 0l0 1.96875l-11.078125 0l0 -18.65625zm15.259277 0q1.015625 -0.140625 2.125 -0.171875q1.109375 -0.046875 1.875 -0.046875q2.4375 0 4.0625 0.703125q1.640625 0.6875 2.640625 1.9375q1.0 1.234375 1.4375 2.96875q0.453125 1.71875 0.453125 3.796875q0 1.890625 -0.40625 3.640625q-0.390625 1.75 -1.390625 3.09375q-0.984375 1.34375 -2.65625 2.15625q-1.65625 0.8125 -4.15625 0.8125q-0.359375 0 -0.921875 -0.015625q-0.546875 0 -1.140625 -0.046875q-0.578125 -0.03125 -1.109375 -0.0625q-0.53125 -0.03125 -0.8125 -0.078125l0 -18.6875zm4.109375 1.75q-0.375 0 -0.953125 0.03125q-0.5625 0.03125 -0.9375 0.109375l0 14.921875q0.140625 0.03125 0.390625 0.046875q0.25 0.015625 0.515625 0.03125q0.265625 0 0.515625 0.015625q0.265625 0.015625 0.421875 0.015625q1.9375 0 3.15625 -0.640625q1.21875 -0.640625 1.875 -1.71875q0.671875 -1.078125 0.90625 -2.46875q0.25 -1.40625 0.25 -2.90625q0 -1.296875 -0.21875 -2.609375q-0.21875 -1.328125 -0.875 -2.390625q-0.640625 -1.078125 -1.859375 -1.75q-1.21875 -0.6875 -3.1875 -0.6875z" fill-rule="nonzero"/><path fill="#b6d7a8" d="m264.9685 745.84534l0 0c0 -5.215637 4.2280884 -9.443787 9.443756 -9.443787l192.45105 0c2.5046387 0 4.906708 0.9949951 6.677765 2.7660522c1.7710266 1.7710571 2.7659912 4.1730957 2.7659912 6.6777344l0 37.773865c0 5.2156982 -4.228119 9.443787 -9.443756 9.443787l-192.45105 0c-5.2156677 0 -9.443756 -4.2280884 -9.443756 -9.443787z" fill-rule="evenodd"/><path stroke="#000000" stroke-width="1.0" stroke-linejoin="round" stroke-linecap="butt" d="m264.9685 745.84534l0 0c0 -5.215637 4.2280884 -9.443787 9.443756 -9.443787l192.45105 0c2.5046387 0 4.906708 0.9949951 6.677765 2.7660522c1.7710266 1.7710571 2.7659912 4.1730957 2.7659912 6.6777344l0 37.773865c0 5.2156982 -4.228119 9.443787 -9.443756 9.443787l-192.45105 0c-5.2156677 0 -9.443756 -4.2280884 -9.443756 -9.443787z" fill-rule="evenodd"/><path fill="#000000" d="m310.86926 757.69165q-0.453125 -0.171875 -1.0 -0.265625q-0.546875 -0.09375 -1.3125 -0.09375q-1.09375 0 -2.15625 0.40625q-1.046875 0.390625 -1.859375 1.296875q-0.8125 0.90625 -1.3125 2.375q-0.484375 1.453125 -0.484375 3.59375q0 1.921875 0.4375 3.359375q0.4375 1.4375 1.21875 2.40625q0.796875 0.953125 1.90625 1.4375q1.109375 0.46875 2.46875 0.46875q0.6875 0 1.28125 -0.109375q0.609375 -0.125 1.109375 -0.34375l0 -2.65625l1.96875 0l0 3.59375l0.03125 0.046875q-0.796875 0.625 -2.03125 1.03125q-1.21875 0.40625 -2.984375 0.40625q-1.671875 0 -3.109375 -0.5625q-1.421875 -0.578125 -2.46875 -1.75q-1.03125 -1.171875 -1.609375 -3.0q-0.5625 -1.828125 -0.5625 -4.328125q0 -2.609375 0.640625 -4.4375q0.640625 -1.828125 1.734375 -2.984375q1.09375 -1.15625 2.546875 -1.6875q1.453125 -0.546875 3.09375 -0.546875q0.90625 0 1.578125 0.078125q0.671875 0.0625 1.171875 0.1875q0.515625 0.109375 0.890625 0.296875q0.390625 0.1875 0.765625 0.421875l0.03125 0l0 4.21875l-1.984375 0l0 -2.859375zm5.0718384 7.3125q0 -4.640625 1.640625 -7.140625q1.640625 -2.515625 5.046875 -2.515625q1.875 0 3.15625 0.703125q1.296875 0.6875 2.09375 1.953125q0.796875 1.265625 1.140625 3.046875q0.359375 1.765625 0.359375 3.953125q0 4.640625 -1.640625 7.140625q-1.640625 2.5 -5.109375 2.5q-1.84375 0 -3.125 -0.6875q-1.265625 -0.6875 -2.078125 -1.953125q-0.796875 -1.265625 -1.140625 -3.03125q-0.34375 -1.78125 -0.34375 -3.96875zm2.34375 0q0 1.546875 0.203125 2.9375q0.203125 1.375 0.703125 2.4375q0.5 1.046875 1.328125 1.671875q0.828125 0.625 2.109375 0.625q2.296875 0 3.34375 -1.859375q1.0625 -1.875 1.0625 -5.8125q0 -1.515625 -0.203125 -2.90625q-0.203125 -1.40625 -0.71875 -2.453125q-0.5 -1.0625 -1.359375 -1.6875q-0.84375 -0.625 -2.125 -0.625q-2.265625 0 -3.3125 1.875q-1.03125 1.875 -1.03125 5.796875zm24.556183 -3.0625l0.265625 -2.53125l-0.140625 0l-1.28125 2.28125l-2.71875 4.5625l-0.65625 0l-2.859375 -4.578125l-1.21875 -2.265625l-0.140625 0l0.328125 2.5l0 12.421875l-2.171875 0l0 -18.65625l2.0625 0l4.421875 7.09375l0.046875 0l4.265625 -7.09375l2.0 0l0 18.65625l-2.203125 0l0 -12.390625zm6.4780884 -6.078125q1.0 -0.25 2.171875 -0.328125q1.1875 -0.078125 2.328125 -0.078125q1.21875 0 2.484375 0.25q1.265625 0.234375 2.3125 0.875q1.046875 0.640625 1.6875 1.765625q0.65625 1.109375 0.65625 2.84375q0 1.703125 -0.609375 2.875q-0.609375 1.171875 -1.625 1.90625q-1.015625 0.734375 -2.328125 1.0625q-1.296875 0.3125 -2.6875 0.3125q-0.125 0 -0.4375 0q-0.3125 0 -0.640625 -0.015625q-0.328125 -0.015625 -0.65625 -0.03125q-0.3125 -0.03125 -0.453125 -0.0625l0 7.09375l-2.203125 0l0 -18.46875zm4.546875 1.515625q-0.6875 0 -1.328125 0.03125q-0.640625 0.015625 -1.015625 0.125l0 7.734375q0.140625 0.046875 0.421875 0.0625q0.296875 0.015625 0.609375 0.03125q0.328125 0.015625 0.625 0.015625q0.296875 0 0.421875 0q0.90625 0 1.796875 -0.171875q0.90625 -0.171875 1.625 -0.625q0.71875 -0.453125 1.15625 -1.28125q0.4375 -0.828125 0.4375 -2.109375q0 -1.09375 -0.421875 -1.828125q-0.40625 -0.734375 -1.09375 -1.171875q-0.671875 -0.4375 -1.53125 -0.625q-0.84375 -0.1875 -1.703125 -0.1875zm11.181183 -1.703125l2.203125 0l0 16.6875l7.546875 0l0 -4.640625l1.96875 0l0 6.609375l-11.71875 0l0 -18.65625zm16.446838 0l10.953125 0l0 1.96875l-8.75 0l0 6.109375l8.078125 0l0 1.96875l-8.078125 0l0 6.640625l8.875 0l0 1.96875l-11.078125 0l0 -18.65625zm14.196808 0l13.859375 0l0 4.875l-1.96875 0l0 -2.90625l-3.859375 0l0 14.71875l2.921875 0l0 1.96875l-8.078125 0l0 -1.96875l2.9375 0l0 -14.71875l-3.84375 0l0 2.90625l-1.96875 0l0 -4.875zm17.790588 0l10.953125 0l0 1.96875l-8.75 0l0 6.109375l8.078125 0l0 1.96875l-8.078125 0l0 6.640625l8.875 0l0 1.96875l-11.078125 0l0 -18.65625zm15.259308 0q1.015625 -0.140625 2.125 -0.171875q1.109375 -0.046875 1.875 -0.046875q2.4375 0 4.0625 0.703125q1.640625 0.6875 2.640625 1.9375q1.0 1.234375 1.4375 2.96875q0.453125 1.71875 0.453125 3.796875q0 1.890625 -0.40625 3.640625q-0.390625 1.75 -1.390625 3.09375q-0.984375 1.34375 -2.65625 2.15625q-1.65625 0.8125 -4.15625 0.8125q-0.359375 0 -0.921875 -0.015625q-0.546875 0 -1.140625 -0.046875q-0.578125 -0.03125 -1.109375 -0.0625q-0.53125 -0.03125 -0.8125 -0.078125l0 -18.6875zm4.109375 1.75q-0.375 0 -0.953125 0.03125q-0.5625 0.03125 -0.9375 0.109375l0 14.921875q0.140625 0.03125 0.390625 0.046875q0.25 0.015625 0.515625 0.03125q0.265625 0 0.515625 0.015625q0.265625 0.015625 0.421875 0.015625q1.9375 0 3.15625 -0.640625q1.21875 -0.640625 1.875 -1.71875q0.671875 -1.078125 0.90625 -2.46875q0.25 -1.40625 0.25 -2.90625q0 -1.296875 -0.21875 -2.609375q-0.21875 -1.328125 -0.875 -2.390625q-0.640625 -1.078125 -1.859375 -1.75q-1.21875 -0.6875 -3.1875 -0.6875z" fill-rule="nonzero"/><path fill="#b6d7a8" d="m264.9685 460.2551l0 0c0 -5.215637 4.2280884 -9.443756 9.443756 -9.443756l192.45105 0c2.5046387 0 4.906708 0.9949646 6.677765 2.7659912c1.7710266 1.7710571 2.7659912 4.173126 2.7659912 6.677765l0 37.773895c0 5.215637 -4.228119 9.443756 -9.443756 9.443756l-192.45105 0c-5.2156677 0 -9.443756 -4.228119 -9.443756 -9.443756z" fill-rule="evenodd"/><path stroke="#000000" stroke-width="1.0" stroke-linejoin="round" stroke-linecap="butt" d="m264.9685 460.2551l0 0c0 -5.215637 4.2280884 -9.443756 9.443756 -9.443756l192.45105 0c2.5046387 0 4.906708 0.9949646 6.677765 2.7659912c1.7710266 1.7710571 2.7659912 4.173126 2.7659912 6.677765l0 37.773895c0 5.215637 -4.228119 9.443756 -9.443756 9.443756l-192.45105 0c-5.2156677 0 -9.443756 -4.228119 -9.443756 -9.443756z" fill-rule="evenodd"/><path fill="#000000" d="m323.93796 479.4139q0 -4.640625 1.640625 -7.140625q1.640625 -2.515625 5.046875 -2.515625q1.875 0 3.15625 0.703125q1.296875 0.6875 2.09375 1.953125q0.796875 1.265625 1.140625 3.046875q0.359375 1.765625 0.359375 3.953125q0 4.296875 -1.359375 6.734375q-1.359375 2.4375 -4.265625 2.828125q0.234375 0.9375 0.890625 1.40625q0.65625 0.46875 1.671875 0.46875q1.140625 0 2.046875 -0.59375l0.578125 1.625q-0.359375 0.4375 -1.15625 0.6875q-0.78125 0.25 -1.640625 0.25q-0.71875 0 -1.484375 -0.203125q-0.75 -0.203125 -1.421875 -0.65625q-0.65625 -0.453125 -1.15625 -1.1875q-0.484375 -0.71875 -0.65625 -1.8125q-1.515625 -0.21875 -2.5625 -0.96875q-1.03125 -0.765625 -1.6875 -2.0q-0.65625 -1.25 -0.953125 -2.90625q-0.28125 -1.671875 -0.28125 -3.671875zm2.34375 0q0 1.546875 0.203125 2.9375q0.203125 1.375 0.703125 2.4375q0.5 1.046875 1.328125 1.671875q0.828125 0.625 2.109375 0.625q2.296875 0 3.34375 -1.859375q1.0625 -1.875 1.0625 -5.8125q0 -1.515625 -0.203125 -2.90625q-0.203125 -1.40625 -0.71875 -2.453125q-0.5 -1.0625 -1.359375 -1.6875q-0.84375 -0.625 -2.125 -0.625q-2.265625 0 -3.3125 1.875q-1.03125 1.875 -1.03125 5.796875zm24.634308 -9.328125l2.125 0l0 12.453125q0 1.671875 -0.4375 2.90625q-0.4375 1.21875 -1.234375 2.015625q-0.796875 0.78125 -1.953125 1.15625q-1.140625 0.359375 -2.53125 0.359375q-3.296875 0 -4.96875 -1.484375q-1.671875 -1.5 -1.671875 -4.53125l0 -12.875l2.21875 0l0 11.828125q0 1.421875 0.28125 2.390625q0.28125 0.96875 0.828125 1.578125q0.546875 0.59375 1.375 0.859375q0.84375 0.265625 1.96875 0.265625q2.15625 0 3.078125 -1.1875q0.921875 -1.1875 0.921875 -3.90625l0 -11.828125zm6.5874634 0l10.953125 0l0 1.96875l-8.75 0l0 6.109375l8.078125 0l0 1.96875l-8.078125 0l0 6.640625l8.875 0l0 1.96875l-11.078125 0l0 -18.65625zm25.399933 0l2.125 0l0 12.453125q0 1.671875 -0.4375 2.90625q-0.4375 1.21875 -1.234375 2.015625q-0.796875 0.78125 -1.953125 1.15625q-1.140625 0.359375 -2.53125 0.359375q-3.296875 0 -4.96875 -1.484375q-1.671875 -1.5 -1.671875 -4.53125l0 -12.875l2.21875 0l0 11.828125q0 1.421875 0.28125 2.390625q0.28125 0.96875 0.828125 1.578125q0.546875 0.59375 1.375 0.859375q0.84375 0.265625 1.96875 0.265625q2.15625 0 3.078125 -1.1875q0.921875 -1.1875 0.921875 -3.90625l0 -11.828125zm6.5874634 0l10.9530945 0l0 1.96875l-8.7499695 0l0 6.109375l8.0780945 0l0 1.96875l-8.0780945 0l0 6.640625l8.8749695 0l0 1.96875l-11.0780945 0l0 -18.65625zm15.259308 0q1.015625 -0.140625 2.125 -0.171875q1.109375 -0.046875 1.875 -0.046875q2.4375 0 4.0625 0.703125q1.640625 0.6875 2.640625 1.9375q1.0 1.234375 1.4375 2.96875q0.453125 1.71875 0.453125 3.796875q0 1.890625 -0.40625 3.640625q-0.390625 1.75 -1.390625 3.09375q-0.984375 1.34375 -2.65625 2.15625q-1.65625 0.8125 -4.15625 0.8125q-0.359375 0 -0.921875 -0.015625q-0.546875 0 -1.140625 -0.046875q-0.578125 -0.03125 -1.109375 -0.0625q-0.53125 -0.03125 -0.8125 -0.078125l0 -18.6875zm4.109375 1.75q-0.375 0 -0.953125 0.03125q-0.5625 0.03125 -0.9375 0.109375l0 14.921875q0.140625 0.03125 0.390625 0.046875q0.25 0.015625 0.515625 0.03125q0.265625 0 0.515625 0.015625q0.265625 0.015625 0.421875 0.015625q1.9375 0 3.15625 -0.640625q1.21875 -0.640625 1.875 -1.71875q0.671875 -1.078125 0.90625 -2.46875q0.25 -1.40625 0.25 -2.90625q0 -1.296875 -0.21875 -2.609375q-0.21875 -1.328125 -0.875 -2.390625q-0.640625 -1.078125 -1.859375 -1.75q-1.21875 -0.6875 -3.1875 -0.6875z" fill-rule="nonzero"/><path fill="#b6d7a8" d="m264.9685 598.14856l0 0c0 -5.2156982 4.2280884 -9.443787 9.443756 -9.443787l192.45105 0c2.5046387 0 4.906708 0.9949951 6.677765 2.7659912c1.7710266 1.7710571 2.7659912 4.1731567 2.7659912 6.6777954l0 37.773865c0 5.215637 -4.228119 9.443787 -9.443756 9.443787l-192.45105 0c-5.2156677 0 -9.443756 -4.2281494 -9.443756 -9.443787z" fill-rule="evenodd"/><path stroke="#000000" stroke-width="1.0" stroke-linejoin="round" stroke-linecap="butt" d="m264.9685 598.14856l0 0c0 -5.2156982 4.2280884 -9.443787 9.443756 -9.443787l192.45105 0c2.5046387 0 4.906708 0.9949951 6.677765 2.7659912c1.7710266 1.7710571 2.7659912 4.1731567 2.7659912 6.6777954l0 37.773865c0 5.215637 -4.228119 9.443787 -9.443756 9.443787l-192.45105 0c-5.2156677 0 -9.443756 -4.2281494 -9.443756 -9.443787z" fill-rule="evenodd"/><path fill="#000000" d="m334.14108 621.4636l-7.171875 0l-1.703125 5.171875l-2.1875 0l6.234375 -18.65625l2.625 0l6.28125 18.65625l-2.3125 0l-1.765625 -5.171875zm-6.46875 -1.921875l5.859375 0l-2.75 -8.765625l-0.3125 0l-2.796875 8.765625zm23.181183 -9.546875q-0.453125 -0.171875 -1.0 -0.265625q-0.546875 -0.09375 -1.3125 -0.09375q-1.09375 0 -2.15625 0.40625q-1.046875 0.390625 -1.859375 1.296875q-0.8125 0.90625 -1.3125 2.375q-0.484375 1.453125 -0.484375 3.59375q0 1.921875 0.4375 3.359375q0.4375 1.4375 1.21875 2.40625q0.796875 0.953125 1.90625 1.4375q1.109375 0.46875 2.46875 0.46875q0.6875 0 1.28125 -0.109375q0.609375 -0.125 1.109375 -0.34375l0 -2.65625l1.96875 0l0 3.59375l0.03125 0.046875q-0.796875 0.625 -2.03125 1.03125q-1.21875 0.40625 -2.984375 0.40625q-1.671875 0 -3.109375 -0.5625q-1.421875 -0.578125 -2.46875 -1.75q-1.03125 -1.171875 -1.609375 -3.0q-0.5625 -1.828125 -0.5625 -4.328125q0 -2.609375 0.640625 -4.4375q0.640625 -1.828125 1.734375 -2.984375q1.09375 -1.15625 2.546875 -1.6875q1.453125 -0.546875 3.09375 -0.546875q0.90625 0 1.578125 0.078125q0.671875 0.0625 1.171875 0.1875q0.515625 0.109375 0.890625 0.296875q0.390625 0.1875 0.765625 0.421875l0.03125 0l0 4.21875l-1.984375 0l0 -2.859375zm4.8530884 -2.015625l13.859375 0l0 4.875l-1.96875 0l0 -2.90625l-3.859375 0l0 14.71875l2.921875 0l0 1.96875l-8.078125 0l0 -1.96875l2.9375 0l0 -14.71875l-3.84375 0l0 2.90625l-1.96875 0l0 -4.875zm16.524933 0l12.796875 0l0 1.96875l-5.296875 0l0 14.71875l5.296875 0l0 1.96875l-12.796875 0l0 -1.96875l5.28125 0l0 -14.71875l-5.28125 0l0 -1.96875zm22.446838 15.90625l0.296875 0l5.0624695 -15.90625l2.21875 0l-6.265625 18.65625l-2.5937195 0l-6.390625 -18.65625l2.421875 0l5.25 15.90625zm10.806183 -15.90625l10.953125 0l0 1.96875l-8.75 0l0 6.109375l8.078125 0l0 1.96875l-8.078125 0l0 6.640625l8.875 0l0 1.96875l-11.078125 0l0 -18.65625z" fill-rule="nonzero"/><path fill="#000000" fill-opacity="0.0" d="m370.6378 507.47275l0 81.22836" fill-rule="evenodd"/><path stroke="#000000" stroke-width="2.0" stroke-linejoin="round" stroke-linecap="butt" d="m370.6378 507.47278l0 74.374146" fill-rule="evenodd"/><path fill="#000000" stroke="#000000" stroke-width="2.0" stroke-linecap="butt" d="m370.6378 581.8469l-2.2491455 -2.2491455l2.2491455 6.1795044l2.249176 -6.1795044z" fill-rule="evenodd"/><path fill="#000000" fill-opacity="0.0" d="m370.6378 369.57758l0 81.22836" fill-rule="evenodd"/><path stroke="#000000" stroke-width="2.0" stroke-linejoin="round" stroke-linecap="butt" d="m370.6378 369.5776l0 74.374176" fill-rule="evenodd"/><path fill="#000000" stroke="#000000" stroke-width="2.0" stroke-linecap="butt" d="m370.6378 443.95175l-2.2491455 -2.2491455l2.2491455 6.179535l2.249176 -6.179535z" fill-rule="evenodd"/><path fill="#c9daf8" d="m338.7795 51.819523l0 0c0 -17.594833 14.263428 -31.858267 31.858276 -31.858267l0 0c8.449341 0 16.552612 3.3564873 22.527191 9.331072c5.974579 5.9745827 9.331085 14.077858 9.331085 22.527195l0 0c0 17.594837 -14.263428 31.858273 -31.858276 31.858273l0 0c-17.594849 0 -31.858276 -14.263435 -31.858276 -31.858273z" fill-rule="evenodd"/><path stroke="#000000" stroke-width="1.0" stroke-linejoin="round" stroke-linecap="butt" d="m338.7795 51.819523l0 0c0 -17.594833 14.263428 -31.858267 31.858276 -31.858267l0 0c8.449341 0 16.552612 3.3564873 22.527191 9.331072c5.974579 5.9745827 9.331085 14.077858 9.331085 22.527195l0 0c0 17.594837 -14.263428 31.858273 -31.858276 31.858273l0 0c-17.594849 0 -31.858276 -14.263435 -31.858276 -31.858273z" fill-rule="evenodd"/><path fill="#b6d7a8" d="m264.9685 178.35977l0 0c0 -5.2156525 4.2280884 -9.443756 9.443756 -9.443756l192.45105 0c2.5046387 0 4.906708 0.9949646 6.677765 2.7660065c1.7710266 1.7710419 2.7659912 4.173111 2.7659912 6.6777496l0 37.773895c0 5.2156525 -4.228119 9.443756 -9.443756 9.443756l-192.45105 0c-5.2156677 0 -9.443756 -4.2281036 -9.443756 -9.443756z" fill-rule="evenodd"/><path stroke="#000000" stroke-width="1.0" stroke-linejoin="round" stroke-linecap="butt" d="m264.9685 178.35977l0 0c0 -5.2156525 4.2280884 -9.443756 9.443756 -9.443756l192.45105 0c2.5046387 0 4.906708 0.9949646 6.677765 2.7660065c1.7710266 1.7710419 2.7659912 4.173111 2.7659912 6.6777496l0 37.773895c0 5.2156525 -4.228119 9.443756 -9.443756 9.443756l-192.45105 0c-5.2156677 0 -9.443756 -4.2281036 -9.443756 -9.443756z" fill-rule="evenodd"/><path fill="#000000" d="m351.866 195.17485l-1.4375 -2.703125l-0.109375 0l0.265625 2.703125l0 11.671875l-2.078125 0l0 -18.65625l1.453125 0l7.515625 11.625l1.375 2.546875l0.140625 0l-0.296875 -2.546875l0 -11.625l2.078125 0l0 18.65625l-1.4375 0l-7.46875 -11.671875zm13.634308 -6.984375l10.953125 0l0 1.96875l-8.75 0l0 6.109375l8.078125 0l0 1.96875l-8.078125 0l0 6.640625l8.875 0l0 1.96875l-11.078125 0l0 -18.65625zm17.743713 13.296875l0.140625 1.734375l0.1875 0l0.359375 -1.890625l1.984375 -7.28125l1.75 0l1.84375 7.21875l0.484375 1.984375l0.125 0l0.171875 -1.8125l1.96875 -13.25l1.96875 0l-2.875 18.65625l-2.21875 0l-2.15625 -7.578125l-0.265625 -1.8125l-0.078125 0l-0.296875 1.84375l-2.15625 7.546875l-2.234375 0l-2.90625 -18.65625l2.09375 0l2.109375 13.296875z" fill-rule="nonzero"/><path fill="#000000" fill-opacity="0.0" d="m370.6378 83.677795l0 85.22835" fill-rule="evenodd"/><path stroke="#000000" stroke-width="2.0" stroke-linejoin="round" stroke-linecap="butt" d="m370.6378 83.67779l0 73.228355" fill-rule="evenodd"/><path fill="#000000" stroke="#000000" stroke-width="2.0" stroke-linecap="butt" d="m367.33432 156.90614l3.3034668 9.076187l3.3034668 -9.076187z" fill-rule="evenodd"/><path fill="#000000" fill-opacity="0.0" d="m127.12782 793.0636c0 27.942017 53.629913 40.427307 107.25984 55.883972c53.629913 15.456726 107.25983 33.884827 107.25983 67.76959" fill-rule="evenodd"/><path stroke="#000000" stroke-width="2.0" stroke-linejoin="round" stroke-linecap="butt" d="m127.12782 793.06366c0 27.941895 53.62993 40.427246 107.25984 55.88391c26.814972 7.7283936 53.629944 16.199585 73.74115 26.974243c10.055603 5.38739 18.435272 11.350586 24.301056 18.084839c2.9328918 3.3670044 5.237274 6.92688 6.8084717 10.703918c0.39282227 0.94421387 0.7397766 1.9020386 1.0393066 2.8737183c0.14974976 0.48590088 0.28762817 0.9753418 0.41345215 1.4682007c0.06289673 0.24645996 0.122802734 0.4937744 0.17962646 0.7420654l0.024475098 0.10986328" fill-rule="evenodd"/><path fill="#000000" stroke="#000000" stroke-width="2.0" stroke-linecap="butt" d="m340.8952 909.9044l-2.4824524 -1.9887085l2.9138489 5.8953247l1.557312 -6.389038z" fill-rule="evenodd"/><path fill="#000000" fill-opacity="0.0" d="m370.6378 793.063l0 111.77954" fill-rule="evenodd"/><path stroke="#000000" stroke-width="2.0" stroke-linejoin="round" stroke-linecap="butt" d="m370.6378 793.063l0 104.925354" fill-rule="evenodd"/><path fill="#000000" stroke="#000000" stroke-width="2.0" stroke-linecap="butt" d="m370.6378 897.98834l-2.2491455 -2.2491455l2.2491455 6.1795044l2.249176 -6.1795044z" fill-rule="evenodd"/><path fill="#c9daf8" d="m338.7795 945.4463l0 0c0 -17.594788 14.263428 -31.858215 31.858276 -31.858215l0 0c8.449341 0 16.552612 3.3564453 22.527191 9.331055c5.974579 5.9745483 9.331085 14.07782 9.331085 22.52716l0 0c0 17.594849 -14.263428 31.858276 -31.858276 31.858276l0 0c-17.594849 0 -31.858276 -14.263428 -31.858276 -31.858276z" fill-rule="evenodd"/><path stroke="#000000" stroke-width="1.0" stroke-linejoin="round" stroke-linecap="butt" d="m338.7795 945.4463l0 0c0 -17.594788 14.263428 -31.858215 31.858276 -31.858215l0 0c8.449341 0 16.552612 3.3564453 22.527191 9.331055c5.974579 5.9745483 9.331085 14.07782 9.331085 22.52716l0 0c0 17.594849 -14.263428 31.858276 -31.858276 31.858276l0 0c-17.594849 0 -31.858276 -14.263428 -31.858276 -31.858276z" fill-rule="evenodd"/><path fill="#000000" fill-opacity="0.0" d="m614.1479 793.0636c0 27.942017 -53.629883 40.427307 -107.25983 55.883972c-53.629913 15.456726 -107.25986 33.884827 -107.25986 67.76959" fill-rule="evenodd"/><path stroke="#000000" stroke-width="2.0" stroke-linejoin="round" stroke-linecap="butt" d="m614.1479 793.06366c0 27.941895 -53.629944 40.427246 -107.25986 55.88391c-26.814941 7.7283936 -53.629913 16.199585 -73.74112 26.974243c-10.055634 5.38739 -18.435303 11.350586 -24.301056 18.084839c-2.9328918 3.3670044 -5.2373047 6.92688 -6.808502 10.703918c-0.39279175 0.94421387 -0.7397766 1.9020386 -1.0392761 2.8737183c-0.14971924 0.48590088 -0.2876587 0.9753418 -0.41348267 1.4682007c-0.06289673 0.24645996 -0.12277222 0.4937744 -0.17962646 0.7420654l-0.02444458 0.10986328" fill-rule="evenodd"/><path fill="#000000" stroke="#000000" stroke-width="2.0" stroke-linecap="butt" d="m400.38052 909.9044l-1.9887085 -2.4824219l1.557312 6.389038l2.9138489 -5.8953247z" fill-rule="evenodd"/><path fill="#000000" fill-opacity="0.0" d="m264.9685 479.14203c-68.91339 0 -137.82678 128.62994 -137.82678 257.25983" fill-rule="evenodd"/><path stroke="#000000" stroke-width="2.0" stroke-linejoin="round" stroke-linecap="butt" d="m264.9685 479.14206c-34.456696 0 -68.91339 32.15747 -94.755905 80.39371c-12.92128 24.118103 -23.688995 52.25592 -31.226395 82.403564c-3.768692 15.0737915 -6.7298126 30.650085 -8.748764 46.4776c-1.0094757 7.9137573 -1.7834015 15.89032 -2.3049622 23.898254c-0.26078033 4.0039673 -0.4584732 8.015869 -0.5909653 12.031616c-0.03312683 1.0039062 -0.062171936 2.0081177 -0.08711243 3.0124512c-0.01247406 0.50219727 -0.023910522 1.0044556 -0.034332275 1.5067139l-0.0127334595 0.6820679" fill-rule="evenodd"/><path fill="#000000" stroke="#000000" stroke-width="2.0" stroke-linecap="butt" d="m127.20734 729.54803l-2.2275314 -2.2705688l2.1899033 6.2007446l2.3082275 -6.157715z" fill-rule="evenodd"/><path fill="#000000" fill-opacity="0.0" d="m264.9685 617.03546c-68.91339 0 -137.82678 59.68506 -137.82678 119.37012" fill-rule="evenodd"/><path stroke="#000000" stroke-width="2.0" stroke-linejoin="round" stroke-linecap="butt" d="m264.9685 617.03546c-34.456696 0 -68.91339 14.921265 -94.755905 37.30316c-12.92128 11.190918 -23.688995 24.24707 -31.226395 38.23578c-3.768692 6.9943237 -6.7298126 14.221802 -8.748764 21.565857c-1.0094757 3.671997 -1.7834015 7.373169 -2.3049622 11.088989c-0.13039398 0.92889404 -0.24501038 1.8587646 -0.34358978 2.7893066c-0.049293518 0.46520996 -0.094581604 0.93066406 -0.13581848 1.3962402l-0.012054443 0.14318848" fill-rule="evenodd"/><path fill="#000000" stroke="#000000" stroke-width="2.0" stroke-linecap="butt" d="m127.44102 729.558l-2.1488037 -2.3452759l1.9771805 6.2718506l2.516861 -6.0753784z" fill-rule="evenodd"/><path fill="#000000" fill-opacity="0.0" d="m476.30707 479.14203c68.91339 0 137.82678 128.62994 137.82678 257.25983" fill-rule="evenodd"/><path stroke="#000000" stroke-width="2.0" stroke-linejoin="round" stroke-linecap="butt" d="m476.3071 479.14206c34.456696 0 68.91336 32.15747 94.75589 80.39371c12.921265 24.118103 23.688965 52.25592 31.22638 82.403564c3.7686768 15.0737915 6.7297974 30.650085 8.748779 46.4776c1.0094604 7.9137573 1.7833862 15.89032 2.3049316 23.898254c0.26080322 4.0039673 0.4584961 8.015869 0.5910034 12.031616c0.033081055 1.0039062 0.06213379 2.0081177 0.08709717 3.0124512c0.012512207 0.50219727 0.023925781 1.0044556 0.034301758 1.5067139l0.012756348 0.6820679" fill-rule="evenodd"/><path fill="#000000" stroke="#000000" stroke-width="2.0" stroke-linecap="butt" d="m614.06824 729.54803l-2.2705688 -2.227539l2.3082275 6.157715l2.1898804 -6.2007446z" fill-rule="evenodd"/><path fill="#000000" fill-opacity="0.0" d="m476.30707 617.03546c68.91339 0 137.82678 59.68506 137.82678 119.37012" fill-rule="evenodd"/><path stroke="#000000" stroke-width="2.0" stroke-linejoin="round" stroke-linecap="butt" d="m476.3071 617.03546c34.456696 0 68.91336 14.921265 94.75589 37.30316c12.921265 11.190918 23.688965 24.24707 31.22638 38.23578c3.7686768 6.9943237 6.7297974 14.221802 8.748779 21.565857c1.0094604 3.671997 1.7833862 7.373169 2.3049316 11.088989c0.13043213 0.92889404 0.24505615 1.8587646 0.34362793 2.7893066c0.04925537 0.46520996 0.09454346 0.93066406 0.13580322 1.3962402l0.012023926 0.14318848" fill-rule="evenodd"/><path fill="#000000" stroke="#000000" stroke-width="2.0" stroke-linecap="butt" d="m613.83453 729.558l-2.3452148 -2.1488037l2.5168457 6.0753784l1.9772339 -6.2718506z" fill-rule="evenodd"/><path fill="#000000" fill-opacity="0.0" d="m370.6378 645.3662l0 45.517273l0.06298828 0l0 45.506348" fill-rule="evenodd"/><path stroke="#000000" stroke-width="2.0" stroke-linejoin="round" stroke-linecap="butt" d="m370.6378 645.3662l0 45.517212l0.06298828 0l0 38.652283" fill-rule="evenodd"/><path fill="#000000" stroke="#000000" stroke-width="2.0" stroke-linecap="butt" d="m370.70078 729.53564l-2.2491455 -2.2491455l2.2491455 6.1795654l2.249176 -6.1795654z" fill-rule="evenodd"/><path fill="#000000" fill-opacity="0.0" d="m371.3021 246.96063l120.88187 0l0 34.897644l-120.88187 0z" fill-rule="evenodd"/><path fill="#000000" d="m382.14584 273.4275l0 -1.5q1.765625 0.78125 3.375 0.78125q2.5 0 2.5 -1.484375q0 -0.515625 -0.453125 -0.890625q-0.4375 -0.390625 -2.046875 -0.96875q-2.125 -0.796875 -2.671875 -1.453125q-0.546875 -0.65625 -0.546875 -1.5625q0 -1.234375 1.015625 -1.9375q1.015625 -0.71875 2.8125 -0.71875q1.796875 0 3.359375 0.671875l-0.546875 1.359375q-1.65625 -0.65625 -2.90625 -0.65625q-2.15625 0 -2.15625 1.21875q0 0.546875 0.453125 0.890625q0.46875 0.328125 2.125 0.921875q1.921875 0.703125 2.546875 1.390625q0.640625 0.671875 0.640625 1.65625q0 1.359375 -1.0625 2.140625q-1.0625 0.78125 -3.015625 0.78125q-2.265625 0 -3.421875 -0.640625zm17.758057 0.453125l-0.25 -1.34375l-0.09375 0q-0.953125 1.53125 -3.046875 1.53125q-3.5625 0 -3.5625 -3.65625l0 -6.53125l1.65625 0l0 6.4375q0 2.375 2.15625 2.375q1.46875 0 2.140625 -0.84375q0.671875 -0.84375 0.671875 -2.78125l0 -5.1875l1.65625 0l0 10.0l-1.328125 0zm5.883087 -1.265625l-0.109375 0l-0.328125 1.265625l-1.21875 0l0 -14.171875l1.65625 0l0 3.421875q0 0.734375 -0.0625 2.0625l0.0625 0q0.984375 -1.5 2.9375 -1.5q1.828125 0 2.875 1.375q1.046875 1.359375 1.046875 3.796875q0 2.453125 -1.046875 3.828125q-1.046875 1.375 -2.875 1.375q-1.890625 0 -2.9375 -1.453125zm0 -3.75q0 2.0625 0.625 2.953125q0.640625 0.875 2.03125 0.875q2.46875 0 2.46875 -3.84375q0 -3.78125 -2.484375 -3.78125q-1.421875 0 -2.03125 0.859375q-0.609375 0.859375 -0.609375 2.9375zm17.008057 5.015625l0 -6.4375q0 -1.328125 -0.25 -1.84375q-0.234375 -0.53125 -0.796875 -0.53125q-0.796875 0 -1.15625 0.765625q-0.359375 0.75 -0.359375 2.53125l0 5.515625l-1.46875 0l0 -6.4375q0 -2.375 -1.140625 -2.375q-0.765625 0 -1.09375 0.734375q-0.328125 0.71875 -0.328125 2.890625l0 5.1875l-1.46875 0l0 -10.0l1.15625 0l0.234375 1.34375l0.09375 0q0.609375 -1.53125 1.828125 -1.53125q1.484375 0 1.953125 1.65625l0.046875 0q0.6875 -1.65625 2.0 -1.65625q1.15625 0 1.6875 0.84375q0.53125 0.84375 0.53125 2.8125l0 6.53125l-1.46875 0zm8.054962 -14.125q0.96875 0 0.96875 1.046875q0 0.53125 -0.296875 0.796875q-0.28125 0.25 -0.671875 0.25q-0.96875 0 -0.96875 -1.046875q0 -1.046875 0.96875 -1.046875zm-0.84375 5.4375l-2.4375 -0.1875l0 -1.125l4.109375 0l0 8.703125l3.203125 0.171875l0 1.125l-8.0 0l0 -1.125l3.125 -0.171875l0 -7.390625zm15.570557 7.328125l0 1.25q-1.1875 0.296875 -2.296875 0.296875q-3.296875 0 -3.296875 -3.140625l0 -5.796875l-2.4375 0l0 -0.859375l2.4375 -0.453125l0.703125 -2.609375l0.953125 0l0 2.671875l3.984375 0l0 1.25l-3.984375 0l0 5.796875q0 1.78125 1.75 1.78125q0.84375 0 2.1875 -0.1875zm8.633087 -11.953125l1.75 0q-4.078125 3.421875 -4.078125 8.125q0 4.75 4.0625 8.140625l-1.734375 0q-4.046875 -3.21875 -4.046875 -8.125q0 -4.84375 4.046875 -8.140625zm8.914307 16.265625l-1.734375 0q4.0625 -3.375 4.0625 -8.140625q0 -4.71875 -4.078125 -8.125l1.75 0q4.0625 3.28125 4.0625 8.140625q0 4.921875 -4.0625 8.125z" fill-rule="nonzero"/><path fill="#b6d7a8" d="m264.9685 322.35992l0 0c0 -5.215637 4.2280884 -9.443756 9.443756 -9.443756l192.45105 0c2.5046387 0 4.906708 0.9949646 6.677765 2.7660217c1.7710266 1.7710266 2.7659912 4.1730957 2.7659912 6.6777344l0 37.773895c0 5.215637 -4.228119 9.443756 -9.443756 9.443756l-192.45105 0c-5.2156677 0 -9.443756 -4.228119 -9.443756 -9.443756z" fill-rule="evenodd"/><path stroke="#000000" stroke-width="1.0" stroke-linejoin="round" stroke-linecap="butt" d="m264.9685 322.35992l0 0c0 -5.215637 4.2280884 -9.443756 9.443756 -9.443756l192.45105 0c2.5046387 0 4.906708 0.9949646 6.677765 2.7660217c1.7710266 1.7710266 2.7659912 4.1730957 2.7659912 6.6777344l0 37.773895c0 5.215637 -4.228119 9.443756 -9.443756 9.443756l-192.45105 0c-5.2156677 0 -9.443756 -4.228119 -9.443756 -9.443756z" fill-rule="evenodd"/><path fill="#000000" d="m302.66614 348.20624q0.796875 0.421875 1.796875 0.703125q1.0 0.28125 2.015625 0.28125q0.875 0 1.640625 -0.171875q0.78125 -0.171875 1.34375 -0.546875q0.578125 -0.390625 0.90625 -0.96875q0.34375 -0.59375 0.34375 -1.40625q0 -1.09375 -0.734375 -1.78125q-0.734375 -0.6875 -1.828125 -1.21875q-1.09375 -0.546875 -2.375 -1.046875q-1.265625 -0.5 -2.359375 -1.1875q-1.09375 -0.703125 -1.828125 -1.703125q-0.734375 -1.0 -0.734375 -2.546875q0 -1.09375 0.4375 -1.96875q0.4375 -0.890625 1.234375 -1.5q0.8125 -0.609375 1.9375 -0.9375q1.140625 -0.34375 2.515625 -0.34375q1.609375 0 2.90625 0.234375q1.3125 0.21875 2.078125 0.59375l0.0625 -0.015625l0 0.046875l0.015625 0l-0.015625 0.078125l0 4.265625l-1.984375 0l0 -2.859375q-0.65625 -0.15625 -1.46875 -0.25q-0.796875 -0.109375 -1.703125 -0.109375q-0.875 0 -1.578125 0.21875q-0.703125 0.203125 -1.203125 0.5625q-0.484375 0.359375 -0.765625 0.84375q-0.265625 0.46875 -0.265625 1.0q0 1.046875 0.734375 1.75q0.734375 0.6875 1.828125 1.234375q1.09375 0.546875 2.375 1.078125q1.28125 0.53125 2.375 1.234375q1.09375 0.703125 1.828125 1.703125q0.734375 0.984375 0.734375 2.4375q0 1.203125 -0.453125 2.171875q-0.4375 0.953125 -1.25 1.65625q-0.8125 0.6875 -2.0 1.0625q-1.171875 0.359375 -2.671875 0.359375q-1.015625 0 -1.921875 -0.15625q-0.90625 -0.15625 -1.671875 -0.390625q-0.75 -0.25 -1.359375 -0.515625q-0.59375 -0.265625 -0.9375 -0.453125l0.03125 -0.078125l0 -4.3125l1.96875 0l0 2.953125zm24.259338 -16.015625l2.125 0l0 12.453125q0 1.671875 -0.4375 2.90625q-0.4375 1.21875 -1.234375 2.015625q-0.796875 0.78125 -1.953125 1.15625q-1.140625 0.359375 -2.53125 0.359375q-3.296875 0 -4.96875 -1.484375q-1.671875 -1.5 -1.671875 -4.53125l0 -12.875l2.21875 0l0 11.828125q0 1.421875 0.28125 2.390625q0.28125 0.96875 0.828125 1.578125q0.546875 0.59375 1.375 0.859375q0.84375 0.265625 1.96875 0.265625q2.15625 0 3.078125 -1.1875q0.921875 -1.1875 0.921875 -3.90625l0 -11.828125zm17.649933 4.265625q0 0.65625 -0.21875 1.359375q-0.21875 0.6875 -0.640625 1.296875q-0.421875 0.59375 -1.09375 1.046875q-0.671875 0.453125 -1.578125 0.6875l0 0.109375q0.8125 0.140625 1.53125 0.46875q0.734375 0.3125 1.296875 0.875q0.5625 0.546875 0.90625 1.359375q0.34375 0.796875 0.34375 1.890625q0 1.4375 -0.59375 2.484375q-0.59375 1.046875 -1.578125 1.71875q-0.96875 0.671875 -2.21875 1.0q-1.25 0.3125 -2.5625 0.3125q-0.453125 0 -1.0625 0q-0.609375 0 -1.28125 -0.046875q-0.671875 -0.03125 -1.34375 -0.109375q-0.65625 -0.0625 -1.15625 -0.203125l0 -18.359375q0.984375 -0.15625 2.28125 -0.265625q1.3125 -0.109375 2.859375 -0.109375q1.03125 0 2.109375 0.171875q1.09375 0.171875 1.96875 0.671875q0.875 0.484375 1.453125 1.375q0.578125 0.875 0.578125 2.265625zm-6.1875 12.6875q0.84375 0 1.640625 -0.203125q0.8125 -0.21875 1.421875 -0.640625q0.609375 -0.4375 0.96875 -1.078125q0.359375 -0.640625 0.359375 -1.515625q0 -1.09375 -0.4375 -1.765625q-0.4375 -0.671875 -1.140625 -1.03125q-0.703125 -0.375 -1.59375 -0.5q-0.875 -0.140625 -1.75 -0.140625l-2.328125 0l0 6.6875q0.1875 0.046875 0.53125 0.078125q0.34375 0.03125 0.75 0.0625q0.40625 0.015625 0.828125 0.03125q0.421875 0.015625 0.75 0.015625zm-1.46875 -8.75q0.453125 0 1.09375 -0.015625q0.640625 -0.03125 1.0625 -0.09375q0.640625 -0.203125 1.203125 -0.5q0.5625 -0.3125 1.0 -0.734375q0.4375 -0.4375 0.6875 -0.96875q0.25 -0.53125 0.25 -1.171875q0 -0.890625 -0.328125 -1.46875q-0.328125 -0.59375 -0.890625 -0.9375q-0.5625 -0.34375 -1.28125 -0.46875q-0.71875 -0.140625 -1.46875 -0.140625q-0.875 0 -1.609375 0.046875q-0.734375 0.03125 -1.109375 0.109375l0 6.34375l1.390625 0zm21.915588 -1.9375l0.265625 -2.53125l-0.140625 0l-1.28125 2.28125l-2.71875 4.5625l-0.65625 0l-2.859375 -4.578125l-1.21875 -2.265625l-0.140625 0l0.328125 2.5l0 12.421875l-2.171875 0l0 -18.65625l2.0625 0l4.421875 7.09375l0.046875 0l4.265625 -7.09375l2.0 0l0 18.65625l-2.203125 0l0 -12.390625zm5.399933 -6.265625l12.796875 0l0 1.96875l-5.296875 0l0 14.71875l5.296875 0l0 1.96875l-12.796875 0l0 -1.96875l5.28125 0l0 -14.71875l-5.28125 0l0 -1.96875zm15.462463 0l13.859375 0l0 4.875l-1.96875 0l0 -2.90625l-3.859375 0l0 14.71875l2.921875 0l0 1.96875l-8.078125 0l0 -1.96875l2.9375 0l0 -14.71875l-3.84375 0l0 2.90625l-1.96875 0l0 -4.875zm15.993683 0l13.859375 0l0 4.875l-1.96875 0l0 -2.90625l-3.859375 0l0 14.71875l2.921875 0l0 1.96875l-8.078125 0l0 -1.96875l2.9375 0l0 -14.71875l-3.84375 0l0 2.90625l-1.96875 0l0 -4.875zm17.790588 0l10.953125 0l0 1.96875l-8.75 0l0 6.109375l8.078125 0l0 1.96875l-8.078125 0l0 6.640625l8.875 0l0 1.96875l-11.078125 0l0 -18.65625zm15.259308 0q1.015625 -0.140625 2.125 -0.171875q1.109375 -0.046875 1.875 -0.046875q2.4375 0 4.0625 0.703125q1.640625 0.6875 2.640625 1.9375q1.0 1.234375 1.4375 2.96875q0.453125 1.71875 0.453125 3.796875q0 1.890625 -0.40625 3.640625q-0.390625 1.75 -1.390625 3.09375q-0.984375 1.34375 -2.65625 2.15625q-1.65625 0.8125 -4.15625 0.8125q-0.359375 0 -0.921875 -0.015625q-0.546875 0 -1.140625 -0.046875q-0.578125 -0.03125 -1.109375 -0.0625q-0.53125 -0.03125 -0.8125 -0.078125l0 -18.6875zm4.109375 1.75q-0.375 0 -0.953125 0.03125q-0.5625 0.03125 -0.9375 0.109375l0 14.921875q0.140625 0.03125 0.390625 0.046875q0.25 0.015625 0.515625 0.03125q0.265625 0 0.515625 0.015625q0.265625 0.015625 0.421875 0.015625q1.9375 0 3.15625 -0.640625q1.21875 -0.640625 1.875 -1.71875q0.671875 -1.078125 0.90625 -2.46875q0.25 -1.40625 0.25 -2.90625q0 -1.296875 -0.21875 -2.609375q-0.21875 -1.328125 -0.875 -2.390625q-0.640625 -1.078125 -1.859375 -1.75q-1.21875 -0.6875 -3.1875 -0.6875z" fill-rule="nonzero"/><path fill="#000000" fill-opacity="0.0" d="m370.6378 225.57742l0 87.33859" fill-rule="evenodd"/><path stroke="#000000" stroke-width="2.0" stroke-linejoin="round" stroke-linecap="butt" d="m370.6378 225.57742l0 80.484406" fill-rule="evenodd"/><path fill="#000000" stroke="#000000" stroke-width="2.0" stroke-linecap="butt" d="m370.6378 306.06183l-2.2491455 -2.2491455l2.2491455 6.179535l2.249176 -6.179535z" fill-rule="evenodd"/><path fill="#000000" fill-opacity="0.0" d="m264.9685 341.2469c-68.91339 0 -137.82678 197.57477 -137.82678 395.1496" fill-rule="evenodd"/><path stroke="#000000" stroke-width="2.0" stroke-linejoin="round" stroke-linecap="butt" d="m264.9685 341.2469c-68.91339 0 -137.82678 197.57477 -137.82678 395.1496" fill-rule="evenodd"/><path fill="#000000" fill-opacity="0.0" d="m476.30707 341.2469c68.91339 0 137.82678 197.57477 137.82678 395.1496" fill-rule="evenodd"/><path stroke="#000000" stroke-width="2.0" stroke-linejoin="round" stroke-linecap="butt" d="m476.30707 341.2469c68.91339 0 137.82678 197.57477 137.82678 395.1496" fill-rule="evenodd"/><path fill="#000000" fill-opacity="0.0" d="m615.1923 670.96326l120.8819 0l0 34.897644l-120.8819 0z" fill-rule="evenodd"/><path fill="#000000" d="m633.8642 688.2426l-0.578125 1.4375q-1.359375 -0.53125 -2.4375 -0.53125q-3.375 0 -3.375 3.765625q0 3.703125 3.28125 3.703125q1.4375 0 2.921875 -0.5625l0 1.453125q-1.21875 0.5625 -2.984375 0.5625q-2.34375 0 -3.640625 -1.328125q-1.296875 -1.328125 -1.296875 -3.8125q0 -2.546875 1.3125 -3.890625q1.328125 -1.34375 3.734375 -1.34375q1.609375 0 3.0625 0.546875zm9.679932 9.640625l-0.34375 -1.390625l-0.0625 0q-0.703125 0.890625 -1.453125 1.234375q-0.734375 0.34375 -1.890625 0.34375q-1.484375 0 -2.328125 -0.78125q-0.84375 -0.796875 -0.84375 -2.203125q0 -3.03125 4.640625 -3.171875l1.84375 -0.0625l0 -0.625q0 -2.15625 -2.21875 -2.15625q-1.34375 0 -2.984375 0.75l-0.578125 -1.25q1.78125 -0.875 3.484375 -0.875q2.078125 0 3.0 0.796875q0.921875 0.796875 0.921875 2.546875l0 6.84375l-1.1875 0zm-0.453125 -4.890625l-1.46875 0.0625q-1.78125 0.078125 -2.53125 0.5625q-0.75 0.484375 -0.75 1.484375q0 1.625 1.8125 1.625q1.34375 0 2.140625 -0.734375q0.796875 -0.75 0.796875 -2.09375l0 -0.90625zm11.570557 4.890625l0 -6.4375q0 -2.375 -2.171875 -2.375q-2.796875 0 -2.796875 3.625l0 5.1875l-1.65625 0l0 -10.0l1.34375 0l0.25 1.34375l0.09375 0q0.9375 -1.53125 3.046875 -1.53125q3.546875 0 3.546875 3.65625l0 6.53125l-1.65625 0zm12.789368 -9.640625l-0.578125 1.4375q-1.359375 -0.53125 -2.4375 -0.53125q-3.375 0 -3.375 3.765625q0 3.703125 3.28125 3.703125q1.4375 0 2.921875 -0.5625l0 1.453125q-1.21875 0.5625 -2.984375 0.5625q-2.34375 0 -3.640625 -1.328125q-1.296875 -1.328125 -1.296875 -3.8125q0 -2.546875 1.3125 -3.890625q1.328125 -1.34375 3.734375 -1.34375q1.609375 0 3.0625 0.546875zm11.508057 4.953125l-7.046875 0q0.0625 3.421875 3.125 3.421875q1.78125 0 3.375 -0.6875l0 1.453125q-1.515625 0.6875 -3.3125 0.6875q-2.234375 0 -3.578125 -1.359375q-1.328125 -1.375 -1.328125 -3.75q0 -2.421875 1.234375 -3.84375q1.234375 -1.421875 3.296875 -1.421875q1.921875 0 3.078125 1.21875q1.15625 1.21875 1.15625 3.25l0 1.03125zm-7.015625 -1.34375l5.21875 0q0 -2.78125 -2.46875 -2.78125q-2.515625 0 -2.75 2.78125zm13.070557 -6.84375l-2.4375 -0.1875l0 -1.109375l4.109375 0l0 12.875l3.203125 0.171875l0 1.125l-8.0 0l0 -1.125l3.125 -0.171875l0 -11.578125zm13.086182 -0.4375l1.75 0q-4.078125 3.421875 -4.078125 8.125q0 4.75 4.0625 8.140625l-1.734375 0q-4.046875 -3.21875 -4.046875 -8.125q0 -4.84375 4.046875 -8.140625zm8.914368 16.265625l-1.734375 0q4.0625 -3.375 4.0625 -8.140625q0 -4.71875 -4.078125 -8.125l1.75 0q4.0625 3.28125 4.0625 8.140625q0 4.921875 -4.0625 8.125z" fill-rule="nonzero"/><path fill="#000000" fill-opacity="0.0" d="m371.3021 670.96063l120.88187 0l0 34.897644l-120.88187 0z" fill-rule="evenodd"/><path fill="#000000" d="m387.70834 697.8806l-1.1875 -5.421875l-0.625 -3.015625l-0.0625 0l-0.578125 3.046875l-1.234375 5.390625l-1.71875 0l-2.03125 -10.0l1.46875 0l0.890625 4.9375q0.3125 1.703125 0.515625 3.59375l0.0625 0q0.28125 -1.6875 0.625 -3.265625l1.203125 -5.265625l1.765625 0l1.15625 5.265625q0.390625 1.78125 0.609375 3.265625l0.046875 0q0.28125 -2.21875 0.546875 -3.59375l0.9375 -4.9375l1.4375 0l-2.046875 10.0l-1.78125 0zm11.945557 0l-0.34375 -1.390625l-0.0625 0q-0.703125 0.890625 -1.453125 1.234375q-0.734375 0.34375 -1.890625 0.34375q-1.484375 0 -2.328125 -0.78125q-0.84375 -0.796875 -0.84375 -2.203125q0 -3.03125 4.640625 -3.171875l1.84375 -0.0625l0 -0.625q0 -2.15625 -2.21875 -2.15625q-1.34375 0 -2.984375 0.75l-0.578125 -1.25q1.78125 -0.875 3.484375 -0.875q2.078125 0 3.0 0.796875q0.921875 0.796875 0.921875 2.546875l0 6.84375l-1.1875 0zm-0.453125 -4.890625l-1.46875 0.0625q-1.78125 0.078125 -2.53125 0.5625q-0.75 0.484375 -0.75 1.484375q0 1.625 1.8125 1.625q1.34375 0 2.140625 -0.734375q0.796875 -0.75 0.796875 -2.09375l0 -0.90625zm9.258087 -9.234375q0.96875 0 0.96875 1.046875q0 0.53125 -0.296875 0.796875q-0.28125 0.25 -0.671875 0.25q-0.96875 0 -0.96875 -1.046875q0 -1.046875 0.96875 -1.046875zm-0.84375 5.4375l-2.4375 -0.1875l0 -1.125l4.109375 0l0 8.703125l3.203125 0.171875l0 1.125l-8.0 0l0 -1.125l3.125 -0.171875l0 -7.390625zm15.570557 7.328125l0 1.25q-1.1875 0.296875 -2.296875 0.296875q-3.296875 0 -3.296875 -3.140625l0 -5.796875l-2.4375 0l0 -0.859375l2.4375 -0.453125l0.703125 -2.609375l0.953125 0l0 2.671875l3.984375 0l0 1.25l-3.984375 0l0 5.796875q0 1.78125 1.75 1.78125q0.84375 0 2.1875 -0.1875zm8.633087 -11.953125l1.75 0q-4.078125 3.421875 -4.078125 8.125q0 4.75 4.0625 8.140625l-1.734375 0q-4.046875 -3.21875 -4.046875 -8.125q0 -4.84375 4.046875 -8.140625zm8.914307 16.265625l-1.734375 0q4.0625 -3.375 4.0625 -8.140625q0 -4.71875 -4.078125 -8.125l1.75 0q4.0625 3.28125 4.0625 8.140625q0 4.921875 -4.0625 8.125z" fill-rule="nonzero"/></g></svg>