<svg version="1.1" viewBox="0.0 0.0 770.3333333333334 1063.0" fill="none" stroke="none" stroke-linecap="square" stroke-miterlimit="10" xmlns:xlink="http://www.w3.org/1999/xlink" xmlns="http://www.w3.org/2000/svg"><clipPath id="p.0"><path d="m0 0l770.3333 0l0 1063.0l-770.3333 0l0 -1063.0z" clip-rule="nonzero"/></clipPath><g clip-path="url(#p.0)"><path fill="#000000" fill-opacity="0.0" d="m0 0l770.3333 0l0 1063.0l-770.3333 0z" fill-rule="evenodd"/><path fill="#000000" fill-opacity="0.0" d="m142.6683 723.33856l0 0" fill-rule="evenodd"/><path stroke="#000000" stroke-width="2.0" stroke-linejoin="round" stroke-linecap="butt" d="m142.6683 723.33856l0 0" fill-rule="evenodd"/><path fill="#d0e0e3" d="m416.21783 464.20923l0 0c0 -5.2156677 4.228119 -9.443756 9.443787 -9.443756l287.3172 0c2.5046387 0 4.9066772 0.9949646 6.6777344 2.7659912c1.7710571 1.7710571 2.7659912 4.173126 2.7659912 6.677765l0 37.773895c0 5.215637 -4.2280884 9.443756 -9.443726 9.443756l-287.3172 0c-5.2156677 0 -9.443787 -4.228119 -9.443787 -9.443756z" fill-rule="evenodd"/><path stroke="#000000" stroke-width="1.0" stroke-linejoin="round" stroke-linecap="butt" d="m416.21783 464.20923l0 0c0 -5.2156677 4.228119 -9.443756 9.443787 -9.443756l287.3172 0c2.5046387 0 4.9066772 0.9949646 6.6777344 2.7659912c1.7710571 1.7710571 2.7659912 4.173126 2.7659912 6.677765l0 37.773895c0 5.215637 -4.2280884 9.443756 -9.443726 9.443756l-287.3172 0c-5.2156677 0 -9.443787 -4.228119 -9.443787 -9.443756z" fill-rule="evenodd"/><path fill="#000000" d="m460.0362 474.22742q1.0 -0.25 2.171875 -0.328125q1.1875 -0.078125 2.328125 -0.078125q1.21875 0 2.484375 0.25q1.265625 0.234375 2.3125 0.875q1.046875 0.640625 1.6875 1.765625q0.65625 1.109375 0.65625 2.84375q0 1.703125 -0.609375 2.875q-0.609375 1.171875 -1.625 1.90625q-1.015625 0.734375 -2.328125 1.0625q-1.296875 0.3125 -2.6875 0.3125q-0.125 0 -0.4375 0q-0.3125 0 -0.640625 -0.015625q-0.328125 -0.015625 -0.65625 -0.03125q-0.3125 -0.03125 -0.453125 -0.0625l0 7.09375l-2.203125 0l0 -18.46875zm4.546875 1.515625q-0.6875 0 -1.328125 0.03125q-0.640625 0.015625 -1.015625 0.125l0 7.734375q0.140625 0.046875 0.421875 0.0625q0.296875 0.015625 0.609375 0.03125q0.328125 0.015625 0.625 0.015625q0.296875 0 0.421875 0q0.90625 0 1.796875 -0.171875q0.90625 -0.171875 1.625 -0.625q0.71875 -0.453125 1.15625 -1.28125q0.4375 -0.828125 0.4375 -2.109375q0 -1.09375 -0.421875 -1.828125q-0.40625 -0.734375 -1.09375 -1.171875q-0.671875 -0.4375 -1.53125 -0.625q-0.84375 -0.1875 -1.703125 -0.1875zm11.634338 -1.703125l10.953125 0l0 1.96875l-8.75 0l0 6.109375l8.078125 0l0 1.96875l-8.078125 0l0 6.640625l8.875 0l0 1.96875l-11.078125 0l0 -18.65625zm18.353058 6.984375l-1.4375 -2.703125l-0.109375 0l0.265625 2.703125l0 11.671875l-2.078125 0l0 -18.65625l1.453125 0l7.515625 11.625l1.375 2.546875l0.140625 0l-0.296875 -2.546875l0 -11.625l2.078125 0l0 18.65625l-1.4375 0l-7.46875 -11.671875zm12.899963 -6.984375q1.015625 -0.140625 2.125 -0.171875q1.109375 -0.046875 1.875 -0.046875q2.4374695 0 4.0624695 0.703125q1.640625 0.6875 2.640625 1.9375q1.0 1.234375 1.4375 2.96875q0.453125 1.71875 0.453125 3.796875q0 1.890625 -0.40625 3.640625q-0.390625 1.75 -1.390625 3.09375q-0.984375 1.34375 -2.65625 2.15625q-1.65625 0.8125 -4.1562195 0.8125q-0.359375 0 -0.921875 -0.015625q-0.546875 0 -1.140625 -0.046875q-0.578125 -0.03125 -1.109375 -0.0625q-0.53125 -0.03125 -0.8125 -0.078125l0 -18.6875zm4.109375 1.75q-0.375 0 -0.953125 0.03125q-0.5625 0.03125 -0.9375 0.109375l0 14.921875q0.140625 0.03125 0.390625 0.046875q0.25 0.015625 0.515625 0.03125q0.265625 0 0.515625 0.015625q0.265625 0.015625 0.421875 0.015625q1.9374695 0 3.1562195 -0.640625q1.21875 -0.640625 1.875 -1.71875q0.671875 -1.078125 0.90625 -2.46875q0.25 -1.40625 0.25 -2.90625q0 -1.296875 -0.21875 -2.609375q-0.21875 -1.328125 -0.875 -2.390625q-0.640625 -1.078125 -1.859375 -1.75q-1.21875 -0.6875 -3.1874695 -0.6875zm11.353058 -1.75l12.796875 0l0 1.96875l-5.296875 0l0 14.71875l5.296875 0l0 1.96875l-12.796875 0l0 -1.96875l5.28125 0l0 -14.71875l-5.28125 0l0 -1.96875zm19.618713 6.984375l-1.4375 -2.703125l-0.109375 0l0.265625 2.703125l0 11.671875l-2.078125 0l0 -18.65625l1.453125 0l7.515625 11.625l1.375 2.546875l0.140625 0l-0.296875 -2.546875l0 -11.625l2.078125 0l0 18.65625l-1.4375 0l-7.46875 -11.671875zm22.431213 -5.140625q-0.90625 -0.1875 -2.21875 -0.1875q-1.125 0 -2.15625 0.390625q-1.015625 0.375 -1.8125 1.28125q-0.78125 0.90625 -1.25 2.375q-0.453125 1.46875 -0.453125 3.625q0 3.9375 1.4375 5.8125q1.453125 1.859375 4.203125 1.859375q1.703125 0 2.90625 -0.65625l0 -5.203125l-3.828125 0l0 -1.78125l5.71875 0l0 8.203125q-0.421875 0.328125 -1.03125 0.59375q-0.59375 0.265625 -1.28125 0.453125q-0.671875 0.1875 -1.40625 0.265625q-0.734375 0.09375 -1.421875 0.09375q-1.78125 0 -3.203125 -0.5625q-1.40625 -0.578125 -2.390625 -1.765625q-0.984375 -1.1875 -1.53125 -3.0q-0.53125 -1.828125 -0.53125 -4.3125q0 -2.59375 0.671875 -4.421875q0.671875 -1.84375 1.765625 -3.0q1.09375 -1.15625 2.5 -1.6875q1.40625 -0.546875 2.90625 -0.546875q1.59375 0 2.625 0.1875q1.046875 0.171875 1.765625 0.453125l-0.015625 0.109375l0 4.453125l-1.96875 0l0 -3.03125zm5.8374023 20.40625l13.0 0l0 1.875l-13.0 0l0 -1.875zm25.978088 -8.765625l-7.171875 0l-1.703125 5.171875l-2.1875 0l6.234375 -18.65625l2.625 0l6.28125 18.65625l-2.3125 0l-1.765625 -5.171875zm-6.46875 -1.921875l5.859375 0l-2.75 -8.765625l-0.3125 0l-2.796875 8.765625zm23.181213 -9.546875q-0.453125 -0.171875 -1.0 -0.265625q-0.546875 -0.09375 -1.3125 -0.09375q-1.09375 0 -2.15625 0.40625q-1.046875 0.390625 -1.859375 1.296875q-0.8125 0.90625 -1.3125 2.375q-0.484375 1.453125 -0.484375 3.59375q0 1.921875 0.4375 3.359375q0.4375 1.4375 1.21875 2.40625q0.796875 0.953125 1.90625 1.4375q1.109375 0.46875 2.46875 0.46875q0.6875 0 1.28125 -0.109375q0.609375 -0.125 1.109375 -0.34375l0 -2.65625l1.96875 0l0 3.59375l0.03125 0.046875q-0.796875 0.625 -2.03125 1.03125q-1.21875 0.40625 -2.984375 0.40625q-1.671875 0 -3.109375 -0.5625q-1.421875 -0.578125 -2.46875 -1.75q-1.03125 -1.171875 -1.609375 -3.0q-0.5625 -1.828125 -0.5625 -4.328125q0 -2.609375 0.640625 -4.4375q0.640625 -1.828125 1.734375 -2.984375q1.09375 -1.15625 2.546875 -1.6875q1.453125 -0.546875 3.09375 -0.546875q0.90625 0 1.578125 0.078125q0.671875 0.0625 1.171875 0.1875q0.515625 0.109375 0.890625 0.296875q0.390625 0.1875 0.765625 0.421875l0.03125 0l0 4.21875l-1.984375 0l0 -2.859375zm4.8530884 -2.015625l13.859375 0l0 4.875l-1.96875 0l0 -2.90625l-3.859375 0l0 14.71875l2.921875 0l0 1.96875l-8.078125 0l0 -1.96875l2.9375 0l0 -14.71875l-3.84375 0l0 2.90625l-1.96875 0l0 -4.875zm16.524902 0l12.796875 0l0 1.96875l-5.296875 0l0 14.71875l5.296875 0l0 1.96875l-12.796875 0l0 -1.96875l5.28125 0l0 -14.71875l-5.28125 0l0 -1.96875zm22.446838 15.90625l0.296875 0l5.0625 -15.90625l2.21875 0l-6.265625 18.65625l-2.59375 0l-6.390625 -18.65625l2.421875 0l5.25 15.90625zm10.806213 -15.90625l10.953125 0l0 1.96875l-8.75 0l0 6.109375l8.078125 0l0 1.96875l-8.078125 0l0 6.640625l8.875 0l0 1.96875l-11.078125 0l0 -18.65625z" fill-rule="nonzero"/><path fill="#c9daf8" d="m416.21783 582.10254l0 0c0 -5.215637 4.228119 -9.443726 9.443787 -9.443726l287.3172 0c2.5046387 0 4.9066772 0.9949341 6.6777344 2.7659912c1.7710571 1.7710571 2.7659912 4.1730957 2.7659912 6.6777344l0 37.773926c0 5.215637 -4.2280884 9.443726 -9.443726 9.443726l-287.3172 0c-5.2156677 0 -9.443787 -4.2280884 -9.443787 -9.443726z" fill-rule="evenodd"/><path stroke="#000000" stroke-width="1.0" stroke-linejoin="round" stroke-linecap="butt" d="m416.21783 582.10254l0 0c0 -5.215637 4.228119 -9.443726 9.443787 -9.443726l287.3172 0c2.5046387 0 4.9066772 0.9949341 6.6777344 2.7659912c1.7710571 1.7710571 2.7659912 4.1730957 2.7659912 6.6777344l0 37.773926c0 5.215637 -4.2280884 9.443726 -9.443726 9.443726l-287.3172 0c-5.2156677 0 -9.443787 -4.2280884 -9.443787 -9.443726z" fill-rule="evenodd"/><path fill="#000000" d="m516.01416 592.1207q1.0 -0.1875 2.3125 -0.296875q1.328125 -0.109375 2.421875 -0.109375q1.234375 0 2.328125 0.265625q1.109375 0.265625 1.953125 0.890625q0.84375 0.609375 1.34375 1.59375q0.515625 0.984375 0.515625 2.390625q0 1.09375 -0.359375 1.9375q-0.359375 0.84375 -0.890625 1.453125q-0.515625 0.59375 -1.078125 0.96875q-0.5625 0.359375 -0.953125 0.53125l4.921875 8.84375l-2.578125 0l-4.40625 -8.203125l-3.328125 0l0 8.203125l-2.203125 0l0 -18.46875zm4.796875 1.515625q-0.34375 0 -0.71875 0q-0.375 0 -0.734375 0.03125q-0.34375 0.015625 -0.65625 0.046875q-0.296875 0.03125 -0.484375 0.078125l0 6.875l2.078125 0q1.84375 0 3.046875 -0.90625q1.203125 -0.90625 1.203125 -2.8125q0 -1.453125 -1.0 -2.375q-0.984375 -0.9375 -2.734375 -0.9375zm11.384277 -1.703125l10.953125 0l0 1.96875l-8.75 0l0 6.109375l8.078125 0l0 1.96875l-8.078125 0l0 6.640625l8.875 0l0 1.96875l-11.078125 0l0 -18.65625zm17.134338 16.015625q0.796875 0.421875 1.796875 0.703125q1.0 0.28125 2.015625 0.28125q0.875 0 1.640625 -0.171875q0.78125 -0.171875 1.34375 -0.546875q0.578125 -0.390625 0.90625 -0.96875q0.34375 -0.59375 0.34375 -1.40625q0 -1.09375 -0.734375 -1.78125q-0.734375 -0.6875 -1.828125 -1.21875q-1.09375 -0.546875 -2.375 -1.046875q-1.265625 -0.5 -2.359375 -1.1875q-1.09375 -0.703125 -1.828125 -1.703125q-0.734375 -1.0 -0.734375 -2.546875q0 -1.09375 0.4375 -1.96875q0.4375 -0.890625 1.234375 -1.5q0.8125 -0.609375 1.9375 -0.9375q1.140625 -0.34375 2.515625 -0.34375q1.609375 0 2.90625 0.234375q1.3125 0.21875 2.078125 0.59375l0.0625 -0.015625l0 0.046875l0.015625 0l-0.015625 0.078125l0 4.265625l-1.984375 0l0 -2.859375q-0.65625 -0.15625 -1.46875 -0.25q-0.796875 -0.109375 -1.703125 -0.109375q-0.875 0 -1.578125 0.21875q-0.703125 0.203125 -1.203125 0.5625q-0.484375 0.359375 -0.765625 0.84375q-0.265625 0.46875 -0.265625 1.0q0 1.046875 0.734375 1.75q0.734375 0.6875 1.828125 1.234375q1.09375 0.546875 2.375 1.078125q1.28125 0.53125 2.375 1.234375q1.09375 0.703125 1.828125 1.703125q0.734375 0.984375 0.734375 2.4375q0 1.203125 -0.453125 2.171875q-0.4375 0.953125 -1.25 1.65625q-0.8125 0.6875 -2.0 1.0625q-1.171875 0.359375 -2.671875 0.359375q-1.015625 0 -1.921875 -0.15625q-0.90625 -0.15625 -1.671875 -0.390625q-0.75 -0.25 -1.359375 -0.515625q-0.59375 -0.265625 -0.9375 -0.453125l0.03125 -0.078125l0 -4.3125l1.96875 0l0 2.953125zm24.259338 -16.015625l2.125 0l0 12.453125q0 1.671875 -0.4375 2.90625q-0.4375 1.21875 -1.234375 2.015625q-0.796875 0.78125 -1.953125 1.15625q-1.140625 0.359375 -2.53125 0.359375q-3.296875 0 -4.96875 -1.484375q-1.671875 -1.5 -1.671875 -4.53125l0 -12.875l2.21875 0l0 11.828125q0 1.421875 0.28125 2.390625q0.28125 0.96875 0.828125 1.578125q0.546875 0.59375 1.375 0.859375q0.84375 0.265625 1.96875 0.265625q2.15625 0 3.078125 -1.1875q0.921875 -1.1875 0.921875 -3.90625l0 -11.828125zm15.915588 6.265625l0.265625 -2.53125l-0.140625 0l-1.28125 2.28125l-2.71875 4.5625l-0.65625 0l-2.859375 -4.578125l-1.21875 -2.265625l-0.140625 0l0.328125 2.5l0 12.421875l-2.171875 0l0 -18.65625l2.0625 0l4.421875 7.09375l0.046875 0l4.265625 -7.09375l2.0 0l0 18.65625l-2.203125 0l0 -12.390625zm6.6655884 -6.265625l10.953125 0l0 1.96875l-8.75 0l0 6.109375l8.078125 0l0 1.96875l-8.078125 0l0 6.640625l8.875 0l0 1.96875l-11.078125 0l0 -18.65625zm15.259277 0q1.015625 -0.140625 2.125 -0.171875q1.109375 -0.046875 1.875 -0.046875q2.4375 0 4.0625 0.703125q1.640625 0.6875 2.640625 1.9375q1.0 1.234375 1.4375 2.96875q0.453125 1.71875 0.453125 3.796875q0 1.890625 -0.40625 3.640625q-0.390625 1.75 -1.390625 3.09375q-0.984375 1.34375 -2.65625 2.15625q-1.65625 0.8125 -4.15625 0.8125q-0.359375 0 -0.921875 -0.015625q-0.546875 0 -1.140625 -0.046875q-0.578125 -0.03125 -1.109375 -0.0625q-0.53125 -0.03125 -0.8125 -0.078125l0 -18.6875zm4.109375 1.75q-0.375 0 -0.953125 0.03125q-0.5625 0.03125 -0.9375 0.109375l0 14.921875q0.140625 0.03125 0.390625 0.046875q0.25 0.015625 0.515625 0.03125q0.265625 0 0.515625 0.015625q0.265625 0.015625 0.421875 0.015625q1.9375 0 3.15625 -0.640625q1.21875 -0.640625 1.875 -1.71875q0.671875 -1.078125 0.90625 -2.46875q0.25 -1.40625 0.25 -2.90625q0 -1.296875 -0.21875 -2.609375q-0.21875 -1.328125 -0.875 -2.390625q-0.640625 -1.078125 -1.859375 -1.75q-1.21875 -0.6875 -3.1875 -0.6875z" fill-rule="nonzero"/><path fill="#ea9999" d="m37.000366 756.0133l0 0c0 -5.215637 4.228115 -9.443726 9.44376 -9.443726l192.45107 0c2.5046387 0 4.906708 0.9949341 6.6777496 2.7659912c1.7710419 1.7710571 2.7660065 4.1730957 2.7660065 6.6777344l0 37.773926c0 5.215637 -4.2281036 9.443726 -9.443756 9.443726l-192.45107 0c-5.215645 0 -9.44376 -4.2280884 -9.44376 -9.443726z" fill-rule="evenodd"/><path stroke="#000000" stroke-width="1.0" stroke-linejoin="round" stroke-linecap="butt" d="m37.000366 756.0133l0 0c0 -5.215637 4.228115 -9.443726 9.44376 -9.443726l192.45107 0c2.5046387 0 4.906708 0.9949341 6.6777496 2.7659912c1.7710419 1.7710571 2.7660065 4.1730957 2.7660065 6.6777344l0 37.773926c0 5.215637 -4.2281036 9.443726 -9.443756 9.443726l-192.45107 0c-5.215645 0 -9.44376 -4.2280884 -9.44376 -9.443726z" fill-rule="evenodd"/><path fill="#000000" d="m97.81357 765.844l10.6875 0l0 1.96875l-8.484375 0l0 6.375l7.953125 0l0 1.96875l-7.953125 0l0 8.34375l-2.203125 0l0 -18.65625zm24.353073 13.484375l-7.171875 0l-1.703125 5.171875l-2.1875 0l6.234375 -18.65625l2.625 0l6.28125 18.65625l-2.3125 0l-1.765625 -5.171875zm-6.46875 -1.921875l5.859375 0l-2.75 -8.765625l-0.3125 0l-2.796875 8.765625zm12.571823 -11.5625l12.796875 0l0 1.96875l-5.296875 0l0 14.71875l5.296875 0l0 1.96875l-12.796875 0l0 -1.96875l5.28125 0l0 -14.71875l-5.28125 0l0 -1.96875zm16.806198 0l2.203125 0l0 16.6875l7.546875 0l0 -4.640625l1.96875 0l0 6.609375l-11.71875 0l0 -18.65625zm16.446823 0l10.953125 0l0 1.96875l-8.75 0l0 6.109375l8.078125 0l0 1.96875l-8.078125 0l0 6.640625l8.875 0l0 1.96875l-11.078125 0l0 -18.65625zm15.259338 0q1.015625 -0.140625 2.125 -0.171875q1.109375 -0.046875 1.875 -0.046875q2.4375 0 4.0625 0.703125q1.640625 0.6875 2.640625 1.9375q1.0 1.234375 1.4375 2.96875q0.453125 1.71875 0.453125 3.796875q0 1.890625 -0.40625 3.640625q-0.390625 1.75 -1.390625 3.09375q-0.984375 1.34375 -2.65625 2.15625q-1.65625 0.8125 -4.15625 0.8125q-0.359375 0 -0.921875 -0.015625q-0.546875 0 -1.140625 -0.046875q-0.578125 -0.03125 -1.109375 -0.0625q-0.53125 -0.03125 -0.8125 -0.078125l0 -18.6875zm4.109375 1.75q-0.375 0 -0.953125 0.03125q-0.5625 0.03125 -0.9375 0.109375l0 14.921875q0.140625 0.03125 0.390625 0.046875q0.25 0.015625 0.515625 0.03125q0.265625 0 0.515625 0.015625q0.265625 0.015625 0.421875 0.015625q1.9375 0 3.15625 -0.640625q1.21875 -0.640625 1.875 -1.71875q0.671875 -1.078125 0.90625 -2.46875q0.25 -1.40625 0.25 -2.90625q0 -1.296875 -0.21875 -2.609375q-0.21875 -1.328125 -0.875 -2.390625q-0.640625 -1.078125 -1.859375 -1.75q-1.21875 -0.6875 -3.1875 -0.6875z" fill-rule="nonzero"/><path fill="#000000" fill-opacity="0.0" d="m520.96326 511.53186l0 61.228333" fill-rule="evenodd"/><path stroke="#000000" stroke-width="2.0" stroke-linejoin="round" stroke-linecap="butt" d="m520.96326 511.53186l0 54.374207" fill-rule="evenodd"/><path fill="#000000" stroke="#000000" stroke-width="2.0" stroke-linecap="butt" d="m520.96326 565.90607l-2.2491455 -2.2492065l2.2491455 6.1795654l2.2491455 -6.1795654z" fill-rule="evenodd"/><path fill="#ffe599" d="m523.45087 756.0133l0 0c0 -5.215637 4.2281494 -9.443726 9.443787 -9.443726l192.45105 0c2.5046387 0 4.9067383 0.9949341 6.6777344 2.7659912c1.7710571 1.7710571 2.7660522 4.1730957 2.7660522 6.6777344l0 37.773926c0 5.215637 -4.2281494 9.443726 -9.443787 9.443726l-192.45105 0c-5.215637 0 -9.443787 -4.2280884 -9.443787 -9.443726z" fill-rule="evenodd"/><path stroke="#000000" stroke-width="1.0" stroke-linejoin="round" stroke-linecap="butt" d="m523.45087 756.0133l0 0c0 -5.215637 4.2281494 -9.443726 9.443787 -9.443726l192.45105 0c2.5046387 0 4.9067383 0.9949341 6.6777344 2.7659912c1.7710571 1.7710571 2.7660522 4.1730957 2.7660522 6.6777344l0 37.773926c0 5.215637 -4.2281494 9.443726 -9.443787 9.443726l-192.45105 0c-5.215637 0 -9.443787 -4.2280884 -9.443787 -9.443726z" fill-rule="evenodd"/><path fill="#000000" d="m577.3485 767.8596q-0.453125 -0.171875 -1.0 -0.265625q-0.546875 -0.09375 -1.3125 -0.09375q-1.09375 0 -2.15625 0.40625q-1.046875 0.390625 -1.859375 1.296875q-0.8125 0.90625 -1.3125 2.375q-0.484375 1.453125 -0.484375 3.59375q0 1.921875 0.4375 3.359375q0.4375 1.4375 1.21875 2.40625q0.796875 0.953125 1.90625 1.4375q1.109375 0.46875 2.46875 0.46875q0.6875 0 1.28125 -0.109375q0.609375 -0.125 1.109375 -0.34375l0 -2.65625l1.96875 0l0 3.59375l0.03125 0.046875q-0.796875 0.625 -2.03125 1.03125q-1.21875 0.40625 -2.984375 0.40625q-1.671875 0 -3.109375 -0.5625q-1.421875 -0.578125 -2.46875 -1.75q-1.03125 -1.171875 -1.609375 -3.0q-0.5625 -1.828125 -0.5625 -4.328125q0 -2.609375 0.640625 -4.4375q0.640625 -1.828125 1.734375 -2.984375q1.09375 -1.15625 2.546875 -1.6875q1.453125 -0.546875 3.09375 -0.546875q0.90625 0 1.578125 0.078125q0.671875 0.0625 1.171875 0.1875q0.515625 0.109375 0.890625 0.296875q0.390625 0.1875 0.765625 0.421875l0.03125 0l0 4.21875l-1.984375 0l0 -2.859375zm15.274963 11.46875l-7.171875 0l-1.703125 5.171875l-2.1875 0l6.234375 -18.65625l2.625 0l6.28125 18.65625l-2.3125 0l-1.765625 -5.171875zm-6.46875 -1.921875l5.859375 0l-2.75 -8.765625l-0.3125 0l-2.796875 8.765625zm16.196838 -4.578125l-1.4375 -2.703125l-0.109375 0l0.265625 2.703125l0 11.671875l-2.078125 0l0 -18.65625l1.453125 0l7.515625 11.625l1.375 2.546875l0.140625 0l-0.296875 -2.546875l0 -11.625l2.078125 0l0 18.65625l-1.4375 0l-7.46875 -11.671875zm22.978027 -4.96875q-0.453125 -0.171875 -1.0 -0.265625q-0.546875 -0.09375 -1.3125 -0.09375q-1.09375 0 -2.15625 0.40625q-1.046875 0.390625 -1.859375 1.296875q-0.8125 0.90625 -1.3125 2.375q-0.484375 1.453125 -0.484375 3.59375q0 1.921875 0.4375 3.359375q0.4375 1.4375 1.21875 2.40625q0.796875 0.953125 1.90625 1.4375q1.109375 0.46875 2.46875 0.46875q0.6875 0 1.28125 -0.109375q0.609375 -0.125 1.109375 -0.34375l0 -2.65625l1.96875 0l0 3.59375l0.03125 0.046875q-0.796875 0.625 -2.03125 1.03125q-1.21875 0.40625 -2.984375 0.40625q-1.671875 0 -3.109375 -0.5625q-1.421875 -0.578125 -2.46875 -1.75q-1.03125 -1.171875 -1.609375 -3.0q-0.5625 -1.828125 -0.5625 -4.328125q0 -2.609375 0.640625 -4.4375q0.640625 -1.828125 1.734375 -2.984375q1.09375 -1.15625 2.546875 -1.6875q1.453125 -0.546875 3.09375 -0.546875q0.90625 0 1.578125 0.078125q0.671875 0.0625 1.171875 0.1875q0.515625 0.109375 0.890625 0.296875q0.390625 0.1875 0.765625 0.421875l0.03125 0l0 4.21875l-1.984375 0l0 -2.859375zm6.6499634 -2.015625l10.953125 0l0 1.96875l-8.75 0l0 6.109375l8.078125 0l0 1.96875l-8.078125 0l0 6.640625l8.875 0l0 1.96875l-11.078125 0l0 -18.65625zm15.540588 0l2.203125 0l0 16.6875l7.546875 0l0 -4.640625l1.96875 0l0 6.609375l-11.71875 0l0 -18.65625zm16.446838 0l10.953125 0l0 1.96875l-8.75 0l0 6.109375l8.078125 0l0 1.96875l-8.078125 0l0 6.640625l8.875 0l0 1.96875l-11.078125 0l0 -18.65625zm15.259277 0q1.015625 -0.140625 2.125 -0.171875q1.109375 -0.046875 1.875 -0.046875q2.4375 0 4.0625 0.703125q1.640625 0.6875 2.640625 1.9375q1.0 1.234375 1.4375 2.96875q0.453125 1.71875 0.453125 3.796875q0 1.890625 -0.40625 3.640625q-0.390625 1.75 -1.390625 3.09375q-0.984375 1.34375 -2.65625 2.15625q-1.65625 0.8125 -4.15625 0.8125q-0.359375 0 -0.921875 -0.015625q-0.546875 0 -1.140625 -0.046875q-0.578125 -0.03125 -1.109375 -0.0625q-0.53125 -0.03125 -0.8125 -0.078125l0 -18.6875zm4.109375 1.75q-0.375 0 -0.953125 0.03125q-0.5625 0.03125 -0.9375 0.109375l0 14.921875q0.140625 0.03125 0.390625 0.046875q0.25 0.015625 0.515625 0.03125q0.265625 0 0.515625 0.015625q0.265625 0.015625 0.421875 0.015625q1.9375 0 3.15625 -0.640625q1.21875 -0.640625 1.875 -1.71875q0.671875 -1.078125 0.90625 -2.46875q0.25 -1.40625 0.25 -2.90625q0 -1.296875 -0.21875 -2.609375q-0.21875 -1.328125 -0.875 -2.390625q-0.640625 -1.078125 -1.859375 -1.75q-1.21875 -0.6875 -3.1875 -0.6875z" fill-rule="nonzero"/><path fill="#b6d7a8" d="m280.22568 756.0133l0 0c0 -5.215637 4.228119 -9.443726 9.443756 -9.443726l192.45108 0c2.5046387 0 4.9066772 0.9949341 6.6777344 2.7659912c1.7710571 1.7710571 2.7660217 4.1730957 2.7660217 6.6777344l0 37.773926c0 5.215637 -4.228119 9.443726 -9.443756 9.443726l-192.45108 0c-5.215637 0 -9.443756 -4.2280884 -9.443756 -9.443726z" fill-rule="evenodd"/><path stroke="#000000" stroke-width="1.0" stroke-linejoin="round" stroke-linecap="butt" d="m280.22568 756.0133l0 0c0 -5.215637 4.228119 -9.443726 9.443756 -9.443726l192.45108 0c2.5046387 0 4.9066772 0.9949341 6.6777344 2.7659912c1.7710571 1.7710571 2.7660217 4.1730957 2.7660217 6.6777344l0 37.773926c0 5.215637 -4.228119 9.443726 -9.443756 9.443726l-192.45108 0c-5.215637 0 -9.443756 -4.2280884 -9.443756 -9.443726z" fill-rule="evenodd"/><path fill="#000000" d="m356.0326 765.844q1.015625 -0.140625 2.125 -0.171875q1.109375 -0.046875 1.875 -0.046875q2.4375 0 4.0625 0.703125q1.640625 0.6875 2.640625 1.9375q1.0 1.234375 1.4375 2.96875q0.453125 1.71875 0.453125 3.796875q0 1.890625 -0.40625 3.640625q-0.390625 1.75 -1.390625 3.09375q-0.984375 1.34375 -2.65625 2.15625q-1.65625 0.8125 -4.15625 0.8125q-0.359375 0 -0.921875 -0.015625q-0.546875 0 -1.140625 -0.046875q-0.578125 -0.03125 -1.109375 -0.0625q-0.53125 -0.03125 -0.8125 -0.078125l0 -18.6875zm4.109375 1.75q-0.375 0 -0.953125 0.03125q-0.5625 0.03125 -0.9375 0.109375l0 14.921875q0.140625 0.03125 0.390625 0.046875q0.25 0.015625 0.515625 0.03125q0.265625 0 0.515625 0.015625q0.265625 0.015625 0.421875 0.015625q1.9375 0 3.15625 -0.640625q1.21875 -0.640625 1.875 -1.71875q0.671875 -1.078125 0.90625 -2.46875q0.25 -1.40625 0.25 -2.90625q0 -1.296875 -0.21875 -2.609375q-0.21875 -1.328125 -0.875 -2.390625q-0.640625 -1.078125 -1.859375 -1.75q-1.21875 -0.6875 -3.1875 -0.6875zm11.040558 7.578125q0 -4.640625 1.640625 -7.140625q1.640625 -2.515625 5.046875 -2.515625q1.875 0 3.15625 0.703125q1.296875 0.6875 2.09375 1.953125q0.796875 1.265625 1.140625 3.046875q0.359375 1.765625 0.359375 3.953125q0 4.640625 -1.640625 7.140625q-1.640625 2.5 -5.109375 2.5q-1.84375 0 -3.125 -0.6875q-1.265625 -0.6875 -2.078125 -1.953125q-0.796875 -1.265625 -1.140625 -3.03125q-0.34375 -1.78125 -0.34375 -3.96875zm2.34375 0q0 1.546875 0.203125 2.9375q0.203125 1.375 0.703125 2.4375q0.5 1.046875 1.328125 1.671875q0.828125 0.625 2.109375 0.625q2.296875 0 3.34375 -1.859375q1.0625 -1.875 1.0625 -5.8125q0 -1.515625 -0.203125 -2.90625q-0.203125 -1.40625 -0.71875 -2.453125q-0.5 -1.0625 -1.359375 -1.6875q-0.84375 -0.625 -2.125 -0.625q-2.265625 0 -3.3125 1.875q-1.03125 1.875 -1.03125 5.796875zm17.587463 -2.34375l-1.4375 -2.703125l-0.109375 0l0.265625 2.703125l0 11.671875l-2.078125 0l0 -18.65625l1.453125 0l7.515625 11.625l1.375 2.546875l0.140625 0l-0.296875 -2.546875l0 -11.625l2.078125 0l0 18.65625l-1.4375 0l-7.46875 -11.671875zm13.634308 -6.984375l10.953125 0l0 1.96875l-8.75 0l0 6.109375l8.078125 0l0 1.96875l-8.078125 0l0 6.640625l8.875 0l0 1.96875l-11.078125 0l0 -18.65625z" fill-rule="nonzero"/><path fill="#d0e0e3" d="m40.217846 346.42276l0 0c0 -5.215637 4.228115 -9.443756 9.44376 -9.443756l287.3172 0c2.5046387 0 4.9066772 0.9949646 6.6777344 2.7660217c1.7710571 1.7710266 2.7660217 4.1730957 2.7660217 6.6777344l0 37.773895c0 5.215637 -4.228119 9.443756 -9.443756 9.443756l-287.3172 0c-5.215645 0 -9.44376 -4.228119 -9.44376 -9.443756z" fill-rule="evenodd"/><path stroke="#000000" stroke-width="1.0" stroke-linejoin="round" stroke-linecap="butt" d="m40.217846 346.42276l0 0c0 -5.215637 4.228115 -9.443756 9.44376 -9.443756l287.3172 0c2.5046387 0 4.9066772 0.9949646 6.6777344 2.7660217c1.7710571 1.7710266 2.7660217 4.1730957 2.7660217 6.6777344l0 37.773895c0 5.215637 -4.228119 9.443756 -9.443756 9.443756l-287.3172 0c-5.215645 0 -9.44376 -4.228119 -9.44376 -9.443756z" fill-rule="evenodd"/><path fill="#000000" d="m146.62036 365.58157q0 -4.640625 1.640625 -7.140625q1.640625 -2.515625 5.046875 -2.515625q1.875 0 3.15625 0.703125q1.296875 0.6875 2.09375 1.953125q0.796875 1.265625 1.140625 3.046875q0.359375 1.765625 0.359375 3.953125q0 4.296875 -1.359375 6.734375q-1.359375 2.4375 -4.265625 2.828125q0.234375 0.9375 0.890625 1.40625q0.65625 0.46875 1.671875 0.46875q1.140625 0 2.046875 -0.59375l0.578125 1.625q-0.359375 0.4375 -1.15625 0.6875q-0.78125 0.25 -1.640625 0.25q-0.71875 0 -1.484375 -0.203125q-0.75 -0.203125 -1.421875 -0.65625q-0.65625 -0.453125 -1.15625 -1.1875q-0.484375 -0.71875 -0.65625 -1.8125q-1.515625 -0.21875 -2.5625 -0.96875q-1.03125 -0.765625 -1.6875 -2.0q-0.65625 -1.25 -0.953125 -2.90625q-0.28125 -1.671875 -0.28125 -3.671875zm2.34375 0q0 1.546875 0.203125 2.9375q0.203125 1.375 0.703125 2.4375q0.5 1.046875 1.328125 1.671875q0.828125 0.625 2.109375 0.625q2.296875 0 3.34375 -1.859375q1.0625 -1.875 1.0625 -5.8125q0 -1.515625 -0.203125 -2.90625q-0.203125 -1.40625 -0.71875 -2.453125q-0.5 -1.0625 -1.359375 -1.6875q-0.84375 -0.625 -2.125 -0.625q-2.265625 0 -3.3125 1.875q-1.03125 1.875 -1.03125 5.796875zm24.634323 -9.328125l2.125 0l0 12.453125q0 1.671875 -0.4375 2.90625q-0.4375 1.21875 -1.234375 2.015625q-0.796875 0.78125 -1.953125 1.15625q-1.140625 0.359375 -2.53125 0.359375q-3.296875 0 -4.96875 -1.484375q-1.671875 -1.5 -1.671875 -4.53125l0 -12.875l2.21875 0l0 11.828125q0 1.421875 0.28125 2.390625q0.28125 0.96875 0.828125 1.578125q0.546875 0.59375 1.375 0.859375q0.84375 0.265625 1.96875 0.265625q2.15625 0 3.078125 -1.1875q0.921875 -1.1875 0.921875 -3.90625l0 -11.828125zm6.587448 0l10.953125 0l0 1.96875l-8.75 0l0 6.109375l8.078125 0l0 1.96875l-8.078125 0l0 6.640625l8.875 0l0 1.96875l-11.078125 0l0 -18.65625zm25.399948 0l2.125 0l0 12.453125q0 1.671875 -0.4375 2.90625q-0.4375 1.21875 -1.234375 2.015625q-0.796875 0.78125 -1.953125 1.15625q-1.140625 0.359375 -2.53125 0.359375q-3.296875 0 -4.96875 -1.484375q-1.671875 -1.5 -1.671875 -4.53125l0 -12.875l2.21875 0l0 11.828125q0 1.421875 0.28125 2.390625q0.28125 0.96875 0.828125 1.578125q0.546875 0.59375 1.375 0.859375q0.84375 0.265625 1.96875 0.265625q2.15625 0 3.078125 -1.1875q0.921875 -1.1875 0.921875 -3.90625l0 -11.828125zm6.587448 0l10.953125 0l0 1.96875l-8.75 0l0 6.109375l8.078125 0l0 1.96875l-8.078125 0l0 6.640625l8.875 0l0 1.96875l-11.078125 0l0 -18.65625zm15.259323 0q1.015625 -0.140625 2.125 -0.171875q1.109375 -0.046875 1.875 -0.046875q2.4375 0 4.0625 0.703125q1.640625 0.6875 2.640625 1.9375q1.0 1.234375 1.4375 2.96875q0.453125 1.71875 0.453125 3.796875q0 1.890625 -0.40625 3.640625q-0.390625 1.75 -1.390625 3.09375q-0.984375 1.34375 -2.65625 2.15625q-1.65625 0.8125 -4.15625 0.8125q-0.359375 0 -0.921875 -0.015625q-0.546875 0 -1.140625 -0.046875q-0.578125 -0.03125 -1.109375 -0.0625q-0.53125 -0.03125 -0.8125 -0.078125l0 -18.6875zm4.109375 1.75q-0.375 0 -0.953125 0.03125q-0.5625 0.03125 -0.9375 0.109375l0 14.921875q0.140625 0.03125 0.390625 0.046875q0.25 0.015625 0.515625 0.03125q0.265625 0 0.515625 0.015625q0.265625 0.015625 0.421875 0.015625q1.9375 0 3.15625 -0.640625q1.21875 -0.640625 1.875 -1.71875q0.671875 -1.078125 0.90625 -2.46875q0.25 -1.40625 0.25 -2.90625q0 -1.296875 -0.21875 -2.609375q-0.21875 -1.328125 -0.875 -2.390625q-0.640625 -1.078125 -1.859375 -1.75q-1.21875 -0.6875 -3.1875 -0.6875z" fill-rule="nonzero"/><path fill="#c9daf8" d="m40.217846 464.31604l0 0c0 -5.215637 4.228115 -9.443756 9.44376 -9.443756l287.3172 0c2.5046387 0 4.9066772 0.9949646 6.6777344 2.7660217c1.7710571 1.7710571 2.7660217 4.1730957 2.7660217 6.6777344l0 37.773926c0 5.215637 -4.228119 9.443756 -9.443756 9.443756l-287.3172 0c-5.215645 0 -9.44376 -4.228119 -9.44376 -9.443756z" fill-rule="evenodd"/><path stroke="#000000" stroke-width="1.0" stroke-linejoin="round" stroke-linecap="butt" d="m40.217846 464.31604l0 0c0 -5.215637 4.228115 -9.443756 9.44376 -9.443756l287.3172 0c2.5046387 0 4.9066772 0.9949646 6.6777344 2.7660217c1.7710571 1.7710571 2.7660217 4.1730957 2.7660217 6.6777344l0 37.773926c0 5.215637 -4.228119 9.443756 -9.443756 9.443756l-287.3172 0c-5.215645 0 -9.44376 -4.228119 -9.44376 -9.443756z" fill-rule="evenodd"/><path fill="#000000" d="m156.82349 487.63113l-7.171875 0l-1.703125 5.171875l-2.1875 0l6.234375 -18.65625l2.625 0l6.28125 18.65625l-2.3125 0l-1.765625 -5.171875zm-6.46875 -1.921875l5.859375 0l-2.75 -8.765625l-0.3125 0l-2.796875 8.765625zm23.181198 -9.546875q-0.453125 -0.171875 -1.0 -0.265625q-0.546875 -0.09375 -1.3125 -0.09375q-1.09375 0 -2.15625 0.40625q-1.046875 0.390625 -1.859375 1.296875q-0.8125 0.90625 -1.3125 2.375q-0.484375 1.453125 -0.484375 3.59375q0 1.921875 0.4375 3.359375q0.4375 1.4375 1.21875 2.40625q0.796875 0.953125 1.90625 1.4375q1.109375 0.46875 2.46875 0.46875q0.6875 0 1.28125 -0.109375q0.609375 -0.125 1.109375 -0.34375l0 -2.65625l1.96875 0l0 3.59375l0.03125 0.046875q-0.796875 0.625 -2.03125 1.03125q-1.21875 0.40625 -2.984375 0.40625q-1.671875 0 -3.109375 -0.5625q-1.421875 -0.578125 -2.46875 -1.75q-1.03125 -1.171875 -1.609375 -3.0q-0.5625 -1.828125 -0.5625 -4.328125q0 -2.609375 0.640625 -4.4375q0.640625 -1.828125 1.734375 -2.984375q1.09375 -1.15625 2.546875 -1.6875q1.453125 -0.546875 3.09375 -0.546875q0.90625 0 1.578125 0.078125q0.671875 0.0625 1.171875 0.1875q0.515625 0.109375 0.890625 0.296875q0.390625 0.1875 0.765625 0.421875l0.03125 0l0 4.21875l-1.984375 0l0 -2.859375zm4.853073 -2.015625l13.859375 0l0 4.875l-1.96875 0l0 -2.90625l-3.859375 0l0 14.71875l2.921875 0l0 1.96875l-8.078125 0l0 -1.96875l2.9375 0l0 -14.71875l-3.84375 0l0 2.90625l-1.96875 0l0 -4.875zm16.524948 0l12.796875 0l0 1.96875l-5.296875 0l0 14.71875l5.296875 0l0 1.96875l-12.796875 0l0 -1.96875l5.28125 0l0 -14.71875l-5.28125 0l0 -1.96875zm22.446823 15.90625l0.296875 0l5.0625 -15.90625l2.21875 0l-6.265625 18.65625l-2.59375 0l-6.390625 -18.65625l2.421875 0l5.25 15.90625zm10.806198 -15.90625l10.953125 0l0 1.96875l-8.75 0l0 6.109375l8.078125 0l0 1.96875l-8.078125 0l0 6.640625l8.875 0l0 1.96875l-11.078125 0l0 -18.65625z" fill-rule="nonzero"/><path fill="#000000" fill-opacity="0.0" d="m193.3202 393.6404l0 61.228363" fill-rule="evenodd"/><path stroke="#000000" stroke-width="2.0" stroke-linejoin="round" stroke-linecap="butt" d="m193.3202 393.6404l0 54.374176" fill-rule="evenodd"/><path fill="#000000" stroke="#000000" stroke-width="2.0" stroke-linecap="butt" d="m193.3202 448.0146l-2.2491608 -2.249176l2.2491608 6.1795654l2.249176 -6.1795654z" fill-rule="evenodd"/><path fill="#000000" fill-opacity="0.0" d="m193.3202 243.7454l0 93.22835" fill-rule="evenodd"/><path stroke="#000000" stroke-width="2.0" stroke-linejoin="round" stroke-linecap="butt" d="m193.3202 243.7454l0 86.37419" fill-rule="evenodd"/><path fill="#000000" stroke="#000000" stroke-width="2.0" stroke-linecap="butt" d="m193.3202 330.11957l-2.2491608 -2.2491455l2.2491608 6.179535l2.249176 -6.179535z" fill-rule="evenodd"/><path fill="#c9daf8" d="m161.46194 61.986877l0 0c0 -17.594837 14.263428 -31.858269 31.858261 -31.858269l0 0c8.449341 0 16.552612 3.3564873 22.527206 9.33107c5.974579 5.9745865 9.33107 14.077862 9.33107 22.527199l0 0c0 17.594833 -14.263443 31.858269 -31.858276 31.858269l0 0c-17.594833 0 -31.858261 -14.263435 -31.858261 -31.858269z" fill-rule="evenodd"/><path stroke="#000000" stroke-width="1.0" stroke-linejoin="round" stroke-linecap="butt" d="m161.46194 61.986877l0 0c0 -17.594837 14.263428 -31.858269 31.858261 -31.858269l0 0c8.449341 0 16.552612 3.3564873 22.527206 9.33107c5.974579 5.9745865 9.33107 14.077862 9.33107 22.527199l0 0c0 17.594833 -14.263443 31.858269 -31.858276 31.858269l0 0c-17.594833 0 -31.858261 -14.263435 -31.858261 -31.858269z" fill-rule="evenodd"/><path fill="#b6d7a8" d="m40.217846 196.52774l0 0c0 -5.215637 4.228115 -9.443756 9.44376 -9.443756l287.3172 0c2.5046387 0 4.9066772 0.9949646 6.6777344 2.7660217c1.7710571 1.7710419 2.7660217 4.1730957 2.7660217 6.6777344l0 37.77391c0 5.215637 -4.228119 9.443756 -9.443756 9.443756l-287.3172 0c-5.215645 0 -9.44376 -4.228119 -9.44376 -9.443756z" fill-rule="evenodd"/><path stroke="#000000" stroke-width="1.0" stroke-linejoin="round" stroke-linecap="butt" d="m40.217846 196.52774l0 0c0 -5.215637 4.228115 -9.443756 9.44376 -9.443756l287.3172 0c2.5046387 0 4.9066772 0.9949646 6.6777344 2.7660217c1.7710571 1.7710419 2.7660217 4.1730957 2.7660217 6.6777344l0 37.77391c0 5.215637 -4.228119 9.443756 -9.443756 9.443756l-287.3172 0c-5.215645 0 -9.44376 -4.228119 -9.44376 -9.443756z" fill-rule="evenodd"/><path fill="#000000" d="m174.5484 213.34282l-1.4375 -2.703125l-0.109375 0l0.265625 2.703125l0 11.671875l-2.078125 0l0 -18.65625l1.453125 0l7.515625 11.625l1.375 2.546875l0.140625 0l-0.296875 -2.546875l0 -11.625l2.078125 0l0 18.65625l-1.4375 0l-7.46875 -11.671875zm13.634338 -6.984375l10.953125 0l0 1.96875l-8.75 0l0 6.109375l8.078125 0l0 1.96875l-8.078125 0l0 6.640625l8.875 0l0 1.96875l-11.078125 0l0 -18.65625zm17.743683 13.296875l0.140625 1.734375l0.1875 0l0.359375 -1.890625l1.984375 -7.28125l1.75 0l1.84375 7.21875l0.484375 1.984375l0.125 0l0.171875 -1.8125l1.96875 -13.25l1.96875 0l-2.875 18.65625l-2.21875 0l-2.15625 -7.578125l-0.265625 -1.8125l-0.078125 0l-0.296875 1.84375l-2.15625 7.546875l-2.234375 0l-2.90625 -18.65625l2.09375 0l2.109375 13.296875z" fill-rule="nonzero"/><path fill="#000000" fill-opacity="0.0" d="m193.3202 93.845146l0 93.22834" fill-rule="evenodd"/><path stroke="#000000" stroke-width="2.0" stroke-linejoin="round" stroke-linecap="butt" d="m193.3202 93.845146l0 81.22834" fill-rule="evenodd"/><path fill="#000000" stroke="#000000" stroke-width="2.0" stroke-linecap="butt" d="m190.01674 175.07349l3.3034668 9.076202l3.3034668 -9.076202z" fill-rule="evenodd"/><path fill="#000000" fill-opacity="0.0" d="m346.42258 483.203l69.79526 -0.09448242" fill-rule="evenodd"/><path stroke="#000000" stroke-width="2.0" stroke-linejoin="round" stroke-linecap="butt" d="m346.42258 483.203l62.9411 -0.085235596" fill-rule="evenodd"/><path fill="#000000" stroke="#000000" stroke-width="2.0" stroke-linecap="butt" d="m409.36368 483.1178l-2.2461243 2.2521973l6.176483 -2.2575378l-6.182556 -2.2407837z" fill-rule="evenodd"/><path fill="#000000" fill-opacity="0.0" d="m569.3202 629.3202l-183.43304 117.25989" fill-rule="evenodd"/><path stroke="#000000" stroke-width="2.0" stroke-linejoin="round" stroke-linecap="butt" d="m569.3202 629.3202l-177.65802 113.56818" fill-rule="evenodd"/><path fill="#000000" stroke="#000000" stroke-width="2.0" stroke-linecap="butt" d="m391.66217 742.88837l0.6836548 -3.1065063l-3.9952087 5.2233887l6.41803 -1.4332886z" fill-rule="evenodd"/><path fill="#000000" fill-opacity="0.0" d="m193.3202 511.53372l192.56694 235.02359" fill-rule="evenodd"/><path stroke="#000000" stroke-width="2.0" stroke-linejoin="round" stroke-linecap="butt" d="m193.3202 511.53372l188.22289 229.72177" fill-rule="evenodd"/><path fill="#000000" stroke="#000000" stroke-width="2.0" stroke-linecap="butt" d="m381.5431 741.25555l-3.1652222 -0.31433105l5.6562195 3.3544922l-2.1766968 -6.2054443z" fill-rule="evenodd"/><path fill="#000000" fill-opacity="0.0" d="m632.1181 512.4897l0 61.228333" fill-rule="evenodd"/><path stroke="#000000" stroke-width="2.0" stroke-linejoin="round" stroke-linecap="butt" d="m632.1181 519.3438l0 54.374207" fill-rule="evenodd"/><path fill="#000000" stroke="#000000" stroke-width="2.0" stroke-linecap="butt" d="m632.1181 519.3438l2.2491455 2.2492065l-2.2491455 -6.1795654l-2.2491455 6.1795654z" fill-rule="evenodd"/><path fill="#c9daf8" d="m353.48294 963.6142l0 0c0 -17.594849 14.263428 -31.858276 31.858276 -31.858276l0 0c8.449341 0 16.552612 3.3564453 22.527191 9.331055c5.974579 5.9746094 9.331055 14.077881 9.331055 22.527222l0 0c0 17.594788 -14.263428 31.858215 -31.858246 31.858215l0 0c-17.594849 0 -31.858276 -14.263428 -31.858276 -31.858215z" fill-rule="evenodd"/><path stroke="#000000" stroke-width="1.0" stroke-linejoin="round" stroke-linecap="butt" d="m353.48294 963.6142l0 0c0 -17.594849 14.263428 -31.858276 31.858276 -31.858276l0 0c8.449341 0 16.552612 3.3564453 22.527191 9.331055c5.974579 5.9746094 9.331055 14.077881 9.331055 22.527222l0 0c0 17.594788 -14.263428 31.858215 -31.858246 31.858215l0 0c-17.594849 0 -31.858276 -14.263428 -31.858276 -31.858215z" fill-rule="evenodd"/><path fill="#000000" fill-opacity="0.0" d="m344.33334 963.6142l0 0c0 -25.744324 18.359833 -46.614197 41.007874 -46.614197l0 0c10.875946 0 21.306458 4.911133 28.996948 13.652954c7.69046 8.741882 12.010925 20.598389 12.010925 32.961243l0 0c0 25.744263 -18.359863 46.614136 -41.007874 46.614136l0 0c-22.64804 0 -41.007874 -20.869873 -41.007874 -46.614136z" fill-rule="evenodd"/><path stroke="#000000" stroke-width="1.0" stroke-linejoin="round" stroke-linecap="butt" d="m344.33334 963.6142l0 0c0 -25.744324 18.359833 -46.614197 41.007874 -46.614197l0 0c10.875946 0 21.306458 4.911133 28.996948 13.652954c7.69046 8.741882 12.010925 20.598389 12.010925 32.961243l0 0c0 25.744263 -18.359863 46.614136 -41.007874 46.614136l0 0c-22.64804 0 -41.007874 -20.869873 -41.007874 -46.614136z" fill-rule="evenodd"/><path fill="#000000" fill-opacity="0.0" d="m142.66966 803.23096l213.6693 127.433105" fill-rule="evenodd"/><path stroke="#000000" stroke-width="2.0" stroke-linejoin="round" stroke-linecap="butt" d="m142.66966 803.23096l207.78255 123.92224" fill-rule="evenodd"/><path fill="#000000" stroke="#000000" stroke-width="2.0" stroke-linecap="butt" d="m350.45224 927.1532l-3.0838013 0.77960205l6.459381 1.2335815l-4.1552124 -5.096985z" fill-rule="evenodd"/><path fill="#000000" fill-opacity="0.0" d="m385.89496 803.23096l-0.56692505 113.763794" fill-rule="evenodd"/><path stroke="#000000" stroke-width="2.0" stroke-linejoin="round" stroke-linecap="butt" d="m385.89496 803.23096l-0.53274536 106.90973" fill-rule="evenodd"/><path fill="#000000" stroke="#000000" stroke-width="2.0" stroke-linecap="butt" d="m385.3622 910.1407l-2.2379456 -2.260376l2.2183533 6.190674l2.2799377 -6.168274z" fill-rule="evenodd"/><path fill="#000000" fill-opacity="0.0" d="m629.1202 803.23096l-214.77164 127.433105" fill-rule="evenodd"/><path stroke="#000000" stroke-width="2.0" stroke-linejoin="round" stroke-linecap="butt" d="m629.1202 803.23096l-208.87698 123.93555" fill-rule="evenodd"/><path fill="#000000" stroke="#000000" stroke-width="2.0" stroke-linecap="butt" d="m420.2432 927.1665l0.7865906 -3.0820312l-4.166748 5.0875854l6.462158 -1.2189331z" fill-rule="evenodd"/></g></svg>